NotoSansOriyaUI-Black.ufo
<glyph name="exclam" format="2">
  <advance width="429"/>
  <unicode hex="0021"/>
  <outline>
    <contour>
      <point x="147" y="345" type="line"/>
      <point x="308" y="345" type="line"/>
      <point x="333" y="807" type="line"/>
      <point x="122" y="807" type="line"/>
    </contour>
    <contour>
      <point x="124" y="174" type="curve" smooth="yes"/>
      <point x="124" y="108"/>
      <point x="171" y="81"/>
      <point x="227" y="81" type="curve" smooth="yes"/>
      <point x="282" y="81"/>
      <point x="328" y="108"/>
      <point x="328" y="174" type="curve" smooth="yes"/>
      <point x="328" y="243"/>
      <point x="282" y="268"/>
      <point x="227" y="268" type="curve" smooth="yes"/>
      <point x="171" y="268"/>
      <point x="124" y="243"/>
    </contour>
  </outline>
</glyph>
<glyph name="quotedbl" format="2">
  <advance width="582"/>
  <unicode hex="0022"/>
  <outline>
    <contour>
      <point x="116" y="564" type="line"/>
      <point x="250" y="564" type="line"/>
      <point x="270" y="822" type="line"/>
      <point x="96" y="822" type="line"/>
    </contour>
    <contour>
      <point x="348" y="564" type="line"/>
      <point x="482" y="564" type="line"/>
      <point x="502" y="822" type="line"/>
      <point x="328" y="822" type="line"/>
    </contour>
  </outline>
</glyph>
<glyph name="percent" format="2">
  <advance width="960"/>
  <unicode hex="0025"/>
  <outline>
    <contour>
      <point x="607" y="715" type="line"/>
      <point x="211" y="93" type="line"/>
      <point x="351" y="93" type="line"/>
      <point x="747" y="715" type="line"/>
    </contour>
    <contour>
      <point x="220" y="351" type="curve" smooth="yes"/>
      <point x="341" y="351"/>
      <point x="406" y="421"/>
      <point x="406" y="539" type="curve" smooth="yes"/>
      <point x="406" y="657"/>
      <point x="338" y="725"/>
      <point x="220" y="725" type="curve" smooth="yes"/>
      <point x="106" y="725"/>
      <point x="38" y="657"/>
      <point x="38" y="539" type="curve" smooth="yes"/>
      <point x="38" y="421"/>
      <point x="105" y="351"/>
    </contour>
    <contour>
      <point x="222" y="469" type="curve" smooth="yes"/>
      <point x="194" y="469"/>
      <point x="185" y="496"/>
      <point x="185" y="538" type="curve" smooth="yes"/>
      <point x="185" y="580"/>
      <point x="194" y="607"/>
      <point x="222" y="607" type="curve" smooth="yes"/>
      <point x="250" y="607"/>
      <point x="259" y="580"/>
      <point x="259" y="538" type="curve" smooth="yes"/>
      <point x="259" y="496"/>
      <point x="250" y="469"/>
    </contour>
    <contour>
      <point x="740" y="85" type="curve" smooth="yes"/>
      <point x="857" y="85"/>
      <point x="922" y="153"/>
      <point x="922" y="271" type="curve" smooth="yes"/>
      <point x="922" y="389"/>
      <point x="855" y="459"/>
      <point x="740" y="459" type="curve" smooth="yes"/>
      <point x="622" y="459"/>
      <point x="554" y="391"/>
      <point x="554" y="273" type="curve" smooth="yes"/>
      <point x="554" y="155"/>
      <point x="621" y="85"/>
    </contour>
    <contour>
      <point x="738" y="203" type="curve" smooth="yes"/>
      <point x="710" y="203"/>
      <point x="701" y="230"/>
      <point x="701" y="272" type="curve" smooth="yes"/>
      <point x="701" y="314"/>
      <point x="710" y="341"/>
      <point x="738" y="341" type="curve" smooth="yes"/>
      <point x="766" y="341"/>
      <point x="775" y="316"/>
      <point x="775" y="272" type="curve" smooth="yes"/>
      <point x="775" y="230"/>
      <point x="766" y="203"/>
    </contour>
  </outline>
</glyph>
<glyph name="parenleft" format="2">
  <advance width="412"/>
  <unicode hex="0028"/>
  <outline>
    <contour>
      <point x="203" y="-72" type="curve"/>
      <point x="361" y="-72" type="line"/>
      <point x="275" y="66"/>
      <point x="234" y="250"/>
      <point x="234" y="424" type="curve" smooth="yes"/>
      <point x="234" y="600"/>
      <point x="274" y="785"/>
      <point x="362" y="925" type="curve"/>
      <point x="203" y="925" type="line"/>
      <point x="109" y="788"/>
      <point x="66" y="604"/>
      <point x="66" y="426" type="curve" smooth="yes"/>
      <point x="66" y="242"/>
      <point x="110" y="61"/>
    </contour>
  </outline>
</glyph>
<glyph name="parenright" format="2">
  <advance width="412"/>
  <unicode hex="0029"/>
  <outline>
    <contour>
      <point x="50" y="-72" type="curve"/>
      <point x="209" y="-72" type="line"/>
      <point x="303" y="65"/>
      <point x="346" y="249"/>
      <point x="346" y="427" type="curve" smooth="yes"/>
      <point x="346" y="611"/>
      <point x="302" y="792"/>
      <point x="209" y="925" type="curve"/>
      <point x="51" y="925" type="line"/>
      <point x="137" y="787"/>
      <point x="178" y="603"/>
      <point x="178" y="429" type="curve" smooth="yes"/>
      <point x="178" y="253"/>
      <point x="138" y="68"/>
    </contour>
  </outline>
</glyph>
<glyph name="asterisk" format="2">
  <advance width="612"/>
  <unicode hex="002A"/>
  <outline>
    <contour>
      <point x="217" y="561" type="line"/>
      <point x="116" y="425" type="line"/>
      <point x="249" y="359" type="line"/>
      <point x="309" y="496" type="line"/>
      <point x="379" y="358" type="line"/>
      <point x="506" y="425" type="line"/>
      <point x="405" y="561" type="line"/>
      <point x="558" y="571" type="line"/>
      <point x="540" y="715" type="line"/>
      <point x="366" y="666" type="line"/>
      <point x="385" y="838" type="line"/>
      <point x="237" y="838" type="line"/>
      <point x="256" y="666" type="line"/>
      <point x="86" y="715" type="line"/>
      <point x="64" y="573" type="line"/>
    </contour>
  </outline>
</glyph>
<glyph name="comma" format="2">
  <advance width="299"/>
  <unicode hex="002C"/>
  <outline>
    <contour>
      <point x="31" y="-46" type="curve"/>
      <point x="31" y="-46" type="line"/>
      <point x="167" y="-46" type="line"/>
      <point x="200" y="28"/>
      <point x="235" y="156"/>
      <point x="253" y="228" type="curve"/>
      <point x="246" y="239" type="line"/>
      <point x="79" y="239" type="line"/>
      <point x="70" y="159"/>
      <point x="50" y="45"/>
    </contour>
  </outline>
</glyph>
<glyph name="period" format="2">
  <advance width="299"/>
  <unicode hex="002E"/>
  <outline>
    <contour>
      <point x="47" y="174" type="curve"/>
      <point x="47" y="174" type="line"/>
      <point x="47" y="108"/>
      <point x="94" y="81"/>
      <point x="151" y="81" type="curve"/>
      <point x="205" y="81"/>
      <point x="251" y="108"/>
      <point x="251" y="174" type="curve"/>
      <point x="251" y="243"/>
      <point x="205" y="268"/>
      <point x="151" y="268" type="curve"/>
      <point x="94" y="268"/>
      <point x="47" y="243"/>
    </contour>
  </outline>
</glyph>
<glyph name="slash" format="2">
  <advance width="507"/>
  <unicode hex="002F"/>
  <outline>
    <contour>
      <point x="315" y="926" type="line"/>
      <point x="29" y="-73" type="line"/>
      <point x="191" y="-73" type="line"/>
      <point x="477" y="926" type="line"/>
    </contour>
  </outline>
</glyph>
<glyph name="zero" format="2">
  <advance width="578"/>
  <unicode hex="0030"/>
  <outline>
    <contour>
      <point x="289" y="83" type="curve" smooth="yes"/>
      <point x="478" y="83"/>
      <point x="543" y="222"/>
      <point x="543" y="449" type="curve" smooth="yes"/>
      <point x="543" y="682"/>
      <point x="464" y="817"/>
      <point x="289" y="817" type="curve" smooth="yes"/>
      <point x="102" y="817"/>
      <point x="35" y="682"/>
      <point x="35" y="449" type="curve" smooth="yes"/>
      <point x="35" y="219"/>
      <point x="113" y="83"/>
    </contour>
    <contour>
      <point x="289" y="236" type="curve" smooth="yes"/>
      <point x="237" y="236"/>
      <point x="225" y="308"/>
      <point x="225" y="449" type="curve" smooth="yes"/>
      <point x="225" y="591"/>
      <point x="237" y="664"/>
      <point x="289" y="664" type="curve" smooth="yes"/>
      <point x="341" y="664"/>
      <point x="353" y="591"/>
      <point x="353" y="449" type="curve" smooth="yes"/>
      <point x="353" y="307"/>
      <point x="341" y="236"/>
    </contour>
  </outline>
</glyph>
<glyph name="one" format="2">
  <advance width="578"/>
  <unicode hex="0031"/>
  <outline>
    <contour>
      <point x="262" y="93" type="line"/>
      <point x="455" y="93" type="line"/>
      <point x="455" y="807" type="line"/>
      <point x="283" y="807" type="line"/>
      <point x="41" y="605" type="line"/>
      <point x="141" y="484" type="line"/>
      <point x="220" y="551" type="line" smooth="yes"/>
      <point x="234" y="563"/>
      <point x="248" y="577"/>
      <point x="264" y="597" type="curve"/>
      <point x="262" y="547"/>
      <point x="262" y="469"/>
      <point x="262" y="448" type="curve" smooth="yes"/>
    </contour>
  </outline>
</glyph>
<glyph name="two" format="2">
  <advance width="578"/>
  <unicode hex="0032"/>
  <outline>
    <contour>
      <point x="30" y="219" type="line"/>
      <point x="30" y="93" type="line"/>
      <point x="539" y="93" type="line"/>
      <point x="539" y="251" type="line"/>
      <point x="274" y="251" type="line"/>
      <point x="274" y="256" type="line"/>
      <point x="328" y="307" type="line" smooth="yes"/>
      <point x="461" y="430"/>
      <point x="525" y="501"/>
      <point x="525" y="622" type="curve" smooth="yes"/>
      <point x="525" y="734"/>
      <point x="433" y="817"/>
      <point x="290" y="817" type="curve" smooth="yes"/>
      <point x="162" y="817"/>
      <point x="87" y="761"/>
      <point x="22" y="703" type="curve"/>
      <point x="126" y="580" type="line"/>
      <point x="183" y="631"/>
      <point x="224" y="656"/>
      <point x="269" y="656" type="curve" smooth="yes"/>
      <point x="306" y="656"/>
      <point x="336" y="638"/>
      <point x="336" y="596" type="curve" smooth="yes"/>
      <point x="336" y="544"/>
      <point x="307" y="509"/>
      <point x="200" y="396" type="curve" smooth="yes"/>
    </contour>
  </outline>
</glyph>
<glyph name="three" format="2">
  <advance width="578"/>
  <unicode hex="0033"/>
  <outline>
    <contour>
      <point x="244" y="83" type="curve" smooth="yes"/>
      <point x="446" y="83"/>
      <point x="537" y="179"/>
      <point x="537" y="297" type="curve" smooth="yes"/>
      <point x="537" y="397"/>
      <point x="474" y="451"/>
      <point x="362" y="466" type="curve"/>
      <point x="362" y="469" type="line"/>
      <point x="446" y="493"/>
      <point x="517" y="551"/>
      <point x="517" y="650" type="curve" smooth="yes"/>
      <point x="517" y="755"/>
      <point x="428" y="817"/>
      <point x="283" y="817" type="curve" smooth="yes"/>
      <point x="163" y="817"/>
      <point x="94" y="786"/>
      <point x="35" y="745" type="curve"/>
      <point x="113" y="617" type="line"/>
      <point x="136" y="632"/>
      <point x="190" y="663"/>
      <point x="253" y="663" type="curve" smooth="yes"/>
      <point x="301" y="663"/>
      <point x="332" y="645"/>
      <point x="332" y="607" type="curve" smooth="yes"/>
      <point x="332" y="561"/>
      <point x="294" y="531"/>
      <point x="187" y="531" type="curve" smooth="yes"/>
      <point x="143" y="531" type="line"/>
      <point x="143" y="386" type="line"/>
      <point x="186" y="386" type="line" smooth="yes"/>
      <point x="306" y="386"/>
      <point x="336" y="358"/>
      <point x="336" y="309" type="curve" smooth="yes"/>
      <point x="336" y="263"/>
      <point x="308" y="234"/>
      <point x="216" y="234" type="curve" smooth="yes"/>
      <point x="163" y="234"/>
      <point x="95" y="249"/>
      <point x="34" y="281" type="curve"/>
      <point x="34" y="122" type="line"/>
      <point x="95" y="97"/>
      <point x="154" y="83"/>
    </contour>
  </outline>
</glyph>
<glyph name="four" format="2">
  <advance width="578"/>
  <unicode hex="0034"/>
  <outline>
    <contour>
      <point x="297" y="231" type="line"/>
      <point x="297" y="93" type="line"/>
      <point x="485" y="93" type="line"/>
      <point x="485" y="231" type="line"/>
      <point x="563" y="231" type="line"/>
      <point x="563" y="374" type="line"/>
      <point x="485" y="374" type="line"/>
      <point x="485" y="807" type="line"/>
      <point x="309" y="807" type="line"/>
      <point x="17" y="372" type="line"/>
      <point x="17" y="231" type="line"/>
    </contour>
    <contour>
      <point x="297" y="371" type="line"/>
      <point x="179" y="371" type="line"/>
      <point x="258" y="494" type="line" smooth="yes"/>
      <point x="274" y="520"/>
      <point x="284" y="535"/>
      <point x="296" y="564" type="curve"/>
      <point x="301" y="564" type="line"/>
      <point x="300" y="562"/>
      <point x="297" y="487"/>
      <point x="297" y="459" type="curve" smooth="yes"/>
    </contour>
  </outline>
</glyph>
<glyph name="five" format="2">
  <advance width="578"/>
  <unicode hex="0035"/>
  <outline>
    <contour>
      <point x="246" y="83" type="curve"/>
      <point x="246" y="83" type="line"/>
      <point x="438" y="83"/>
      <point x="532" y="171"/>
      <point x="532" y="331" type="curve"/>
      <point x="532" y="477"/>
      <point x="437" y="561"/>
      <point x="320" y="561" type="curve"/>
      <point x="276" y="561"/>
      <point x="259" y="556"/>
      <point x="237" y="552" type="curve"/>
      <point x="246" y="647" type="line"/>
      <point x="485" y="647" type="line"/>
      <point x="485" y="807" type="line"/>
      <point x="84" y="807" type="line"/>
      <point x="58" y="431" type="line"/>
      <point x="127" y="396" type="line"/>
      <point x="153" y="404"/>
      <point x="188" y="413"/>
      <point x="223" y="413" type="curve"/>
      <point x="301" y="413"/>
      <point x="339" y="380"/>
      <point x="339" y="325" type="curve"/>
      <point x="339" y="265"/>
      <point x="300" y="234"/>
      <point x="230" y="234" type="curve"/>
      <point x="172" y="234"/>
      <point x="96" y="256"/>
      <point x="46" y="279" type="curve"/>
      <point x="46" y="122" type="line"/>
      <point x="98" y="96"/>
      <point x="165" y="83"/>
    </contour>
  </outline>
</glyph>
<glyph name="six" format="2">
  <advance width="578"/>
  <unicode hex="0036"/>
  <outline>
    <contour>
      <point x="299" y="83" type="curve" smooth="yes"/>
      <point x="453" y="83"/>
      <point x="547" y="177"/>
      <point x="547" y="337" type="curve" smooth="yes"/>
      <point x="547" y="485"/>
      <point x="474" y="569"/>
      <point x="351" y="569" type="curve" smooth="yes"/>
      <point x="277" y="569"/>
      <point x="237" y="534"/>
      <point x="212" y="486" type="curve"/>
      <point x="206" y="486" type="line"/>
      <point x="212" y="601"/>
      <point x="258" y="668"/>
      <point x="399" y="668" type="curve" smooth="yes"/>
      <point x="445" y="668"/>
      <point x="476" y="664"/>
      <point x="503" y="659" type="curve"/>
      <point x="503" y="809" type="line"/>
      <point x="476" y="813"/>
      <point x="430" y="817"/>
      <point x="401" y="817" type="curve" smooth="yes"/>
      <point x="92" y="817"/>
      <point x="34" y="601"/>
      <point x="34" y="395" type="curve" smooth="yes"/>
      <point x="34" y="183"/>
      <point x="147" y="83"/>
    </contour>
    <contour>
      <point x="295" y="235" type="curve" smooth="yes"/>
      <point x="246" y="235"/>
      <point x="224" y="291"/>
      <point x="224" y="343" type="curve" smooth="yes"/>
      <point x="224" y="382"/>
      <point x="250" y="421"/>
      <point x="297" y="421" type="curve" smooth="yes"/>
      <point x="343" y="421"/>
      <point x="362" y="388"/>
      <point x="362" y="333" type="curve" smooth="yes"/>
      <point x="362" y="265"/>
      <point x="335" y="235"/>
    </contour>
  </outline>
</glyph>
<glyph name="seven" format="2">
  <advance width="578"/>
  <unicode hex="0037"/>
  <outline>
    <contour>
      <point x="342" y="647" type="line"/>
      <point x="101" y="93" type="line"/>
      <point x="299" y="93" type="line"/>
      <point x="545" y="692" type="line"/>
      <point x="545" y="806" type="line"/>
      <point x="38" y="806" type="line"/>
      <point x="38" y="647" type="line"/>
    </contour>
  </outline>
</glyph>
<glyph name="eight" format="2">
  <advance width="578"/>
  <unicode hex="0038"/>
  <outline>
    <contour>
      <point x="289" y="83" type="curve"/>
      <point x="289" y="83" type="line"/>
      <point x="465" y="83"/>
      <point x="546" y="167"/>
      <point x="546" y="283" type="curve"/>
      <point x="546" y="375"/>
      <point x="474" y="429"/>
      <point x="405" y="469" type="curve"/>
      <point x="477" y="505"/>
      <point x="526" y="558"/>
      <point x="526" y="643" type="curve"/>
      <point x="526" y="759"/>
      <point x="431" y="817"/>
      <point x="291" y="817" type="curve"/>
      <point x="152" y="817"/>
      <point x="54" y="759"/>
      <point x="54" y="644" type="curve"/>
      <point x="54" y="562"/>
      <point x="101" y="507"/>
      <point x="161" y="466" type="curve"/>
      <point x="86" y="427"/>
      <point x="33" y="378"/>
      <point x="33" y="281" type="curve"/>
      <point x="33" y="163"/>
      <point x="112" y="83"/>
    </contour>
    <contour>
      <point x="287" y="221" type="curve"/>
      <point x="287" y="221" type="line"/>
      <point x="237" y="221"/>
      <point x="208" y="248"/>
      <point x="208" y="289" type="curve"/>
      <point x="208" y="331"/>
      <point x="243" y="360"/>
      <point x="287" y="384" type="curve"/>
      <point x="329" y="359"/>
      <point x="371" y="326"/>
      <point x="371" y="285" type="curve"/>
      <point x="371" y="245"/>
      <point x="344" y="221"/>
    </contour>
    <contour>
      <point x="288" y="552" type="curve"/>
      <point x="288" y="552" type="line"/>
      <point x="256" y="570"/>
      <point x="232" y="596"/>
      <point x="232" y="626" type="curve"/>
      <point x="232" y="658"/>
      <point x="258" y="679"/>
      <point x="290" y="679" type="curve"/>
      <point x="320" y="679"/>
      <point x="346" y="659"/>
      <point x="346" y="626" type="curve"/>
      <point x="346" y="589"/>
      <point x="316" y="569"/>
    </contour>
  </outline>
</glyph>
<glyph name="nine" format="2">
  <advance width="578"/>
  <unicode hex="0039"/>
  <outline>
    <contour>
      <point x="173" y="83" type="curve"/>
      <point x="173" y="83" type="line"/>
      <point x="447" y="83"/>
      <point x="545" y="221"/>
      <point x="545" y="482" type="curve"/>
      <point x="545" y="716"/>
      <point x="427" y="814"/>
      <point x="275" y="814" type="curve"/>
      <point x="120" y="814"/>
      <point x="26" y="720"/>
      <point x="26" y="561" type="curve"/>
      <point x="26" y="413"/>
      <point x="101" y="328"/>
      <point x="220" y="328" type="curve"/>
      <point x="311" y="328"/>
      <point x="341" y="363"/>
      <point x="367" y="411" type="curve"/>
      <point x="373" y="411" type="line"/>
      <point x="368" y="316"/>
      <point x="324" y="232"/>
      <point x="157" y="232" type="curve"/>
      <point x="127" y="232"/>
      <point x="101" y="235"/>
      <point x="73" y="240" type="curve"/>
      <point x="73" y="88" type="line"/>
      <point x="100" y="84"/>
      <point x="144" y="83"/>
    </contour>
    <contour>
      <point x="278" y="476" type="curve"/>
      <point x="278" y="476" type="line"/>
      <point x="233" y="476"/>
      <point x="211" y="509"/>
      <point x="211" y="563" type="curve"/>
      <point x="211" y="632"/>
      <point x="239" y="661"/>
      <point x="280" y="661" type="curve"/>
      <point x="329" y="661"/>
      <point x="355" y="603"/>
      <point x="355" y="554" type="curve"/>
      <point x="355" y="517"/>
      <point x="324" y="476"/>
    </contour>
  </outline>
</glyph>
<glyph name="colon" format="2">
  <advance width="348"/>
  <unicode hex="003A"/>
  <outline>
    <contour>
      <point x="176" y="466" type="curve" smooth="yes"/>
      <point x="230" y="466"/>
      <point x="276" y="493"/>
      <point x="276" y="560" type="curve" smooth="yes"/>
      <point x="276" y="628"/>
      <point x="230" y="653"/>
      <point x="176" y="653" type="curve" smooth="yes"/>
      <point x="119" y="653"/>
      <point x="72" y="628"/>
      <point x="72" y="560" type="curve" smooth="yes"/>
      <point x="72" y="493"/>
      <point x="119" y="466"/>
    </contour>
    <contour>
      <point x="176" y="81" type="curve" smooth="yes"/>
      <point x="230" y="81"/>
      <point x="276" y="108"/>
      <point x="276" y="174" type="curve" smooth="yes"/>
      <point x="276" y="243"/>
      <point x="230" y="268"/>
      <point x="176" y="268" type="curve" smooth="yes"/>
      <point x="119" y="268"/>
      <point x="72" y="243"/>
      <point x="72" y="174" type="curve" smooth="yes"/>
      <point x="72" y="108"/>
      <point x="119" y="81"/>
    </contour>
  </outline>
</glyph>
<glyph name="semicolon" format="2">
  <advance width="348"/>
  <unicode hex="003B"/>
  <outline>
    <contour>
      <point x="277" y="228" type="curve"/>
      <point x="270" y="239" type="line"/>
      <point x="103" y="239" type="line"/>
      <point x="94" y="159"/>
      <point x="74" y="45"/>
      <point x="55" y="-46" type="curve"/>
      <point x="191" y="-46" type="line"/>
      <point x="224" y="28"/>
      <point x="259" y="156"/>
    </contour>
    <contour>
      <point x="175" y="466" type="curve"/>
      <point x="175" y="466" type="line"/>
      <point x="229" y="466"/>
      <point x="276" y="493"/>
      <point x="276" y="560" type="curve"/>
      <point x="276" y="628"/>
      <point x="229" y="653"/>
      <point x="175" y="653" type="curve"/>
      <point x="118" y="653"/>
      <point x="72" y="628"/>
      <point x="72" y="560" type="curve"/>
      <point x="72" y="493"/>
      <point x="118" y="466"/>
    </contour>
  </outline>
</glyph>
<glyph name="question" format="2">
  <advance width="567"/>
  <unicode hex="003F"/>
  <outline>
    <contour>
      <point x="173" y="345" type="line"/>
      <point x="323" y="345" type="line"/>
      <point x="323" y="367" type="line" smooth="yes"/>
      <point x="323" y="401"/>
      <point x="341" y="415"/>
      <point x="392" y="451" type="curve" smooth="yes"/>
      <point x="481" y="514"/>
      <point x="510" y="556"/>
      <point x="510" y="639" type="curve" smooth="yes"/>
      <point x="510" y="746"/>
      <point x="431" y="817"/>
      <point x="283" y="817" type="curve" smooth="yes"/>
      <point x="203" y="817"/>
      <point x="130" y="798"/>
      <point x="55" y="762" type="curve"/>
      <point x="122" y="628" type="line"/>
      <point x="172" y="652"/>
      <point x="219" y="667"/>
      <point x="269" y="667" type="curve" smooth="yes"/>
      <point x="313" y="667"/>
      <point x="330" y="648"/>
      <point x="330" y="619" type="curve" smooth="yes"/>
      <point x="330" y="594"/>
      <point x="318" y="572"/>
      <point x="256" y="529" type="curve" smooth="yes"/>
      <point x="193" y="485"/>
      <point x="173" y="449"/>
      <point x="173" y="387" type="curve" smooth="yes"/>
    </contour>
    <contour>
      <point x="152" y="174" type="curve" smooth="yes"/>
      <point x="152" y="108"/>
      <point x="198" y="81"/>
      <point x="255" y="81" type="curve" smooth="yes"/>
      <point x="310" y="81"/>
      <point x="356" y="108"/>
      <point x="356" y="174" type="curve" smooth="yes"/>
      <point x="356" y="243"/>
      <point x="310" y="268"/>
      <point x="255" y="268" type="curve" smooth="yes"/>
      <point x="198" y="268"/>
      <point x="152" y="243"/>
    </contour>
  </outline>
</glyph>
<glyph name="bracketleft" format="2">
  <advance width="406"/>
  <unicode hex="005B"/>
  <outline>
    <contour>
      <point x="357" y="925" type="line"/>
      <point x="105" y="925" type="line"/>
      <point x="105" y="-73" type="line"/>
      <point x="357" y="-73" type="line"/>
      <point x="357" y="51" type="line"/>
      <point x="260" y="51" type="line"/>
      <point x="260" y="801" type="line"/>
      <point x="357" y="801" type="line"/>
    </contour>
  </outline>
</glyph>
<glyph name="backslash" format="2">
  <advance width="507"/>
  <unicode hex="005C"/>
  <outline>
    <contour>
      <point x="29" y="927" type="line"/>
      <point x="315" y="-73" type="line"/>
      <point x="477" y="-73" type="line"/>
      <point x="191" y="927" type="line"/>
    </contour>
  </outline>
</glyph>
<glyph name="bracketright" format="2">
  <advance width="406"/>
  <unicode hex="005D"/>
  <outline>
    <contour>
      <point x="146" y="51" type="line"/>
      <point x="49" y="51" type="line"/>
      <point x="49" y="-73" type="line"/>
      <point x="301" y="-73" type="line"/>
      <point x="301" y="925" type="line"/>
      <point x="49" y="925" type="line"/>
      <point x="49" y="801" type="line"/>
      <point x="146" y="801" type="line"/>
    </contour>
  </outline>
</glyph>
<glyph name="underscore" format="2">
  <advance width="411"/>
  <unicode hex="005F"/>
  <outline>
    <contour>
      <point x="-2" y="3" type="line"/>
      <point x="-2" y="-65" type="line"/>
      <point x="413" y="-65" type="line"/>
      <point x="413" y="3" type="line"/>
    </contour>
  </outline>
</glyph>
<glyph name="bar" format="2">
  <advance width="540"/>
  <unicode hex="007C"/>
  <outline>
    <contour>
      <point x="201" y="925" type="line"/>
      <point x="201" y="-73" type="line"/>
      <point x="336" y="-73" type="line"/>
      <point x="336" y="925" type="line"/>
    </contour>
  </outline>
</glyph>
<glyph name="multiply" format="2">
  <advance width="585"/>
  <unicode hex="00D7"/>
  <outline>
    <contour>
      <point x="291" y="329" type="line"/>
      <point x="434" y="186" type="line"/>
      <point x="525" y="277" type="line"/>
      <point x="384" y="419" type="line"/>
      <point x="528" y="562" type="line"/>
      <point x="434" y="652" type="line"/>
      <point x="291" y="510" type="line"/>
      <point x="151" y="652" type="line"/>
      <point x="58" y="560" type="line"/>
      <point x="199" y="419" type="line"/>
      <point x="59" y="277" type="line"/>
      <point x="151" y="187" type="line"/>
    </contour>
  </outline>
</glyph>
<glyph name="divide" format="2">
  <advance width="585"/>
  <unicode hex="00F7"/>
  <outline>
    <contour>
      <point x="55" y="481" type="line"/>
      <point x="55" y="352" type="line"/>
      <point x="531" y="352" type="line"/>
      <point x="531" y="481" type="line"/>
    </contour>
    <contour>
      <point x="293" y="161" type="curve" smooth="yes"/>
      <point x="334" y="161"/>
      <point x="370" y="184"/>
      <point x="370" y="244" type="curve" smooth="yes"/>
      <point x="370" y="306"/>
      <point x="334" y="327"/>
      <point x="293" y="327" type="curve" smooth="yes"/>
      <point x="251" y="327"/>
      <point x="215" y="306"/>
      <point x="215" y="244" type="curve" smooth="yes"/>
      <point x="215" y="184"/>
      <point x="251" y="161"/>
    </contour>
    <contour>
      <point x="293" y="502" type="curve" smooth="yes"/>
      <point x="334" y="502"/>
      <point x="370" y="525"/>
      <point x="370" y="585" type="curve" smooth="yes"/>
      <point x="370" y="645"/>
      <point x="334" y="668"/>
      <point x="293" y="668" type="curve" smooth="yes"/>
      <point x="251" y="668"/>
      <point x="215" y="645"/>
      <point x="215" y="585" type="curve" smooth="yes"/>
      <point x="215" y="525"/>
      <point x="251" y="502"/>
    </contour>
  </outline>
</glyph>
<glyph name="i-oriya" format="2">
  <advance width="876"/>
  <unicode hex="0B07"/>
  <note>
iorya
</note>
  <guideline x="1051" y="351" angle="0"/>
  <anchor x="695" y="751" name="topright"/>
  <outline>
    <contour>
      <point x="610" y="250" type="curve"/>
      <point x="784" y="5" type="line"/>
      <point x="688" y="56" type="line"/>
      <point x="893" y="201" type="line"/>
      <point x="948" y="85" type="line"/>
      <point x="755" y="323" type="line"/>
      <point x="725" y="193" type="line"/>
      <point x="811" y="271"/>
      <point x="845" y="358"/>
      <point x="845" y="440" type="curve" smooth="yes"/>
      <point x="845" y="647"/>
      <point x="625" y="758"/>
      <point x="414" y="758" type="curve" smooth="yes"/>
      <point x="214" y="758"/>
      <point x="22" y="664"/>
      <point x="22" y="485" type="curve" smooth="yes"/>
      <point x="22" y="410"/>
      <point x="56" y="333"/>
      <point x="173" y="263" type="curve"/>
      <point x="233" y="375" type="line"/>
      <point x="201" y="404"/>
      <point x="186" y="434"/>
      <point x="186" y="466" type="curve" smooth="yes"/>
      <point x="186" y="549"/>
      <point x="291" y="599"/>
      <point x="404" y="599" type="curve" smooth="yes"/>
      <point x="532" y="599"/>
      <point x="671" y="534"/>
      <point x="671" y="393" type="curve" smooth="yes"/>
      <point x="671" y="346"/>
      <point x="655" y="294"/>
    </contour>
    <contour>
      <point x="235" y="85" type="curve" smooth="yes"/>
      <point x="324" y="85"/>
      <point x="373" y="160"/>
      <point x="373" y="266" type="curve" smooth="yes"/>
      <point x="373" y="373"/>
      <point x="323" y="444"/>
      <point x="236" y="444" type="curve" smooth="yes"/>
      <point x="150" y="444"/>
      <point x="90" y="374"/>
      <point x="90" y="263" type="curve" smooth="yes"/>
      <point x="90" y="151"/>
      <point x="152" y="85"/>
    </contour>
    <contour>
      <point x="243" y="213" type="curve" smooth="yes"/>
      <point x="220" y="213"/>
      <point x="210" y="232"/>
      <point x="210" y="265" type="curve" smooth="yes"/>
      <point x="210" y="298"/>
      <point x="220" y="316"/>
      <point x="243" y="316" type="curve" smooth="yes"/>
      <point x="266" y="316"/>
      <point x="276" y="300"/>
      <point x="276" y="265" type="curve" smooth="yes"/>
      <point x="276" y="231"/>
      <point x="266" y="213"/>
    </contour>
    <contour>
      <point x="447" y="85" type="curve" smooth="yes"/>
      <point x="530" y="85"/>
      <point x="590" y="153"/>
      <point x="590" y="266" type="curve" smooth="yes"/>
      <point x="590" y="378"/>
      <point x="531" y="444"/>
      <point x="448" y="444" type="curve" smooth="yes"/>
      <point x="361" y="444"/>
      <point x="303" y="373"/>
      <point x="303" y="266" type="curve" smooth="yes"/>
      <point x="303" y="160"/>
      <point x="360" y="85"/>
    </contour>
    <contour>
      <point x="437" y="213" type="curve" smooth="yes"/>
      <point x="414" y="213"/>
      <point x="404" y="231"/>
      <point x="404" y="265" type="curve" smooth="yes"/>
      <point x="404" y="300"/>
      <point x="414" y="316"/>
      <point x="437" y="316" type="curve" smooth="yes"/>
      <point x="459" y="316"/>
      <point x="470" y="298"/>
      <point x="470" y="265" type="curve" smooth="yes"/>
      <point x="470" y="232"/>
      <point x="460" y="213"/>
    </contour>
  </outline>
</glyph>
<glyph name="ai-oriya" format="2">
  <advance width="1010"/>
  <unicode hex="0B10"/>
  <note>
aiorya
</note>
  <guideline x="348" y="805" angle="32.7352"/>
  <guideline x="358" y="655" angle="32.7352"/>
  <outline>
    <contour>
      <point x="750" y="363" type="curve" smooth="yes"/>
      <point x="778" y="363"/>
      <point x="795" y="367"/>
      <point x="812" y="375" type="curve"/>
      <point x="812" y="526" type="line"/>
      <point x="795" y="518"/>
      <point x="778" y="513"/>
      <point x="751" y="513" type="curve" smooth="yes"/>
      <point x="724" y="513"/>
      <point x="706" y="518"/>
      <point x="685" y="526" type="curve"/>
      <point x="685" y="375" type="line"/>
      <point x="704" y="367"/>
      <point x="722" y="363"/>
    </contour>
    <contour>
      <point x="329" y="583" type="curve"/>
      <point x="414" y="517" type="line"/>
      <point x="414" y="583"/>
      <point x="465" y="611"/>
      <point x="550" y="611" type="curve"/>
      <point x="532" y="664" type="line"/>
      <point x="532" y="208" type="line"/>
      <point x="586" y="227" type="line"/>
      <point x="414" y="326"/>
      <point x="237" y="468"/>
      <point x="73" y="636" type="curve"/>
      <point x="142" y="641" type="line"/>
      <point x="-30" y="458" type="line"/>
      <point x="-53" y="508" type="line"/>
      <point x="113" y="351"/>
      <point x="299" y="208"/>
      <point x="502" y="93" type="curve"/>
      <point x="702" y="93" type="line"/>
      <point x="702" y="751" type="line"/>
      <point x="609" y="751" type="line" smooth="yes"/>
      <point x="394" y="751"/>
      <point x="289" y="627"/>
      <point x="289" y="530" type="curve" smooth="yes"/>
      <point x="289" y="467"/>
      <point x="329" y="418"/>
      <point x="394" y="418" type="curve" smooth="yes"/>
      <point x="452" y="418"/>
      <point x="496" y="458"/>
      <point x="496" y="510" type="curve" smooth="yes"/>
      <point x="496" y="561"/>
      <point x="452" y="601"/>
      <point x="393" y="601" type="curve" smooth="yes"/>
      <point x="368" y="601"/>
      <point x="346" y="594"/>
    </contour>
    <contour>
      <point x="908" y="739" type="line"/>
      <point x="987" y="773"/>
      <point x="1025" y="828"/>
      <point x="1025" y="885" type="curve" smooth="yes"/>
      <point x="1025" y="967"/>
      <point x="967" y="1034"/>
      <point x="857" y="1034" type="curve" smooth="yes"/>
      <point x="758" y="1034"/>
      <point x="633" y="977"/>
      <point x="572" y="977" type="curve" smooth="yes"/>
      <point x="540" y="977"/>
      <point x="510" y="1003"/>
      <point x="486" y="1069" type="curve"/>
      <point x="556" y="1054" type="line"/>
      <point x="346" y="924" type="line"/>
      <point x="357" y="965" type="line"/>
      <point x="390" y="842"/>
      <point x="476" y="817"/>
      <point x="542" y="817" type="curve" smooth="yes"/>
      <point x="650" y="817"/>
      <point x="751" y="874"/>
      <point x="809" y="874" type="curve" smooth="yes"/>
      <point x="835" y="874"/>
      <point x="851" y="862"/>
      <point x="851" y="846" type="curve" smooth="yes"/>
      <point x="851" y="829"/>
      <point x="831" y="802"/>
      <point x="794" y="789" type="curve"/>
      <point x="794" y="93" type="line"/>
      <point x="964" y="93" type="line"/>
      <point x="964" y="848" type="line"/>
    </contour>
  </outline>
</glyph>
<glyph name="jha-oriya" format="2">
  <advance width="742"/>
  <unicode hex="0B1D"/>
  <note>
jhaorya
</note>
  <guideline x="711" y="747" angle="90"/>
  <anchor x="291" y="93" name="bottom"/>
  <anchor x="622" y="93" name="bottom_ra"/>
  <anchor x="370" y="751" name="top"/>
  <anchor x="586" y="751" name="topright"/>
  <outline>
    <contour>
      <point x="173" y="263" type="curve"/>
      <point x="233" y="375" type="line"/>
      <point x="201" y="410"/>
      <point x="187" y="439"/>
      <point x="187" y="470" type="curve" smooth="yes"/>
      <point x="187" y="548"/>
      <point x="255" y="599"/>
      <point x="359" y="599" type="curve" smooth="yes"/>
      <point x="418" y="599"/>
      <point x="459" y="594"/>
      <point x="469" y="589" type="curve"/>
      <point x="418" y="759" type="line"/>
      <point x="410" y="759"/>
      <point x="419" y="759"/>
      <point x="406" y="759" type="curve" smooth="yes"/>
      <point x="149" y="759"/>
      <point x="22" y="647"/>
      <point x="22" y="499" type="curve" smooth="yes"/>
      <point x="22" y="394"/>
      <point x="76" y="324"/>
    </contour>
    <contour>
      <point x="655" y="44" type="line"/>
      <point x="741" y="266" type="line"/>
      <point x="827" y="213" type="line"/>
      <point x="497" y="326" type="line"/>
      <point x="469" y="167" type="line"/>
      <point x="720" y="63" type="line"/>
    </contour>
    <contour>
      <point x="326" y="85" type="curve" smooth="yes"/>
      <point x="451" y="85"/>
      <point x="538" y="160"/>
      <point x="538" y="273" type="curve" smooth="yes"/>
      <point x="538" y="386"/>
      <point x="451" y="461"/>
      <point x="326" y="461" type="curve" smooth="yes"/>
      <point x="201" y="461"/>
      <point x="118" y="386"/>
      <point x="118" y="273" type="curve" smooth="yes"/>
      <point x="118" y="160"/>
      <point x="201" y="85"/>
    </contour>
    <contour>
      <point x="328" y="223" type="curve" smooth="yes"/>
      <point x="293" y="223"/>
      <point x="272" y="243"/>
      <point x="272" y="273" type="curve" smooth="yes"/>
      <point x="272" y="303"/>
      <point x="293" y="323"/>
      <point x="328" y="323" type="curve" smooth="yes"/>
      <point x="363" y="323"/>
      <point x="384" y="303"/>
      <point x="384" y="273" type="curve" smooth="yes"/>
      <point x="384" y="243"/>
      <point x="363" y="223"/>
    </contour>
    <contour>
      <point x="534" y="580" type="curve" smooth="yes"/>
      <point x="496" y="580"/>
      <point x="482" y="601"/>
      <point x="482" y="628" type="curve" smooth="yes"/>
      <point x="482" y="644"/>
      <point x="488" y="663"/>
      <point x="497" y="681" type="curve"/>
      <point x="418" y="759" type="line"/>
      <point x="363" y="719"/>
      <point x="332" y="657"/>
      <point x="332" y="598" type="curve" smooth="yes"/>
      <point x="332" y="517"/>
      <point x="391" y="442"/>
      <point x="533" y="442" type="curve" smooth="yes"/>
      <point x="675" y="442"/>
      <point x="736" y="517"/>
      <point x="736" y="598" type="curve" smooth="yes"/>
      <point x="736" y="657"/>
      <point x="705" y="719"/>
      <point x="650" y="759" type="curve"/>
      <point x="571" y="681" type="line"/>
      <point x="580" y="663"/>
      <point x="586" y="644"/>
      <point x="586" y="628" type="curve" smooth="yes"/>
      <point x="586" y="601"/>
      <point x="572" y="580"/>
    </contour>
  </outline>
</glyph>
<glyph name="da-oriya" format="2">
  <advance width="815"/>
  <unicode hex="0B26"/>
  <note>
daorya
</note>
  <anchor x="407" y="93" name="bottom"/>
  <anchor x="767" y="93" name="bottom_ra"/>
  <anchor x="398" y="751" name="top"/>
  <anchor x="643" y="751" name="topright"/>
  <outline>
    <contour>
      <point x="332" y="137" type="curve" smooth="yes"/>
      <point x="464" y="137"/>
      <point x="566" y="204"/>
      <point x="566" y="335" type="curve"/>
      <point x="454" y="335" type="line"/>
      <point x="454" y="287"/>
      <point x="410" y="265"/>
      <point x="369" y="265" type="curve" smooth="yes"/>
      <point x="321" y="265"/>
      <point x="299" y="290"/>
      <point x="299" y="320" type="curve" smooth="yes"/>
      <point x="299" y="348"/>
      <point x="317" y="379"/>
      <point x="353" y="399" type="curve"/>
      <point x="284" y="487" type="line"/>
      <point x="176" y="450"/>
      <point x="124" y="371"/>
      <point x="124" y="298" type="curve" smooth="yes"/>
      <point x="124" y="214"/>
      <point x="189" y="137"/>
    </contour>
    <contour>
      <point x="407" y="93" type="line"/>
      <point x="577" y="93" type="line"/>
      <point x="577" y="413" type="line"/>
      <point x="407" y="413" type="line"/>
      <point x="407" y="224" type="line"/>
      <point x="425" y="204" type="line"/>
    </contour>
    <contour>
      <point x="173" y="263" type="curve"/>
      <point x="233" y="375" type="line"/>
      <point x="204" y="395"/>
      <point x="187" y="437"/>
      <point x="187" y="472" type="curve" smooth="yes"/>
      <point x="187" y="557"/>
      <point x="287" y="599"/>
      <point x="399" y="599" type="curve" smooth="yes"/>
      <point x="506" y="599"/>
      <point x="618" y="559"/>
      <point x="618" y="475" type="curve" smooth="yes"/>
      <point x="618" y="441"/>
      <point x="602" y="407"/>
      <point x="578" y="381" type="curve"/>
      <point x="572" y="419" type="line"/>
      <point x="802" y="313" type="line"/>
      <point x="735" y="314" type="line"/>
      <point x="776" y="365"/>
      <point x="793" y="417"/>
      <point x="793" y="473" type="curve" smooth="yes"/>
      <point x="793" y="663"/>
      <point x="594" y="759"/>
      <point x="398" y="759" type="curve" smooth="yes"/>
      <point x="205" y="759"/>
      <point x="22" y="666"/>
      <point x="22" y="492" type="curve" smooth="yes"/>
      <point x="22" y="406"/>
      <point x="67" y="326"/>
    </contour>
  </outline>
</glyph>
<glyph name="ra-oriya" format="2">
  <advance width="824"/>
  <unicode hex="0B30"/>
  <note>
raorya
</note>
  <anchor x="272" y="93" name="bottom"/>
  <anchor x="645" y="93" name="bottom_ra"/>
  <anchor x="395" y="751" name="top"/>
  <anchor x="654" y="751" name="topright"/>
  <outline>
    <contour>
      <point x="749" y="-21" type="line"/>
      <point x="632" y="53" type="line"/>
      <point x="857" y="212" type="line"/>
      <point x="915" y="62" type="line"/>
      <point x="703" y="323" type="line"/>
      <point x="675" y="193" type="line"/>
      <point x="753" y="268"/>
      <point x="804" y="361"/>
      <point x="804" y="458" type="curve" smooth="yes"/>
      <point x="804" y="652"/>
      <point x="603" y="759"/>
      <point x="395" y="759" type="curve" smooth="yes"/>
      <point x="203" y="759"/>
      <point x="22" y="667"/>
      <point x="22" y="492" type="curve" smooth="yes"/>
      <point x="22" y="410"/>
      <point x="62" y="328"/>
      <point x="173" y="263" type="curve"/>
      <point x="233" y="375" type="line"/>
      <point x="202" y="402"/>
      <point x="187" y="436"/>
      <point x="187" y="469" type="curve" smooth="yes"/>
      <point x="187" y="544"/>
      <point x="267" y="599"/>
      <point x="391" y="599" type="curve" smooth="yes"/>
      <point x="535" y="599"/>
      <point x="629" y="525"/>
      <point x="629" y="418" type="curve" smooth="yes"/>
      <point x="629" y="366"/>
      <point x="607" y="308"/>
      <point x="558" y="250" type="curve"/>
    </contour>
    <contour>
      <point x="326" y="85" type="curve" smooth="yes"/>
      <point x="436" y="85"/>
      <point x="538" y="148"/>
      <point x="538" y="273" type="curve" smooth="yes"/>
      <point x="538" y="399"/>
      <point x="436" y="461"/>
      <point x="326" y="461" type="curve" smooth="yes"/>
      <point x="215" y="461"/>
      <point x="118" y="399"/>
      <point x="118" y="273" type="curve" smooth="yes"/>
      <point x="118" y="148"/>
      <point x="215" y="85"/>
    </contour>
    <contour>
      <point x="329" y="223" type="curve" smooth="yes"/>
      <point x="301" y="223"/>
      <point x="272" y="240"/>
      <point x="272" y="273" type="curve" smooth="yes"/>
      <point x="272" y="306"/>
      <point x="301" y="323"/>
      <point x="329" y="323" type="curve" smooth="yes"/>
      <point x="358" y="323"/>
      <point x="384" y="306"/>
      <point x="384" y="273" type="curve" smooth="yes"/>
      <point x="384" y="240"/>
      <point x="358" y="223"/>
    </contour>
  </outline>
</glyph>
<glyph name="sha-oriya" format="2">
  <advance width="798"/>
  <unicode hex="0B36"/>
  <note>
shaorya
</note>
  <anchor x="582" y="93" name="bottom"/>
  <anchor x="752" y="93" name="bottom_ra"/>
  <anchor x="379" y="751" name="top"/>
  <anchor x="667" y="751" name="topright"/>
  <outline>
    <contour>
      <point x="606" y="378" type="curve"/>
      <point x="734" y="386" type="line"/>
      <point x="734" y="634"/>
      <point x="528" y="759"/>
      <point x="366" y="759" type="curve" smooth="yes"/>
      <point x="260" y="759"/>
      <point x="173" y="706"/>
      <point x="173" y="601" type="curve" smooth="yes"/>
      <point x="173" y="562"/>
      <point x="183" y="526"/>
      <point x="204" y="486" type="curve"/>
      <point x="338" y="530" type="line"/>
      <point x="331" y="546"/>
      <point x="327" y="561"/>
      <point x="327" y="574" type="curve" smooth="yes"/>
      <point x="327" y="613"/>
      <point x="361" y="621"/>
      <point x="389" y="621" type="curve" smooth="yes"/>
      <point x="481" y="621"/>
      <point x="606" y="532"/>
    </contour>
    <contour>
      <point x="328" y="85" type="curve" smooth="yes"/>
      <point x="454" y="85"/>
      <point x="538" y="153"/>
      <point x="538" y="256" type="curve" smooth="yes"/>
      <point x="538" y="359"/>
      <point x="454" y="427"/>
      <point x="328" y="427" type="curve" smooth="yes"/>
      <point x="202" y="427"/>
      <point x="118" y="359"/>
      <point x="118" y="256" type="curve" smooth="yes"/>
      <point x="118" y="153"/>
      <point x="202" y="85"/>
    </contour>
    <contour>
      <point x="329" y="213" type="curve" smooth="yes"/>
      <point x="291" y="213"/>
      <point x="272" y="230"/>
      <point x="272" y="256" type="curve" smooth="yes"/>
      <point x="272" y="283"/>
      <point x="291" y="299"/>
      <point x="329" y="299" type="curve" smooth="yes"/>
      <point x="366" y="299"/>
      <point x="384" y="283"/>
      <point x="384" y="256" type="curve" smooth="yes"/>
      <point x="384" y="230"/>
      <point x="366" y="213"/>
    </contour>
    <contour>
      <point x="163" y="263" type="curve"/>
      <point x="213" y="375" type="line"/>
      <point x="195" y="382"/>
      <point x="186" y="401"/>
      <point x="186" y="416" type="curve" smooth="yes"/>
      <point x="186" y="445"/>
      <point x="217" y="467"/>
      <point x="272" y="467" type="curve" smooth="yes"/>
      <point x="330" y="467"/>
      <point x="416" y="443"/>
      <point x="500" y="379" type="curve"/>
      <point x="361" y="400" type="line"/>
      <point x="443" y="600" type="line"/>
      <point x="500" y="514" type="line"/>
      <point x="425" y="568"/>
      <point x="323" y="595"/>
      <point x="239" y="595" type="curve" smooth="yes"/>
      <point x="120" y="595"/>
      <point x="22" y="540"/>
      <point x="22" y="436" type="curve" smooth="yes"/>
      <point x="22" y="363"/>
      <point x="70" y="298"/>
    </contour>
    <contour>
      <point x="582" y="93" type="line"/>
      <point x="752" y="93" type="line"/>
      <point x="752" y="751" type="line"/>
      <point x="582" y="751" type="line"/>
      <point x="592" y="640" type="line"/>
      <point x="582" y="558" type="line"/>
    </contour>
  </outline>
</glyph>
<glyph name="ssa-oriya" format="2">
  <advance width="798"/>
  <unicode hex="0B37"/>
  <note>
ssaorya
</note>
  <anchor x="582" y="93" name="bottom"/>
  <anchor x="752" y="93" name="bottom_ra"/>
  <anchor x="362" y="751" name="top"/>
  <anchor x="667" y="751" name="topright"/>
  <outline>
    <contour>
      <point x="173" y="263" type="curve"/>
      <point x="239" y="375" type="line"/>
      <point x="209" y="407"/>
      <point x="190" y="441"/>
      <point x="190" y="479" type="curve" smooth="yes"/>
      <point x="190" y="555"/>
      <point x="262" y="605"/>
      <point x="368" y="605" type="curve" smooth="yes"/>
      <point x="514" y="605"/>
      <point x="607" y="511"/>
      <point x="606" y="378" type="curve"/>
      <point x="734" y="386" type="line"/>
      <point x="734" y="640"/>
      <point x="538" y="759"/>
      <point x="346" y="759" type="curve" smooth="yes"/>
      <point x="177" y="759"/>
      <point x="22" y="666"/>
      <point x="22" y="493" type="curve" smooth="yes"/>
      <point x="22" y="394"/>
      <point x="73" y="317"/>
    </contour>
    <contour>
      <point x="370" y="85" type="curve" smooth="yes"/>
      <point x="490" y="85"/>
      <point x="627" y="155"/>
      <point x="678" y="300" type="curve"/>
      <point x="606" y="402" type="line"/>
      <point x="566" y="296"/>
      <point x="461" y="239"/>
      <point x="394" y="239" type="curve" smooth="yes"/>
      <point x="351" y="239"/>
      <point x="320" y="259"/>
      <point x="320" y="292" type="curve" smooth="yes"/>
      <point x="320" y="341"/>
      <point x="381" y="377"/>
      <point x="451" y="396" type="curve"/>
      <point x="432" y="348" type="line"/>
      <point x="347" y="543" type="line"/>
      <point x="388" y="519" type="line"/>
      <point x="246" y="484"/>
      <point x="153" y="378"/>
      <point x="153" y="270" type="curve" smooth="yes"/>
      <point x="153" y="162"/>
      <point x="245" y="85"/>
    </contour>
    <contour>
      <point x="582" y="93" type="line"/>
      <point x="752" y="93" type="line"/>
      <point x="752" y="751" type="line"/>
      <point x="582" y="751" type="line"/>
      <point x="592" y="640" type="line"/>
      <point x="582" y="558" type="line"/>
      <point x="582" y="254" type="line"/>
      <point x="595" y="177" type="line"/>
    </contour>
    <contour>
      <point x="551" y="159" type="line"/>
      <point x="665" y="204" type="line"/>
      <point x="287" y="714" type="line"/>
      <point x="180" y="656" type="line"/>
    </contour>
  </outline>
</glyph>
<glyph name="ha-oriya" format="2">
  <advance width="763"/>
  <unicode hex="0B39"/>
  <note>
haorya
</note>
  <anchor x="314" y="93" name="bottom"/>
  <anchor x="614" y="93" name="bottom_ra"/>
  <anchor x="370" y="751" name="top"/>
  <anchor x="591" y="751" name="topright"/>
  <outline>
    <contour>
      <point x="665" y="281" type="line"/>
      <point x="713" y="339"/>
      <point x="741" y="405"/>
      <point x="741" y="479" type="curve" smooth="yes"/>
      <point x="741" y="669"/>
      <point x="553" y="759"/>
      <point x="370" y="759" type="curve" smooth="yes"/>
      <point x="193" y="759"/>
      <point x="22" y="674"/>
      <point x="22" y="519" type="curve" smooth="yes"/>
      <point x="22" y="436"/>
      <point x="72" y="351"/>
      <point x="182" y="313" type="curve"/>
      <point x="222" y="417" type="line"/>
      <point x="190" y="445"/>
      <point x="176" y="474"/>
      <point x="176" y="500" type="curve" smooth="yes"/>
      <point x="176" y="567"/>
      <point x="267" y="599"/>
      <point x="360" y="599" type="curve" smooth="yes"/>
      <point x="461" y="599"/>
      <point x="567" y="561"/>
      <point x="567" y="475" type="curve" smooth="yes"/>
      <point x="567" y="436"/>
      <point x="546" y="383"/>
      <point x="500" y="336" type="curve"/>
      <point x="469" y="431" type="line"/>
      <point x="770" y="300" type="line"/>
    </contour>
    <contour>
      <point x="577" y="3" type="line"/>
      <point x="614" y="127" type="line"/>
      <point x="255" y="224" type="line"/>
      <point x="174" y="126" type="line"/>
      <point x="364" y="266" type="line"/>
      <point x="272" y="336" type="line"/>
      <point x="95" y="213" type="line"/>
      <point x="109" y="133" type="line"/>
    </contour>
    <contour>
      <point x="311" y="242" type="curve" smooth="yes"/>
      <point x="402" y="242"/>
      <point x="494" y="298"/>
      <point x="494" y="397" type="curve"/>
      <point x="399" y="397" type="line"/>
      <point x="390" y="369"/>
      <point x="364" y="354"/>
      <point x="339" y="354" type="curve" smooth="yes"/>
      <point x="308" y="354"/>
      <point x="293" y="373"/>
      <point x="293" y="397" type="curve" smooth="yes"/>
      <point x="293" y="421"/>
      <point x="313" y="445"/>
      <point x="344" y="460" type="curve"/>
      <point x="286" y="551" type="line"/>
      <point x="196" y="518"/>
      <point x="151" y="452"/>
      <point x="151" y="384" type="curve" smooth="yes"/>
      <point x="151" y="312"/>
      <point x="209" y="242"/>
    </contour>
    <contour>
      <point x="375" y="209" type="line"/>
      <point x="525" y="209" type="line"/>
      <point x="525" y="499" type="line"/>
      <point x="375" y="499" type="line"/>
      <point x="375" y="321" type="line"/>
      <point x="390" y="304" type="line"/>
    </contour>
  </outline>
</glyph>
<glyph name="iMatra-oriya" format="2">
  <unicode hex="0B3F"/>
  <note>
ivowelsignorya
</note>
  <anchor x="300" y="751" name="_top"/>
  <outline>
    <contour>
      <point x="59" y="773" type="line"/>
      <point x="134" y="822"/>
      <point x="217" y="847"/>
      <point x="300" y="847" type="curve" smooth="yes"/>
      <point x="383" y="847"/>
      <point x="466" y="822"/>
      <point x="539" y="773" type="curve"/>
      <point x="613" y="889" type="line"/>
      <point x="516" y="959"/>
      <point x="409" y="994"/>
      <point x="302" y="994" type="curve" smooth="yes"/>
      <point x="194" y="994"/>
      <point x="86" y="959"/>
      <point x="-15" y="889" type="curve"/>
    </contour>
  </outline>
</glyph>
<glyph name="eMatra-oriya" format="2">
  <advance width="611"/>
  <unicode hex="0B47"/>
  <note>
evowelsignorya
</note>
  <outline>
    <contour>
      <point x="161" y="485" type="curve"/>
      <point x="163" y="339" type="line"/>
      <point x="205" y="347"/>
      <point x="247" y="351"/>
      <point x="278" y="351" type="curve" smooth="yes"/>
      <point x="348" y="351"/>
      <point x="389" y="330"/>
      <point x="389" y="294" type="curve" smooth="yes"/>
      <point x="389" y="262"/>
      <point x="358" y="245"/>
      <point x="319" y="245" type="curve" smooth="yes"/>
      <point x="243" y="245"/>
      <point x="205" y="300"/>
      <point x="205" y="402" type="curve" smooth="yes"/>
      <point x="205" y="539"/>
      <point x="295" y="599"/>
      <point x="395" y="599" type="curve" smooth="yes"/>
      <point x="451" y="599"/>
      <point x="509" y="580"/>
      <point x="558" y="547" type="curve"/>
      <point x="518" y="550" type="line"/>
      <point x="591" y="713" type="line"/>
      <point x="532" y="743"/>
      <point x="463" y="759"/>
      <point x="394" y="759" type="curve" smooth="yes"/>
      <point x="213" y="759"/>
      <point x="30" y="665"/>
      <point x="30" y="404" type="curve" smooth="yes"/>
      <point x="30" y="203"/>
      <point x="141" y="85"/>
      <point x="329" y="85" type="curve" smooth="yes"/>
      <point x="485" y="85"/>
      <point x="564" y="180"/>
      <point x="564" y="294" type="curve" smooth="yes"/>
      <point x="564" y="426"/>
      <point x="457" y="501"/>
      <point x="297" y="501" type="curve" smooth="yes"/>
      <point x="256" y="501"/>
      <point x="209" y="496"/>
    </contour>
  </outline>
</glyph>
<glyph name="aiLength-oriya" format="2">
  <advance width="700"/>
  <unicode hex="0B56"/>
  <note>
ailengthmarkorya
</note>
  <guideline x="1461" y="527" angle="90"/>
  <guideline x="298" y="941" angle="0"/>
  <anchor x="543" y="751" name="_topright"/>
  <outline>
    <contour>
      <point x="426" y="825" type="line"/>
      <point x="703" y="768" type="line"/>
      <point x="561" y="687" type="line"/>
      <point x="639" y="742"/>
      <point x="673" y="811"/>
      <point x="673" y="876" type="curve" smooth="yes"/>
      <point x="673" y="960"/>
      <point x="615" y="1034"/>
      <point x="504" y="1034" type="curve" smooth="yes"/>
      <point x="407" y="1034"/>
      <point x="278" y="977"/>
      <point x="224" y="977" type="curve" smooth="yes"/>
      <point x="187" y="977"/>
      <point x="158" y="1003"/>
      <point x="134" y="1069" type="curve"/>
      <point x="204" y="1054" type="line"/>
      <point x="-6" y="924" type="line"/>
      <point x="5" y="965" type="line"/>
      <point x="38" y="842"/>
      <point x="124" y="817"/>
      <point x="193" y="817" type="curve" smooth="yes"/>
      <point x="296" y="817"/>
      <point x="401" y="874"/>
      <point x="455" y="874" type="curve" smooth="yes"/>
      <point x="486" y="874"/>
      <point x="499" y="856"/>
      <point x="499" y="835" type="curve" smooth="yes"/>
      <point x="499" y="802"/>
      <point x="468" y="768"/>
      <point x="419" y="741" type="curve"/>
    </contour>
  </outline>
</glyph>
<glyph name="auLength-oriya" format="2">
  <advance width="262"/>
  <unicode hex="0B57"/>
  <note>
aulengthmarkorya
</note>
  <outline>
    <contour>
      <point x="46" y="789" type="line"/>
      <point x="46" y="93" type="line"/>
      <point x="216" y="93" type="line"/>
      <point x="216" y="789" type="line"/>
    </contour>
    <contour>
      <point x="46" y="789" type="curve"/>
      <point x="151" y="736" type="line"/>
      <point x="236" y="769"/>
      <point x="277" y="827"/>
      <point x="277" y="885" type="curve" smooth="yes"/>
      <point x="277" y="967"/>
      <point x="219" y="1034"/>
      <point x="109" y="1034" type="curve" smooth="yes"/>
      <point x="10" y="1034"/>
      <point x="-115" y="977"/>
      <point x="-176" y="977" type="curve" smooth="yes"/>
      <point x="-208" y="977"/>
      <point x="-238" y="1003"/>
      <point x="-262" y="1069" type="curve"/>
      <point x="-192" y="1054" type="line"/>
      <point x="-402" y="924" type="line"/>
      <point x="-391" y="965" type="line"/>
      <point x="-358" y="842"/>
      <point x="-272" y="817"/>
      <point x="-206" y="817" type="curve" smooth="yes"/>
      <point x="-98" y="817"/>
      <point x="3" y="874"/>
      <point x="61" y="874" type="curve" smooth="yes"/>
      <point x="87" y="874"/>
      <point x="103" y="862"/>
      <point x="103" y="846" type="curve" smooth="yes"/>
      <point x="103" y="829"/>
      <point x="83" y="802"/>
    </contour>
  </outline>
</glyph>
<glyph name="rrVocalic-oriya" format="2">
  <advance width="891"/>
  <unicode hex="0B60"/>
  <note>
rrvocalicorya
</note>
  <outline>
    <contour>
      <point x="173" y="263" type="curve"/>
      <point x="232" y="375" type="line"/>
      <point x="201" y="402"/>
      <point x="186" y="436"/>
      <point x="186" y="468" type="curve" smooth="yes"/>
      <point x="186" y="544"/>
      <point x="270" y="599"/>
      <point x="398" y="599" type="curve" smooth="yes"/>
      <point x="523" y="599"/>
      <point x="599" y="551"/>
      <point x="599" y="464" type="curve" smooth="yes"/>
      <point x="599" y="439"/>
      <point x="592" y="413"/>
      <point x="577" y="380" type="curve"/>
      <point x="732" y="414" type="line"/>
      <point x="760" y="445"/>
      <point x="773" y="478"/>
      <point x="773" y="512" type="curve" smooth="yes"/>
      <point x="773" y="636"/>
      <point x="642" y="759"/>
      <point x="411" y="759" type="curve" smooth="yes"/>
      <point x="210" y="759"/>
      <point x="22" y="667"/>
      <point x="22" y="491" type="curve" smooth="yes"/>
      <point x="22" y="410"/>
      <point x="62" y="328"/>
    </contour>
    <contour>
      <point x="321" y="85" type="curve" smooth="yes"/>
      <point x="443" y="85"/>
      <point x="522" y="160"/>
      <point x="522" y="273" type="curve" smooth="yes"/>
      <point x="522" y="386"/>
      <point x="443" y="461"/>
      <point x="321" y="461" type="curve" smooth="yes"/>
      <point x="195" y="461"/>
      <point x="114" y="386"/>
      <point x="114" y="273" type="curve" smooth="yes"/>
      <point x="114" y="160"/>
      <point x="195" y="85"/>
    </contour>
    <contour>
      <point x="319" y="223" type="curve" smooth="yes"/>
      <point x="290" y="223"/>
      <point x="274" y="243"/>
      <point x="274" y="273" type="curve" smooth="yes"/>
      <point x="274" y="303"/>
      <point x="290" y="323"/>
      <point x="319" y="323" type="curve" smooth="yes"/>
      <point x="347" y="323"/>
      <point x="362" y="303"/>
      <point x="362" y="273" type="curve" smooth="yes"/>
      <point x="362" y="243"/>
      <point x="347" y="223"/>
    </contour>
    <contour>
      <point x="571" y="196" type="line"/>
      <point x="695" y="245" type="line"/>
      <point x="799" y="245"/>
      <point x="869" y="290"/>
      <point x="869" y="358" type="curve" smooth="yes"/>
      <point x="869" y="424"/>
      <point x="800" y="468"/>
      <point x="696" y="468" type="curve"/>
      <point x="577" y="380" type="line"/>
      <point x="599" y="379" type="line" smooth="yes"/>
      <point x="661" y="375"/>
      <point x="691" y="356"/>
      <point x="691" y="337" type="curve" smooth="yes"/>
      <point x="691" y="316"/>
      <point x="654" y="295"/>
      <point x="584" y="295" type="curve"/>
    </contour>
    <contour>
      <point x="697" y="-199" type="line"/>
      <point x="628" y="-162" type="line"/>
      <point x="850" y="5" type="line"/>
      <point x="864" y="-122" type="line"/>
      <point x="671" y="103" type="line"/>
      <point x="651" y="34" type="line"/>
      <point x="789" y="34"/>
      <point x="851" y="103"/>
      <point x="851" y="169" type="curve" smooth="yes"/>
      <point x="851" y="232"/>
      <point x="793" y="284"/>
      <point x="678" y="284" type="curve"/>
      <point x="571" y="196" type="line"/>
      <point x="648" y="196"/>
      <point x="673" y="174"/>
      <point x="673" y="155" type="curve" smooth="yes"/>
      <point x="673" y="130"/>
      <point x="635" y="114"/>
      <point x="578" y="112" type="curve"/>
      <point x="526" y="45" type="line"/>
    </contour>
  </outline>
</glyph>
<glyph name="hyphen" format="2">
  <advance width="387"/>
  <unicode hex="2010"/>
  <outline>
    <contour>
      <point x="55" y="466" type="line"/>
      <point x="55" y="314" type="line"/>
      <point x="331" y="314" type="line"/>
      <point x="331" y="466" type="line"/>
    </contour>
  </outline>
</glyph>
<glyph name="quoteleft" format="2">
  <advance width="354"/>
  <unicode hex="2018"/>
  <outline>
    <contour>
      <point x="73" y="548" type="curve"/>
      <point x="80" y="537" type="line"/>
      <point x="247" y="537" type="line"/>
      <point x="256" y="617"/>
      <point x="276" y="731"/>
      <point x="295" y="822" type="curve"/>
      <point x="159" y="822" type="line"/>
      <point x="126" y="748"/>
      <point x="91" y="620"/>
    </contour>
  </outline>
</glyph>
<glyph name="quoteright" format="2">
  <advance width="354"/>
  <unicode hex="2019"/>
  <outline>
    <contour>
      <point x="305" y="811" type="curve"/>
      <point x="298" y="822" type="line"/>
      <point x="131" y="822" type="line"/>
      <point x="122" y="742"/>
      <point x="102" y="628"/>
      <point x="83" y="537" type="curve"/>
      <point x="219" y="537" type="line"/>
      <point x="252" y="611"/>
      <point x="287" y="739"/>
    </contour>
  </outline>
</glyph>
<glyph name="quotedblleft" format="2">
  <advance width="603"/>
  <unicode hex="201C"/>
  <outline>
    <contour>
      <point x="80" y="537" type="line"/>
      <point x="247" y="537" type="line"/>
      <point x="256" y="617"/>
      <point x="276" y="731"/>
      <point x="295" y="822" type="curve"/>
      <point x="159" y="822" type="line"/>
      <point x="126" y="748"/>
      <point x="91" y="620"/>
      <point x="73" y="548" type="curve"/>
    </contour>
    <contour>
      <point x="329" y="537" type="line"/>
      <point x="496" y="537" type="line"/>
      <point x="505" y="617"/>
      <point x="525" y="731"/>
      <point x="544" y="822" type="curve"/>
      <point x="408" y="822" type="line"/>
      <point x="375" y="748"/>
      <point x="340" y="620"/>
      <point x="322" y="548" type="curve"/>
    </contour>
  </outline>
</glyph>
<glyph name="quotedblright" format="2">
  <advance width="603"/>
  <unicode hex="201D"/>
  <outline>
    <contour>
      <point x="547" y="822" type="line"/>
      <point x="380" y="822" type="line"/>
      <point x="371" y="742"/>
      <point x="351" y="628"/>
      <point x="332" y="537" type="curve"/>
      <point x="468" y="537" type="line"/>
      <point x="501" y="611"/>
      <point x="536" y="739"/>
      <point x="554" y="811" type="curve"/>
    </contour>
    <contour>
      <point x="298" y="822" type="line"/>
      <point x="131" y="822" type="line"/>
      <point x="122" y="742"/>
      <point x="102" y="628"/>
      <point x="83" y="537" type="curve"/>
      <point x="219" y="537" type="line"/>
      <point x="252" y="611"/>
      <point x="287" y="739"/>
      <point x="305" y="811" type="curve"/>
    </contour>
  </outline>
</glyph>
<glyph name="ellipsis" format="2">
  <advance width="880"/>
  <unicode hex="2026"/>
  <outline>
    <contour>
      <point x="442" y="81" type="curve" smooth="yes"/>
      <point x="496" y="81"/>
      <point x="542" y="108"/>
      <point x="542" y="174" type="curve" smooth="yes"/>
      <point x="542" y="243"/>
      <point x="496" y="268"/>
      <point x="442" y="268" type="curve" smooth="yes"/>
      <point x="385" y="268"/>
      <point x="338" y="243"/>
      <point x="338" y="174" type="curve" smooth="yes"/>
      <point x="338" y="108"/>
      <point x="385" y="81"/>
    </contour>
    <contour>
      <point x="153" y="81" type="curve" smooth="yes"/>
      <point x="207" y="81"/>
      <point x="253" y="108"/>
      <point x="253" y="174" type="curve" smooth="yes"/>
      <point x="253" y="243"/>
      <point x="207" y="268"/>
      <point x="153" y="268" type="curve" smooth="yes"/>
      <point x="96" y="268"/>
      <point x="49" y="243"/>
      <point x="49" y="174" type="curve" smooth="yes"/>
      <point x="49" y="108"/>
      <point x="96" y="81"/>
    </contour>
    <contour>
      <point x="731" y="81" type="curve" smooth="yes"/>
      <point x="785" y="81"/>
      <point x="831" y="108"/>
      <point x="831" y="174" type="curve" smooth="yes"/>
      <point x="831" y="243"/>
      <point x="785" y="268"/>
      <point x="731" y="268" type="curve" smooth="yes"/>
      <point x="674" y="268"/>
      <point x="627" y="243"/>
      <point x="627" y="174" type="curve" smooth="yes"/>
      <point x="627" y="108"/>
      <point x="674" y="81"/>
    </contour>
  </outline>
</glyph>
<glyph name="_part_ta-oriya.below" format="2">
  <advance width="589"/>
  <note>
tasubscriptorya
</note>
  <outline>
    <contour>
      <point x="13" y="-156" type="line"/>
      <point x="1" y="-107" type="line"/>
      <point x="52" y="-141"/>
      <point x="174" y="-170"/>
      <point x="270" y="-170" type="curve" smooth="yes"/>
      <point x="434" y="-170"/>
      <point x="564" y="-87"/>
      <point x="564" y="62" type="curve" smooth="yes"/>
      <point x="564" y="164"/>
      <point x="503" y="209"/>
      <point x="429" y="209" type="curve" smooth="yes"/>
      <point x="366" y="209"/>
      <point x="293" y="177"/>
      <point x="293" y="92" type="curve" smooth="yes"/>
      <point x="293" y="0"/>
      <point x="377" y="-25"/>
      <point x="418" y="-25" type="curve" smooth="yes"/>
      <point x="478" y="-25"/>
      <point x="535" y="32"/>
      <point x="535" y="91" type="curve"/>
      <point x="440" y="41" type="line"/>
      <point x="440" y="-23"/>
      <point x="368" y="-50"/>
      <point x="277" y="-50" type="curve" smooth="yes"/>
      <point x="149" y="-50"/>
      <point x="-16" y="4"/>
      <point x="-64" y="100" type="curve"/>
      <point x="97" y="45" type="line"/>
    </contour>
    <contour>
      <point x="457" y="89" type="curve" smooth="yes"/>
      <point x="457" y="75"/>
      <point x="450" y="59"/>
      <point x="429" y="59" type="curve" smooth="yes"/>
      <point x="408" y="59"/>
      <point x="401" y="75"/>
      <point x="401" y="89" type="curve" smooth="yes"/>
      <point x="401" y="103"/>
      <point x="408" y="119"/>
      <point x="429" y="119" type="curve" smooth="yes"/>
      <point x="450" y="119"/>
      <point x="457" y="103"/>
    </contour>
  </outline>
</glyph>
<glyph name="aiLength-oriya.stem" format="2">
  <note>
ailengthmarkorya
</note>
  <guideline x="298" y="941" angle="0"/>
  <anchor x="512" y="751" name="_topright"/>
  <outline>
    <contour>
      <point x="427" y="751" type="curve"/>
      <point x="591" y="708" type="line"/>
      <point x="541" y="703" type="line"/>
      <point x="633" y="751"/>
      <point x="674" y="825"/>
      <point x="674" y="891" type="curve" smooth="yes"/>
      <point x="674" y="968"/>
      <point x="615" y="1034"/>
      <point x="507" y="1034" type="curve" smooth="yes"/>
      <point x="407" y="1034"/>
      <point x="279" y="977"/>
      <point x="225" y="977" type="curve" smooth="yes"/>
      <point x="188" y="977"/>
      <point x="159" y="1003"/>
      <point x="135" y="1069" type="curve"/>
      <point x="205" y="1054" type="line"/>
      <point x="-5" y="924" type="line"/>
      <point x="6" y="965" type="line"/>
      <point x="39" y="842"/>
      <point x="125" y="817"/>
      <point x="194" y="817" type="curve" smooth="yes"/>
      <point x="297" y="817"/>
      <point x="400" y="874"/>
      <point x="458" y="874" type="curve" smooth="yes"/>
      <point x="486" y="874"/>
      <point x="500" y="861"/>
      <point x="500" y="842" type="curve" smooth="yes"/>
      <point x="500" y="816"/>
      <point x="476" y="780"/>
    </contour>
  </outline>
</glyph>
<glyph name="aiLength-oriya.umbrella" format="2">
  <advance width="700"/>
  <note>
ailengthmarkorya
</note>
  <guideline x="1461" y="527" angle="90"/>
  <guideline x="298" y="941" angle="0"/>
  <anchor x="543" y="751" name="_topright"/>
  <outline>
    <contour>
      <point x="327" y="753" type="line"/>
      <point x="590" y="628" type="line"/>
      <point x="456" y="631" type="line"/>
      <point x="608" y="690"/>
      <point x="673" y="787"/>
      <point x="673" y="876" type="curve" smooth="yes"/>
      <point x="673" y="960"/>
      <point x="615" y="1034"/>
      <point x="504" y="1034" type="curve" smooth="yes"/>
      <point x="407" y="1034"/>
      <point x="278" y="977"/>
      <point x="224" y="977" type="curve" smooth="yes"/>
      <point x="187" y="977"/>
      <point x="158" y="1003"/>
      <point x="134" y="1069" type="curve"/>
      <point x="204" y="1054" type="line"/>
      <point x="-6" y="924" type="line"/>
      <point x="5" y="965" type="line"/>
      <point x="38" y="842"/>
      <point x="124" y="817"/>
      <point x="193" y="817" type="curve" smooth="yes"/>
      <point x="296" y="817"/>
      <point x="401" y="874"/>
      <point x="455" y="874" type="curve" smooth="yes"/>
      <point x="486" y="874"/>
      <point x="499" y="856"/>
      <point x="499" y="835" type="curve" smooth="yes"/>
      <point x="499" y="785"/>
      <point x="428" y="736"/>
      <point x="331" y="681" type="curve"/>
    </contour>
  </outline>
</glyph>
<glyph name="ai_reph-oriya" format="2">
  <advance width="1010"/>
  <outline>
    <contour>
      <point x="748" y="363" type="curve" smooth="yes"/>
      <point x="776" y="363"/>
      <point x="793" y="367"/>
      <point x="810" y="375" type="curve"/>
      <point x="810" y="526" type="line"/>
      <point x="793" y="518"/>
      <point x="776" y="513"/>
      <point x="749" y="513" type="curve" smooth="yes"/>
      <point x="722" y="513"/>
      <point x="704" y="518"/>
      <point x="683" y="526" type="curve"/>
      <point x="683" y="375" type="line"/>
      <point x="702" y="367"/>
      <point x="720" y="363"/>
    </contour>
    <contour>
      <point x="944" y="812" type="line"/>
      <point x="1147" y="982" type="line"/>
      <point x="1073" y="1070" type="line"/>
      <point x="870" y="900" type="line"/>
    </contour>
    <contour>
      <point x="794" y="789" type="line"/>
      <point x="794" y="93" type="line"/>
      <point x="964" y="93" type="line"/>
      <point x="964" y="789" type="line"/>
    </contour>
    <contour>
      <point x="794" y="789" type="curve"/>
      <point x="899" y="736" type="line"/>
      <point x="984" y="769"/>
      <point x="1025" y="827"/>
      <point x="1025" y="885" type="curve" smooth="yes"/>
      <point x="1025" y="967"/>
      <point x="967" y="1034"/>
      <point x="857" y="1034" type="curve" smooth="yes"/>
      <point x="758" y="1034"/>
      <point x="633" y="977"/>
      <point x="572" y="977" type="curve" smooth="yes"/>
      <point x="540" y="977"/>
      <point x="510" y="1003"/>
      <point x="486" y="1069" type="curve"/>
      <point x="556" y="1054" type="line"/>
      <point x="346" y="924" type="line"/>
      <point x="357" y="965" type="line"/>
      <point x="390" y="842"/>
      <point x="476" y="817"/>
      <point x="542" y="817" type="curve" smooth="yes"/>
      <point x="650" y="817"/>
      <point x="751" y="874"/>
      <point x="809" y="874" type="curve" smooth="yes"/>
      <point x="835" y="874"/>
      <point x="851" y="862"/>
      <point x="851" y="846" type="curve" smooth="yes"/>
      <point x="851" y="829"/>
      <point x="831" y="802"/>
    </contour>
    <contour>
      <point x="329" y="583" type="curve"/>
      <point x="414" y="517" type="line"/>
      <point x="414" y="583"/>
      <point x="465" y="611"/>
      <point x="550" y="611" type="curve"/>
      <point x="532" y="664" type="line"/>
      <point x="532" y="208" type="line"/>
      <point x="586" y="227" type="line"/>
      <point x="414" y="326"/>
      <point x="237" y="468"/>
      <point x="73" y="636" type="curve"/>
      <point x="142" y="641" type="line"/>
      <point x="-30" y="458" type="line"/>
      <point x="-53" y="508" type="line"/>
      <point x="113" y="351"/>
      <point x="299" y="208"/>
      <point x="502" y="93" type="curve"/>
      <point x="702" y="93" type="line"/>
      <point x="702" y="751" type="line"/>
      <point x="609" y="751" type="line" smooth="yes"/>
      <point x="394" y="751"/>
      <point x="289" y="627"/>
      <point x="289" y="530" type="curve" smooth="yes"/>
      <point x="289" y="467"/>
      <point x="329" y="418"/>
      <point x="394" y="418" type="curve" smooth="yes"/>
      <point x="452" y="418"/>
      <point x="496" y="458"/>
      <point x="496" y="510" type="curve" smooth="yes"/>
      <point x="496" y="561"/>
      <point x="452" y="601"/>
      <point x="393" y="601" type="curve" smooth="yes"/>
      <point x="368" y="601"/>
      <point x="346" y="594"/>
    </contour>
  </outline>
</glyph>
<glyph name="au_reph-oriya" format="2">
  <advance width="1044"/>
  <outline>
    <contour>
      <point x="751" y="265" type="curve" smooth="yes"/>
      <point x="817" y="265"/>
      <point x="837" y="279"/>
      <point x="854" y="291" type="curve"/>
      <point x="854" y="442" type="line"/>
      <point x="837" y="430"/>
      <point x="803" y="413"/>
      <point x="751" y="415" type="curve" smooth="yes"/>
      <point x="687" y="418"/>
      <point x="663" y="439"/>
      <point x="645" y="447" type="curve"/>
      <point x="621" y="440" type="line"/>
      <point x="645" y="296" type="line"/>
      <point x="662" y="288"/>
      <point x="685" y="265"/>
    </contour>
    <contour>
      <point x="457" y="85" type="curve" smooth="yes"/>
      <point x="653" y="85"/>
      <point x="768" y="157"/>
      <point x="768" y="285" type="curve" smooth="yes"/>
      <point x="768" y="390"/>
      <point x="690" y="456"/>
      <point x="519" y="456" type="curve"/>
      <point x="463" y="367" type="line"/>
      <point x="572" y="403" type="line" smooth="yes"/>
      <point x="634" y="423"/>
      <point x="756" y="469"/>
      <point x="756" y="590" type="curve" smooth="yes"/>
      <point x="756" y="683"/>
      <point x="684" y="759"/>
      <point x="531" y="759" type="curve" smooth="yes"/>
      <point x="391" y="759"/>
      <point x="299" y="696"/>
      <point x="299" y="592" type="curve" smooth="yes"/>
      <point x="299" y="559"/>
      <point x="308" y="522"/>
      <point x="328" y="482" type="curve"/>
      <point x="485" y="532" type="line"/>
      <point x="478" y="545"/>
      <point x="474" y="557"/>
      <point x="474" y="567" type="curve" smooth="yes"/>
      <point x="474" y="592"/>
      <point x="494" y="609"/>
      <point x="528" y="609" type="curve" smooth="yes"/>
      <point x="564" y="609"/>
      <point x="582" y="593"/>
      <point x="582" y="568" type="curve" smooth="yes"/>
      <point x="582" y="528"/>
      <point x="536" y="509"/>
      <point x="501" y="497" type="curve" smooth="yes"/>
      <point x="340" y="441" type="line"/>
      <point x="404" y="312" type="line"/>
      <point x="443" y="328"/>
      <point x="481" y="336"/>
      <point x="516" y="336" type="curve" smooth="yes"/>
      <point x="562" y="336"/>
      <point x="594" y="323"/>
      <point x="594" y="297" type="curve" smooth="yes"/>
      <point x="594" y="265"/>
      <point x="546" y="245"/>
      <point x="462" y="245" type="curve" smooth="yes"/>
      <point x="297" y="245"/>
      <point x="196" y="323"/>
      <point x="196" y="456" type="curve" smooth="yes"/>
      <point x="196" y="567"/>
      <point x="260" y="683"/>
      <point x="338" y="751" type="curve"/>
      <point x="217" y="860" type="line"/>
      <point x="90" y="749"/>
      <point x="22" y="613"/>
      <point x="22" y="459" type="curve" smooth="yes"/>
      <point x="22" y="224"/>
      <point x="184" y="85"/>
    </contour>
    <contour>
      <point x="978" y="812" type="line"/>
      <point x="1181" y="982" type="line"/>
      <point x="1107" y="1070" type="line"/>
      <point x="904" y="900" type="line"/>
    </contour>
    <contour>
      <point x="828" y="789" type="line"/>
      <point x="828" y="93" type="line"/>
      <point x="998" y="93" type="line"/>
      <point x="998" y="789" type="line"/>
    </contour>
    <contour>
      <point x="828" y="789" type="curve"/>
      <point x="933" y="736" type="line"/>
      <point x="1018" y="769"/>
      <point x="1059" y="827"/>
      <point x="1059" y="885" type="curve" smooth="yes"/>
      <point x="1059" y="967"/>
      <point x="1001" y="1034"/>
      <point x="891" y="1034" type="curve" smooth="yes"/>
      <point x="792" y="1034"/>
      <point x="667" y="977"/>
      <point x="606" y="977" type="curve" smooth="yes"/>
      <point x="574" y="977"/>
      <point x="544" y="1003"/>
      <point x="520" y="1069" type="curve"/>
      <point x="590" y="1054" type="line"/>
      <point x="380" y="924" type="line"/>
      <point x="391" y="965" type="line"/>
      <point x="424" y="842"/>
      <point x="510" y="817"/>
      <point x="576" y="817" type="curve" smooth="yes"/>
      <point x="684" y="817"/>
      <point x="785" y="874"/>
      <point x="843" y="874" type="curve" smooth="yes"/>
      <point x="869" y="874"/>
      <point x="885" y="862"/>
      <point x="885" y="846" type="curve" smooth="yes"/>
      <point x="885" y="829"/>
      <point x="865" y="802"/>
    </contour>
  </outline>
</glyph>
<glyph name="ba-oriya.base" format="2">
  <advance width="754"/>
  <guideline x="156" y="162" angle="90"/>
  <anchor x="481" y="203" name="bottom"/>
  <anchor x="370" y="751" name="top"/>
  <anchor x="582" y="751" name="topright"/>
  <outline>
    <contour>
      <point x="406" y="169" type="line"/>
      <point x="556" y="169" type="line"/>
      <point x="556" y="373" type="line"/>
      <point x="416" y="297" type="line"/>
    </contour>
    <contour>
      <point x="355" y="209" type="curve" smooth="yes"/>
      <point x="476" y="209"/>
      <point x="556" y="275"/>
      <point x="556" y="373" type="curve" smooth="yes"/>
      <point x="556" y="468"/>
      <point x="476" y="532"/>
      <point x="357" y="532" type="curve" smooth="yes"/>
      <point x="236" y="532"/>
      <point x="156" y="468"/>
      <point x="156" y="371" type="curve" smooth="yes"/>
      <point x="156" y="274"/>
      <point x="236" y="209"/>
    </contour>
    <contour>
      <point x="356" y="325" type="curve" smooth="yes"/>
      <point x="322" y="325"/>
      <point x="300" y="344"/>
      <point x="300" y="372" type="curve" smooth="yes"/>
      <point x="300" y="399"/>
      <point x="322" y="416"/>
      <point x="356" y="416" type="curve" smooth="yes"/>
      <point x="390" y="416"/>
      <point x="412" y="399"/>
      <point x="412" y="372" type="curve" smooth="yes"/>
      <point x="412" y="344"/>
      <point x="390" y="325"/>
    </contour>
    <contour>
      <point x="192" y="306" type="curve"/>
      <point x="229" y="421" type="line"/>
      <point x="204" y="444"/>
      <point x="187" y="475"/>
      <point x="187" y="505" type="curve" smooth="yes"/>
      <point x="187" y="558"/>
      <point x="237" y="609"/>
      <point x="374" y="609" type="curve" smooth="yes"/>
      <point x="468" y="609"/>
      <point x="562" y="575"/>
      <point x="562" y="507" type="curve" smooth="yes"/>
      <point x="562" y="468"/>
      <point x="542" y="435"/>
      <point x="495" y="391" type="curve"/>
      <point x="491" y="483" type="line"/>
      <point x="805" y="375" type="line"/>
      <point x="659" y="351" type="line"/>
      <point x="706" y="394"/>
      <point x="732" y="440"/>
      <point x="732" y="503" type="curve" smooth="yes"/>
      <point x="732" y="674"/>
      <point x="550" y="759"/>
      <point x="370" y="759" type="curve" smooth="yes"/>
      <point x="127" y="759"/>
      <point x="22" y="641"/>
      <point x="22" y="524" type="curve" smooth="yes"/>
      <point x="22" y="434"/>
      <point x="84" y="344"/>
    </contour>
  </outline>
</glyph>
<glyph name="ba-oriya.below" format="2">
  <note>
basubscriptorya
</note>
  <guideline x="218" y="155" angle="90"/>
  <anchor x="238" y="203" name="_bottom"/>
  <outline>
    <contour>
      <point x="99" y="-59" type="curve"/>
      <point x="151" y="1" type="line"/>
      <point x="133" y="16"/>
      <point x="124" y="34"/>
      <point x="124" y="56" type="curve" smooth="yes"/>
      <point x="124" y="88"/>
      <point x="160" y="109"/>
      <point x="215" y="109" type="curve" smooth="yes"/>
      <point x="273" y="109"/>
      <point x="313" y="88"/>
      <point x="313" y="56" type="curve" smooth="yes"/>
      <point x="313" y="34"/>
      <point x="301" y="13"/>
      <point x="275" y="-13" type="curve"/>
      <point x="295" y="36" type="line"/>
      <point x="477" y="-27" type="line"/>
      <point x="399" y="-19" type="line"/>
      <point x="414" y="1"/>
      <point x="423" y="24"/>
      <point x="423" y="54" type="curve" smooth="yes"/>
      <point x="423" y="158"/>
      <point x="315" y="209"/>
      <point x="209" y="209" type="curve" smooth="yes"/>
      <point x="110" y="209"/>
      <point x="12" y="161"/>
      <point x="12" y="66" type="curve" smooth="yes"/>
      <point x="12" y="20"/>
      <point x="35" y="-24"/>
    </contour>
    <contour>
      <point x="190" y="-135" type="curve" smooth="yes"/>
      <point x="262" y="-135"/>
      <point x="311" y="-94"/>
      <point x="311" y="-32" type="curve" smooth="yes"/>
      <point x="311" y="30"/>
      <point x="262" y="71"/>
      <point x="190" y="71" type="curve" smooth="yes"/>
      <point x="117" y="71"/>
      <point x="68" y="30"/>
      <point x="68" y="-32" type="curve" smooth="yes"/>
      <point x="68" y="-94"/>
      <point x="117" y="-135"/>
    </contour>
    <contour>
      <point x="190" y="-59" type="curve" smooth="yes"/>
      <point x="168" y="-59"/>
      <point x="156" y="-48"/>
      <point x="156" y="-32" type="curve" smooth="yes"/>
      <point x="156" y="-16"/>
      <point x="168" y="-5"/>
      <point x="190" y="-5" type="curve" smooth="yes"/>
      <point x="212" y="-5"/>
      <point x="223" y="-16"/>
      <point x="223" y="-32" type="curve" smooth="yes"/>
      <point x="223" y="-48"/>
      <point x="212" y="-59"/>
    </contour>
    <contour>
      <point x="209" y="-151" type="line"/>
      <point x="311" y="-151" type="line"/>
      <point x="311" y="-32" type="line"/>
      <point x="215" y="-86" type="line"/>
    </contour>
  </outline>
</glyph>
<glyph name="ba_ja-oriya" format="2">
  <advance width="754"/>
  <guideline x="161" y="142" angle="90"/>
  <guideline x="556" y="177" angle="90"/>
  <guideline x="626" y="177" angle="90"/>
  <anchor x="370" y="751" name="top"/>
  <anchor x="582" y="751" name="topright"/>
  <outline>
    <contour>
      <point x="352" y="-155" type="curve" smooth="yes"/>
      <point x="404" y="-155"/>
      <point x="456" y="-151"/>
      <point x="517" y="-133" type="curve"/>
      <point x="496" y="-187" type="line"/>
      <point x="484" y="-142"/>
      <point x="469" y="-73"/>
      <point x="469" y="-12" type="curve" smooth="yes"/>
      <point x="469" y="20"/>
      <point x="473" y="35"/>
      <point x="488" y="35" type="curve" smooth="yes"/>
      <point x="501" y="35"/>
      <point x="502" y="22"/>
      <point x="502" y="12" type="curve" smooth="yes"/>
      <point x="502" y="-151" type="line"/>
      <point x="626" y="-151" type="line"/>
      <point x="626" y="26" type="line" smooth="yes"/>
      <point x="626" y="88"/>
      <point x="581" y="129"/>
      <point x="494" y="129" type="curve" smooth="yes"/>
      <point x="390" y="129"/>
      <point x="345" y="71"/>
      <point x="345" y="-8" type="curve" smooth="yes"/>
      <point x="345" y="-39"/>
      <point x="353" y="-75"/>
      <point x="366" y="-108" type="curve"/>
      <point x="386" y="-55" type="line"/>
      <point x="374" y="-59"/>
      <point x="364" y="-61"/>
      <point x="354" y="-61" type="curve" smooth="yes"/>
      <point x="325" y="-61"/>
      <point x="305" y="-40"/>
      <point x="305" y="-1" type="curve" smooth="yes"/>
      <point x="305" y="51"/>
      <point x="345" y="97"/>
      <point x="513" y="178" type="curve"/>
      <point x="404" y="28" type="line"/>
      <point x="197" y="187" type="line"/>
      <point x="366" y="180" type="line"/>
      <point x="239" y="147"/>
      <point x="181" y="60"/>
      <point x="181" y="-14" type="curve" smooth="yes"/>
      <point x="181" y="-89"/>
      <point x="241" y="-155"/>
    </contour>
    <contour>
      <point x="399" y="92" type="line"/>
      <point x="556" y="92" type="line"/>
      <point x="556" y="373" type="line"/>
      <point x="413" y="297" type="line"/>
    </contour>
    <contour>
      <point x="355" y="209" type="curve" smooth="yes"/>
      <point x="476" y="209"/>
      <point x="556" y="275"/>
      <point x="556" y="373" type="curve" smooth="yes"/>
      <point x="556" y="468"/>
      <point x="476" y="532"/>
      <point x="357" y="532" type="curve" smooth="yes"/>
      <point x="236" y="532"/>
      <point x="156" y="468"/>
      <point x="156" y="371" type="curve" smooth="yes"/>
      <point x="156" y="274"/>
      <point x="236" y="209"/>
    </contour>
    <contour>
      <point x="356" y="325" type="curve" smooth="yes"/>
      <point x="322" y="325"/>
      <point x="300" y="344"/>
      <point x="300" y="372" type="curve" smooth="yes"/>
      <point x="300" y="399"/>
      <point x="322" y="416"/>
      <point x="356" y="416" type="curve" smooth="yes"/>
      <point x="390" y="416"/>
      <point x="412" y="399"/>
      <point x="412" y="372" type="curve" smooth="yes"/>
      <point x="412" y="344"/>
      <point x="390" y="325"/>
    </contour>
    <contour>
      <point x="192" y="306" type="curve"/>
      <point x="229" y="421" type="line"/>
      <point x="204" y="444"/>
      <point x="187" y="475"/>
      <point x="187" y="505" type="curve" smooth="yes"/>
      <point x="187" y="558"/>
      <point x="237" y="609"/>
      <point x="374" y="609" type="curve" smooth="yes"/>
      <point x="468" y="609"/>
      <point x="562" y="575"/>
      <point x="562" y="507" type="curve" smooth="yes"/>
      <point x="562" y="468"/>
      <point x="542" y="435"/>
      <point x="495" y="391" type="curve"/>
      <point x="491" y="483" type="line"/>
      <point x="805" y="375" type="line"/>
      <point x="659" y="351" type="line"/>
      <point x="706" y="394"/>
      <point x="732" y="440"/>
      <point x="732" y="503" type="curve" smooth="yes"/>
      <point x="732" y="674"/>
      <point x="550" y="759"/>
      <point x="370" y="759" type="curve" smooth="yes"/>
      <point x="127" y="759"/>
      <point x="22" y="641"/>
      <point x="22" y="524" type="curve" smooth="yes"/>
      <point x="22" y="434"/>
      <point x="84" y="344"/>
    </contour>
  </outline>
</glyph>
<glyph name="bha-oriya.REV_BRACKET.141" format="2">
  <advance width="962"/>
  <note>
bhaorya
</note>
  <guideline x="876" y="319" angle="90"/>
  <guideline x="21" y="355" angle="90"/>
  <anchor x="363" y="93" name="bottom"/>
  <anchor x="766" y="93" name="bottom_ra"/>
  <anchor x="454" y="751" name="top"/>
  <anchor x="780" y="751" name="topright"/>
  <outline>
    <contour>
      <point x="696" y="250" type="curve"/>
      <point x="813.751" y="84.173" type="line"/>
      <point x="953.882" y="183.489" type="line"/>
      <point x="841" y="323" type="line"/>
      <point x="811" y="193" type="line"/>
      <point x="896" y="272"/>
      <point x="930" y="361"/>
      <point x="930" y="444" type="curve"/>
      <point x="930" y="627"/>
      <point x="762" y="759"/>
      <point x="454" y="759" type="curve"/>
      <point x="179" y="759"/>
      <point x="22" y="654"/>
      <point x="22" y="490" type="curve"/>
      <point x="22" y="394"/>
      <point x="75" y="319"/>
      <point x="173" y="263" type="curve"/>
      <point x="233" y="375" type="line"/>
      <point x="202" y="403"/>
      <point x="186" y="433"/>
      <point x="186" y="467" type="curve"/>
      <point x="186" y="552"/>
      <point x="286" y="599"/>
      <point x="451" y="599" type="curve"/>
      <point x="661" y="599"/>
      <point x="756" y="523"/>
      <point x="756" y="399" type="curve"/>
      <point x="756" y="353"/>
      <point x="743" y="297"/>
    </contour>
    <contour>
      <point x="403" y="85" type="curve"/>
      <point x="403" y="85" type="line"/>
      <point x="578" y="85"/>
      <point x="676" y="162"/>
      <point x="676" y="305" type="curve"/>
      <point x="676" y="413" type="line"/>
      <point x="506" y="413" type="line"/>
      <point x="506" y="297" type="line" smooth="yes"/>
      <point x="506" y="266"/>
      <point x="506" y="209"/>
      <point x="409" y="209" type="curve"/>
      <point x="330" y="209"/>
      <point x="293" y="250"/>
      <point x="293" y="305" type="curve"/>
      <point x="293" y="354"/>
      <point x="315" y="406"/>
      <point x="382" y="458" type="curve"/>
      <point x="296" y="552" type="line"/>
      <point x="184" y="494"/>
      <point x="129" y="388"/>
      <point x="129" y="291" type="curve"/>
      <point x="129" y="166"/>
      <point x="225" y="85"/>
    </contour>
    <contour>
      <point x="464" y="216" type="curve"/>
      <point x="464" y="216" type="line"/>
      <point x="522" y="216"/>
      <point x="585" y="238"/>
      <point x="622" y="277" type="curve"/>
      <point x="595" y="358" type="line"/>
      <point x="575" y="329"/>
      <point x="538" y="316"/>
      <point x="509" y="316" type="curve"/>
      <point x="485" y="316"/>
      <point x="478" y="328"/>
      <point x="478" y="344" type="curve"/>
      <point x="478" y="357"/>
      <point x="482" y="372"/>
      <point x="498" y="390" type="curve"/>
      <point x="420" y="475" type="line"/>
      <point x="358" y="430"/>
      <point x="326" y="380"/>
      <point x="326" y="327" type="curve"/>
      <point x="326" y="253"/>
      <point x="389" y="216"/>
    </contour>
  </outline>
</glyph>
<glyph name="bha_alt-oriya.below" format="2">
  <advance width="396"/>
  <guideline x="337" y="-190" angle="0"/>
  <anchor x="172" y="205" name="_bottom"/>
  <outline>
    <contour>
      <point x="34" y="-110" type="line"/>
      <point x="352" y="-165" type="line"/>
      <point x="371" y="-64" type="line"/>
      <point x="151" y="-26" type="line"/>
      <point x="92" y="-25" type="line"/>
      <point x="52" y="-14" type="line"/>
    </contour>
    <contour>
      <point x="15" y="168" type="curve"/>
      <point x="70" y="57" type="line"/>
      <point x="97" y="71"/>
      <point x="125" y="79"/>
      <point x="148" y="79" type="curve" smooth="yes"/>
      <point x="182" y="79"/>
      <point x="204" y="62"/>
      <point x="204" y="37" type="curve" smooth="yes"/>
      <point x="204" y="3"/>
      <point x="166" y="-20"/>
      <point x="108" y="-20" type="curve" smooth="yes"/>
      <point x="91" y="-20"/>
      <point x="71" y="-18"/>
      <point x="52" y="-14" type="curve"/>
      <point x="103" y="-100" type="line"/>
      <point x="254" y="-100"/>
      <point x="355" y="-33"/>
      <point x="355" y="68" type="curve" smooth="yes"/>
      <point x="355" y="153"/>
      <point x="282" y="209"/>
      <point x="172" y="209" type="curve" smooth="yes"/>
      <point x="120" y="209"/>
      <point x="62" y="195"/>
    </contour>
  </outline>
</glyph>
<glyph name="ca-oriya.base" format="2">
  <advance width="709"/>
  <anchor x="445" y="203" name="bottom"/>
  <anchor x="344" y="751" name="top"/>
  <anchor x="537" y="751" name="topright"/>
  <outline>
    <contour>
      <point x="173" y="317" type="curve"/>
      <point x="230" y="410" type="line"/>
      <point x="199" y="434"/>
      <point x="184" y="470"/>
      <point x="184" y="500" type="curve" smooth="yes"/>
      <point x="184" y="565"/>
      <point x="251" y="609"/>
      <point x="351" y="609" type="curve" smooth="yes"/>
      <point x="451" y="609"/>
      <point x="517" y="566"/>
      <point x="517" y="501" type="curve" smooth="yes"/>
      <point x="517" y="463"/>
      <point x="496" y="428"/>
      <point x="450" y="381" type="curve"/>
      <point x="450" y="472" type="line"/>
      <point x="752" y="344" type="line"/>
      <point x="645" y="375" type="line"/>
      <point x="672" y="410"/>
      <point x="687" y="450"/>
      <point x="687" y="500" type="curve" smooth="yes"/>
      <point x="687" y="655"/>
      <point x="550" y="759"/>
      <point x="344" y="759" type="curve" smooth="yes"/>
      <point x="151" y="759"/>
      <point x="22" y="666"/>
      <point x="22" y="527" type="curve" smooth="yes"/>
      <point x="22" y="445"/>
      <point x="62" y="376"/>
    </contour>
    <contour>
      <point x="315" y="162" type="curve" smooth="yes"/>
      <point x="437" y="162"/>
      <point x="519" y="229"/>
      <point x="519" y="330" type="curve" smooth="yes"/>
      <point x="519" y="431"/>
      <point x="437" y="498"/>
      <point x="315" y="498" type="curve" smooth="yes"/>
      <point x="194" y="498"/>
      <point x="114" y="431"/>
      <point x="114" y="330" type="curve" smooth="yes"/>
      <point x="114" y="229"/>
      <point x="194" y="162"/>
    </contour>
    <contour>
      <point x="317" y="286" type="curve" smooth="yes"/>
      <point x="283" y="286"/>
      <point x="264" y="307"/>
      <point x="264" y="330" type="curve" smooth="yes"/>
      <point x="264" y="353"/>
      <point x="283" y="374"/>
      <point x="317" y="374" type="curve" smooth="yes"/>
      <point x="352" y="374"/>
      <point x="370" y="353"/>
      <point x="370" y="330" type="curve" smooth="yes"/>
      <point x="370" y="307"/>
      <point x="352" y="286"/>
    </contour>
  </outline>
</glyph>
<glyph name="ca-oriya.below" format="2">
  <note>
casubscriptorya
</note>
  <guideline x="206" y="155" angle="90"/>
  <anchor x="226" y="203" name="_bottom"/>
  <outline>
    <contour>
      <point x="101" y="-59" type="curve"/>
      <point x="151" y="3" type="line"/>
      <point x="131" y="17"/>
      <point x="122" y="35"/>
      <point x="122" y="56" type="curve" smooth="yes"/>
      <point x="122" y="91"/>
      <point x="165" y="109"/>
      <point x="209" y="109" type="curve" smooth="yes"/>
      <point x="252" y="109"/>
      <point x="295" y="91"/>
      <point x="295" y="56" type="curve" smooth="yes"/>
      <point x="295" y="34"/>
      <point x="283" y="13"/>
      <point x="257" y="-13" type="curve"/>
      <point x="277" y="36" type="line"/>
      <point x="459" y="-27" type="line"/>
      <point x="381" y="-19" type="line"/>
      <point x="396" y="1"/>
      <point x="405" y="24"/>
      <point x="405" y="54" type="curve" smooth="yes"/>
      <point x="405" y="158"/>
      <point x="304" y="209"/>
      <point x="204" y="209" type="curve" smooth="yes"/>
      <point x="107" y="209"/>
      <point x="12" y="161"/>
      <point x="12" y="66" type="curve" smooth="yes"/>
      <point x="12" y="23"/>
      <point x="37" y="-24"/>
    </contour>
    <contour>
      <point x="190" y="-155" type="curve" smooth="yes"/>
      <point x="262" y="-155"/>
      <point x="311" y="-114"/>
      <point x="311" y="-52" type="curve" smooth="yes"/>
      <point x="311" y="10"/>
      <point x="262" y="51"/>
      <point x="190" y="51" type="curve" smooth="yes"/>
      <point x="117" y="51"/>
      <point x="68" y="10"/>
      <point x="68" y="-52" type="curve" smooth="yes"/>
      <point x="68" y="-114"/>
      <point x="117" y="-155"/>
    </contour>
    <contour>
      <point x="190" y="-79" type="curve" smooth="yes"/>
      <point x="168" y="-79"/>
      <point x="156" y="-68"/>
      <point x="156" y="-52" type="curve" smooth="yes"/>
      <point x="156" y="-36"/>
      <point x="168" y="-25"/>
      <point x="190" y="-25" type="curve" smooth="yes"/>
      <point x="212" y="-25"/>
      <point x="223" y="-36"/>
      <point x="223" y="-52" type="curve" smooth="yes"/>
      <point x="223" y="-68"/>
      <point x="212" y="-79"/>
    </contour>
  </outline>
</glyph>
<glyph name="ca_ra-oriya" format="2">
  <advance width="736"/>
  <guideline x="715" y="197" angle="90"/>
  <anchor x="285" y="93" name="bottom"/>
  <anchor x="360" y="751" name="top"/>
  <anchor x="564" y="751" name="topright"/>
  <outline>
    <contour>
      <point x="173" y="263" type="curve"/>
      <point x="233" y="375" type="line"/>
      <point x="202" y="402"/>
      <point x="187" y="436"/>
      <point x="187" y="470" type="curve" smooth="yes"/>
      <point x="187" y="544"/>
      <point x="258" y="599"/>
      <point x="363" y="599" type="curve" smooth="yes"/>
      <point x="455" y="599"/>
      <point x="539" y="558"/>
      <point x="539" y="474" type="curve" smooth="yes"/>
      <point x="539" y="435"/>
      <point x="518" y="396"/>
      <point x="472" y="348" type="curve"/>
      <point x="480" y="425" type="line"/>
      <point x="719" y="314" type="line"/>
      <point x="665" y="317" type="line"/>
      <point x="694" y="358"/>
      <point x="714" y="418"/>
      <point x="714" y="472" type="curve" smooth="yes"/>
      <point x="714" y="664"/>
      <point x="537" y="759"/>
      <point x="360" y="759" type="curve" smooth="yes"/>
      <point x="189" y="759"/>
      <point x="22" y="677"/>
      <point x="22" y="493" type="curve" smooth="yes"/>
      <point x="22" y="410"/>
      <point x="62" y="328"/>
    </contour>
    <contour>
      <point x="329" y="85" type="curve" smooth="yes"/>
      <point x="435" y="85"/>
      <point x="538" y="148"/>
      <point x="538" y="273" type="curve" smooth="yes"/>
      <point x="538" y="399"/>
      <point x="435" y="461"/>
      <point x="329" y="461" type="curve" smooth="yes"/>
      <point x="214" y="461"/>
      <point x="118" y="399"/>
      <point x="118" y="273" type="curve" smooth="yes"/>
      <point x="118" y="148"/>
      <point x="214" y="85"/>
    </contour>
    <contour>
      <point x="329" y="223" type="curve" smooth="yes"/>
      <point x="301" y="223"/>
      <point x="272" y="240"/>
      <point x="272" y="273" type="curve" smooth="yes"/>
      <point x="272" y="306"/>
      <point x="301" y="323"/>
      <point x="329" y="323" type="curve" smooth="yes"/>
      <point x="358" y="323"/>
      <point x="384" y="306"/>
      <point x="384" y="273" type="curve" smooth="yes"/>
      <point x="384" y="240"/>
      <point x="358" y="223"/>
    </contour>
    <contour>
      <point x="707" y="-107" type="line"/>
      <point x="707" y="113" type="line"/>
      <point x="537" y="113" type="line"/>
      <point x="537" y="33" type="line"/>
      <point x="102" y="33" type="line"/>
      <point x="102" y="-107" type="line"/>
    </contour>
  </outline>
</glyph>
<glyph name="candraBindu-oriya.REV_BRACKET.141" format="2">
  <note>
candrabinduorya
</note>
  <anchor x="400" y="751" name="_topright"/>
  <outline>
    <contour>
      <point x="400" y="771" type="curve" smooth="yes"/>
      <point x="524" y="771"/>
      <point x="612" y="851"/>
      <point x="629" y="1013" type="curve"/>
      <point x="501" y="1027" type="line"/>
      <point x="494" y="923"/>
      <point x="458" y="879"/>
      <point x="400" y="879" type="curve" smooth="yes"/>
      <point x="342" y="879"/>
      <point x="306" y="923"/>
      <point x="299" y="1027" type="curve"/>
      <point x="171" y="1013" type="line"/>
      <point x="188" y="851"/>
      <point x="276" y="771"/>
    </contour>
    <contour>
      <point x="400" y="900" type="curve" smooth="yes"/>
      <point x="443" y="900"/>
      <point x="470" y="925"/>
      <point x="470" y="973" type="curve" smooth="yes"/>
      <point x="470" y="1018"/>
      <point x="443" y="1042"/>
      <point x="400" y="1042" type="curve" smooth="yes"/>
      <point x="358" y="1042"/>
      <point x="330" y="1018"/>
      <point x="330" y="973" type="curve" smooth="yes"/>
      <point x="330" y="927"/>
      <point x="358" y="900"/>
    </contour>
  </outline>
</glyph>
<glyph name="cha-oriya.base" format="2">
  <advance width="759"/>
  <anchor x="522" y="203" name="bottom"/>
  <anchor x="364" y="751" name="top"/>
  <anchor x="587" y="751" name="topright"/>
  <outline>
    <contour>
      <point x="242" y="390" type="curve"/>
      <point x="248" y="468" type="line"/>
      <point x="207" y="477"/>
      <point x="182" y="500"/>
      <point x="182" y="534" type="curve" smooth="yes"/>
      <point x="182" y="596"/>
      <point x="277" y="619"/>
      <point x="369" y="619" type="curve" smooth="yes"/>
      <point x="466" y="619"/>
      <point x="573" y="596"/>
      <point x="573" y="510" type="curve" smooth="yes"/>
      <point x="573" y="482"/>
      <point x="553" y="448"/>
      <point x="525" y="422" type="curve"/>
      <point x="515" y="486" type="line"/>
      <point x="753" y="427" type="line"/>
      <point x="694" y="383" type="line"/>
      <point x="723" y="433"/>
      <point x="737" y="480"/>
      <point x="737" y="524" type="curve" smooth="yes"/>
      <point x="737" y="695"/>
      <point x="545" y="759"/>
      <point x="364" y="759" type="curve" smooth="yes"/>
      <point x="191" y="759"/>
      <point x="22" y="701"/>
      <point x="22" y="559" type="curve" smooth="yes"/>
      <point x="22" y="467"/>
      <point x="100" y="401"/>
    </contour>
    <contour>
      <point x="209" y="261" type="curve" smooth="yes"/>
      <point x="189" y="261"/>
      <point x="179" y="274"/>
      <point x="179" y="287" type="curve" smooth="yes"/>
      <point x="179" y="301"/>
      <point x="190" y="315"/>
      <point x="212" y="315" type="curve" smooth="yes"/>
      <point x="232" y="315"/>
      <point x="261" y="301"/>
      <point x="287" y="289" type="curve"/>
      <point x="254" y="272"/>
      <point x="228" y="261"/>
    </contour>
    <contour>
      <point x="183" y="164" type="curve" smooth="yes"/>
      <point x="237" y="164"/>
      <point x="304" y="189"/>
      <point x="364" y="240" type="curve"/>
      <point x="437" y="180"/>
      <point x="502" y="164"/>
      <point x="545" y="164" type="curve" smooth="yes"/>
      <point x="626" y="164"/>
      <point x="671" y="215"/>
      <point x="671" y="277" type="curve" smooth="yes"/>
      <point x="671" y="342"/>
      <point x="621" y="398"/>
      <point x="538" y="398" type="curve" smooth="yes"/>
      <point x="492" y="398"/>
      <point x="450" y="381"/>
      <point x="365" y="336" type="curve"/>
      <point x="270" y="388"/>
      <point x="149" y="410"/>
      <point x="32" y="417" type="curve"/>
      <point x="23" y="324" type="line"/>
      <point x="91" y="324"/>
      <point x="167" y="320"/>
      <point x="186" y="318" type="curve"/>
      <point x="197" y="383" type="line"/>
      <point x="104" y="383"/>
      <point x="59" y="342"/>
      <point x="59" y="278" type="curve" smooth="yes"/>
      <point x="59" y="222"/>
      <point x="98" y="164"/>
    </contour>
    <contour>
      <point x="521" y="261" type="curve" smooth="yes"/>
      <point x="502" y="261"/>
      <point x="475" y="272"/>
      <point x="443" y="289" type="curve"/>
      <point x="469" y="301"/>
      <point x="499" y="315"/>
      <point x="518" y="315" type="curve" smooth="yes"/>
      <point x="541" y="315"/>
      <point x="551" y="301"/>
      <point x="551" y="287" type="curve" smooth="yes"/>
      <point x="551" y="274"/>
      <point x="542" y="261"/>
    </contour>
    <contour>
      <point x="369" y="285" type="curve" smooth="yes"/>
      <point x="461" y="285"/>
      <point x="552" y="331"/>
      <point x="552" y="423" type="curve" smooth="yes"/>
      <point x="552" y="513"/>
      <point x="489" y="573"/>
      <point x="373" y="573" type="curve" smooth="yes"/>
      <point x="240" y="573"/>
      <point x="188" y="495"/>
      <point x="188" y="421" type="curve" smooth="yes"/>
      <point x="188" y="330"/>
      <point x="279" y="285"/>
    </contour>
    <contour>
      <point x="370" y="350" type="curve" smooth="yes"/>
      <point x="339" y="350"/>
      <point x="308" y="368"/>
      <point x="308" y="404" type="curve" smooth="yes"/>
      <point x="308" y="437"/>
      <point x="329" y="459"/>
      <point x="370" y="459" type="curve" smooth="yes"/>
      <point x="410" y="459"/>
      <point x="432" y="438"/>
      <point x="432" y="404" type="curve" smooth="yes"/>
      <point x="432" y="368"/>
      <point x="401" y="350"/>
    </contour>
  </outline>
</glyph>
<glyph name="cha_ra-oriya.REV_BRACKET.141" format="2">
  <advance width="789"/>
  <guideline x="133" y="261" angle="90"/>
  <anchor x="385" y="751" name="top"/>
  <anchor x="617" y="751" name="topright"/>
  <outline>
    <contour>
      <point x="224" y="345" type="curve"/>
      <point x="253" y="428" type="line"/>
      <point x="211" y="438"/>
      <point x="186" y="466"/>
      <point x="186" y="501" type="curve" smooth="yes"/>
      <point x="186" y="563"/>
      <point x="264" y="609"/>
      <point x="385" y="609" type="curve" smooth="yes"/>
      <point x="515" y="609"/>
      <point x="603" y="556"/>
      <point x="603" y="487" type="curve" smooth="yes"/>
      <point x="603" y="456"/>
      <point x="585" y="417"/>
      <point x="559" y="386" type="curve"/>
      <point x="541" y="451" type="line"/>
      <point x="783" y="390" type="line"/>
      <point x="724" y="354" type="line"/>
      <point x="753" y="407"/>
      <point x="767" y="457"/>
      <point x="767" y="503" type="curve" smooth="yes"/>
      <point x="767" y="657"/>
      <point x="620" y="759"/>
      <point x="385" y="759" type="curve" smooth="yes"/>
      <point x="165" y="759"/>
      <point x="22" y="670"/>
      <point x="22" y="532" type="curve" smooth="yes"/>
      <point x="22" y="437"/>
      <point x="94" y="358"/>
    </contour>
    <contour>
      <point x="214" y="201" type="curve" smooth="yes"/>
      <point x="197" y="201"/>
      <point x="189" y="211"/>
      <point x="189" y="223" type="curve" smooth="yes"/>
      <point x="189" y="235"/>
      <point x="197" y="244"/>
      <point x="217" y="244" type="curve" smooth="yes"/>
      <point x="234" y="244"/>
      <point x="259" y="237"/>
      <point x="282" y="226" type="curve"/>
      <point x="253" y="210"/>
      <point x="231" y="201"/>
    </contour>
    <contour>
      <point x="188" y="85" type="curve" smooth="yes"/>
      <point x="251" y="85"/>
      <point x="319" y="119"/>
      <point x="382" y="171" type="curve"/>
      <point x="461" y="108"/>
      <point x="527" y="85"/>
      <point x="578" y="85" type="curve" smooth="yes"/>
      <point x="665" y="85"/>
      <point x="706" y="149"/>
      <point x="706" y="214" type="curve" smooth="yes"/>
      <point x="706" y="281"/>
      <point x="662" y="350"/>
      <point x="565" y="350" type="curve" smooth="yes"/>
      <point x="517" y="350"/>
      <point x="472" y="332"/>
      <point x="383" y="281" type="curve"/>
      <point x="283" y="339"/>
      <point x="153" y="363"/>
      <point x="32" y="371" type="curve"/>
      <point x="23" y="265" type="line"/>
      <point x="88" y="265"/>
      <point x="168" y="264"/>
      <point x="195" y="262" type="curve"/>
      <point x="207" y="334" type="line"/>
      <point x="83" y="334"/>
      <point x="60" y="267"/>
      <point x="60" y="214" type="curve" smooth="yes"/>
      <point x="60" y="149"/>
      <point x="102" y="85"/>
    </contour>
    <contour>
      <point x="552" y="201" type="curve" smooth="yes"/>
      <point x="535" y="201"/>
      <point x="513" y="210"/>
      <point x="484" y="226" type="curve"/>
      <point x="507" y="237"/>
      <point x="532" y="244"/>
      <point x="549" y="244" type="curve" smooth="yes"/>
      <point x="568" y="244"/>
      <point x="577" y="234"/>
      <point x="577" y="223" type="curve" smooth="yes"/>
      <point x="577" y="212"/>
      <point x="568" y="201"/>
    </contour>
    <contour>
      <point x="384" y="307" type="curve" smooth="yes"/>
      <point x="349" y="307"/>
      <point x="331" y="326"/>
      <point x="331" y="361" type="curve" smooth="yes"/>
      <point x="331" y="388"/>
      <point x="349" y="409"/>
      <point x="384" y="409" type="curve" smooth="yes"/>
      <point x="419" y="409"/>
      <point x="438" y="388"/>
      <point x="438" y="361" type="curve" smooth="yes"/>
      <point x="438" y="326"/>
      <point x="419" y="307"/>
    </contour>
    <contour>
      <point x="387" y="220" type="curve" smooth="yes"/>
      <point x="520" y="220"/>
      <point x="578" y="286"/>
      <point x="578" y="379" type="curve" smooth="yes"/>
      <point x="578" y="480"/>
      <point x="509" y="549"/>
      <point x="387" y="549" type="curve" smooth="yes"/>
      <point x="248" y="549"/>
      <point x="191" y="460"/>
      <point x="191" y="377" type="curve" smooth="yes"/>
      <point x="191" y="294"/>
      <point x="247" y="220"/>
    </contour>
    <contour>
      <point x="663" y="-107" type="line"/>
      <point x="663" y="122" type="line"/>
      <point x="493" y="122" type="line"/>
      <point x="493" y="33" type="line"/>
      <point x="58" y="33" type="line"/>
      <point x="58" y="-107" type="line"/>
    </contour>
  </outline>
</glyph>
<glyph name="da-oriya.base" format="2">
  <advance width="791"/>
  <anchor x="470" y="203" name="bottom"/>
  <anchor x="389" y="751" name="top"/>
  <anchor x="619" y="751" name="topright"/>
  <outline>
    <contour>
      <point x="301" y="211" type="curve" smooth="yes"/>
      <point x="407" y="211"/>
      <point x="521" y="272"/>
      <point x="521" y="393" type="curve"/>
      <point x="442" y="393" type="line"/>
      <point x="442" y="347"/>
      <point x="398" y="325"/>
      <point x="357" y="325" type="curve" smooth="yes"/>
      <point x="310" y="325"/>
      <point x="288" y="346"/>
      <point x="288" y="372" type="curve" smooth="yes"/>
      <point x="288" y="396"/>
      <point x="305" y="424"/>
      <point x="337" y="446" type="curve"/>
      <point x="264" y="534" type="line"/>
      <point x="166" y="496"/>
      <point x="120" y="425"/>
      <point x="120" y="352" type="curve" smooth="yes"/>
      <point x="120" y="258"/>
      <point x="208" y="211"/>
    </contour>
    <contour>
      <point x="385" y="169" type="line"/>
      <point x="555" y="169" type="line"/>
      <point x="555" y="453" type="line"/>
      <point x="395" y="453" type="line"/>
      <point x="395" y="284" type="line"/>
      <point x="401" y="267" type="line"/>
    </contour>
    <contour>
      <point x="169" y="321" type="curve"/>
      <point x="227" y="419" type="line"/>
      <point x="199" y="437"/>
      <point x="182" y="475"/>
      <point x="182" y="506" type="curve" smooth="yes"/>
      <point x="182" y="574"/>
      <point x="260" y="614"/>
      <point x="392" y="614" type="curve" smooth="yes"/>
      <point x="522" y="614"/>
      <point x="599" y="575"/>
      <point x="599" y="508" type="curve" smooth="yes"/>
      <point x="599" y="486"/>
      <point x="582" y="447"/>
      <point x="567" y="436" type="curve"/>
      <point x="551" y="461" type="line"/>
      <point x="786" y="360" type="line"/>
      <point x="721" y="374" type="line"/>
      <point x="749" y="410"/>
      <point x="769" y="450"/>
      <point x="769" y="509" type="curve" smooth="yes"/>
      <point x="769" y="664"/>
      <point x="630" y="759"/>
      <point x="389" y="759" type="curve" smooth="yes"/>
      <point x="158" y="759"/>
      <point x="22" y="671"/>
      <point x="22" y="528" type="curve" smooth="yes"/>
      <point x="22" y="447"/>
      <point x="66" y="377"/>
    </contour>
  </outline>
</glyph>
<glyph name="da_dha_va-oriya" format="2">
  <advance width="934"/>
  <anchor x="526" y="93" name="bottom"/>
  <anchor x="886" y="93" name="bottom_ra"/>
  <anchor x="322" y="112" name="curve"/>
  <anchor x="457" y="751" name="top"/>
  <anchor x="762" y="751" name="topright"/>
  <anchor x="526" y="93" name="vertical"/>
  <outline>
    <contour>
      <point x="158" y="284" type="curve"/>
      <point x="251" y="382" type="line"/>
      <point x="206" y="410"/>
      <point x="182" y="446"/>
      <point x="182" y="481" type="curve" smooth="yes"/>
      <point x="182" y="557"/>
      <point x="291" y="608"/>
      <point x="455" y="608" type="curve" smooth="yes"/>
      <point x="625" y="608"/>
      <point x="738" y="554"/>
      <point x="738" y="472" type="curve" smooth="yes"/>
      <point x="738" y="448"/>
      <point x="729" y="421"/>
      <point x="712" y="394" type="curve"/>
      <point x="854" y="302" type="line"/>
      <point x="891" y="354"/>
      <point x="912" y="412"/>
      <point x="912" y="471" type="curve" smooth="yes"/>
      <point x="912" y="643"/>
      <point x="730" y="758"/>
      <point x="457" y="758" type="curve" smooth="yes"/>
      <point x="197" y="758"/>
      <point x="22" y="653"/>
      <point x="22" y="489" type="curve" smooth="yes"/>
      <point x="22" y="397"/>
      <point x="78" y="336"/>
    </contour>
    <contour>
      <point x="275" y="147" type="curve" smooth="yes"/>
      <point x="349" y="147"/>
      <point x="421" y="188"/>
      <point x="421" y="266" type="curve"/>
      <point x="392" y="265" type="line"/>
      <point x="392" y="187"/>
      <point x="441" y="147"/>
      <point x="505" y="147" type="curve" smooth="yes"/>
      <point x="593" y="147"/>
      <point x="660" y="223"/>
      <point x="660" y="314" type="curve"/>
      <point x="548" y="312" type="line"/>
      <point x="548" y="292"/>
      <point x="533" y="269"/>
      <point x="503" y="269" type="curve" smooth="yes"/>
      <point x="468" y="269"/>
      <point x="468" y="300"/>
      <point x="468" y="307" type="curve" smooth="yes"/>
      <point x="468" y="413" type="line"/>
      <point x="343" y="413" type="line"/>
      <point x="343" y="311" type="line" smooth="yes"/>
      <point x="343" y="284"/>
      <point x="328" y="269"/>
      <point x="305" y="269" type="curve" smooth="yes"/>
      <point x="281" y="269"/>
      <point x="269" y="289"/>
      <point x="269" y="314" type="curve" smooth="yes"/>
      <point x="269" y="342"/>
      <point x="285" y="372"/>
      <point x="318" y="396" type="curve"/>
      <point x="259" y="490" type="line"/>
      <point x="163" y="452"/>
      <point x="116" y="371"/>
      <point x="116" y="296" type="curve" smooth="yes"/>
      <point x="116" y="210"/>
      <point x="180" y="147"/>
    </contour>
    <contour>
      <point x="278" y="728" type="line"/>
      <point x="173" y="658" type="line"/>
      <point x="588" y="352" type="line"/>
      <point x="526" y="473" type="line"/>
      <point x="526" y="258" type="line"/>
      <point x="542" y="188" type="line"/>
      <point x="526" y="93" type="line"/>
      <point x="696" y="93" type="line"/>
      <point x="696" y="413" type="line"/>
    </contour>
    <contour>
      <point x="456" y="-114" type="curve" smooth="yes"/>
      <point x="541" y="-114"/>
      <point x="626" y="-63"/>
      <point x="626" y="43" type="curve"/>
      <point x="543" y="57" type="line"/>
      <point x="543" y="19"/>
      <point x="517" y="-7"/>
      <point x="484" y="-7" type="curve" smooth="yes"/>
      <point x="454" y="-7"/>
      <point x="443" y="13"/>
      <point x="443" y="39" type="curve" smooth="yes"/>
      <point x="443" y="77"/>
      <point x="460" y="127"/>
      <point x="479" y="144" type="curve"/>
      <point x="515" y="87" type="line"/>
      <point x="288" y="115" type="line"/>
      <point x="373" y="186" type="line"/>
      <point x="334" y="139"/>
      <point x="313" y="82"/>
      <point x="313" y="30" type="curve" smooth="yes"/>
      <point x="313" y="-48"/>
      <point x="360" y="-114"/>
    </contour>
    <contour>
      <point x="526" y="-151" type="line"/>
      <point x="696" y="-151" type="line"/>
      <point x="696" y="93" type="line"/>
      <point x="526" y="93" type="line"/>
      <point x="526" y="-48" type="line"/>
      <point x="536" y="-57" type="line"/>
    </contour>
  </outline>
</glyph>
<glyph name="da_va-oriya" format="2">
  <advance width="815"/>
  <anchor x="407" y="93" name="bottom"/>
  <anchor x="767" y="93" name="bottom_ra"/>
  <anchor x="203" y="112" name="curve"/>
  <anchor x="398" y="751" name="top"/>
  <anchor x="643" y="751" name="topright"/>
  <anchor x="407" y="93" name="vertical"/>
  <outline>
    <contour>
      <point x="332" y="137" type="curve" smooth="yes"/>
      <point x="464" y="137"/>
      <point x="566" y="204"/>
      <point x="566" y="335" type="curve"/>
      <point x="454" y="335" type="line"/>
      <point x="454" y="287"/>
      <point x="410" y="265"/>
      <point x="369" y="265" type="curve" smooth="yes"/>
      <point x="321" y="265"/>
      <point x="299" y="290"/>
      <point x="299" y="320" type="curve" smooth="yes"/>
      <point x="299" y="348"/>
      <point x="317" y="379"/>
      <point x="353" y="399" type="curve"/>
      <point x="284" y="487" type="line"/>
      <point x="176" y="450"/>
      <point x="124" y="371"/>
      <point x="124" y="298" type="curve" smooth="yes"/>
      <point x="124" y="214"/>
      <point x="189" y="137"/>
    </contour>
    <contour>
      <point x="407" y="93" type="line"/>
      <point x="577" y="93" type="line"/>
      <point x="577" y="413" type="line"/>
      <point x="407" y="413" type="line"/>
      <point x="407" y="224" type="line"/>
      <point x="425" y="204" type="line"/>
    </contour>
    <contour>
      <point x="173" y="263" type="curve"/>
      <point x="233" y="375" type="line"/>
      <point x="204" y="395"/>
      <point x="187" y="437"/>
      <point x="187" y="472" type="curve" smooth="yes"/>
      <point x="187" y="557"/>
      <point x="287" y="599"/>
      <point x="399" y="599" type="curve" smooth="yes"/>
      <point x="506" y="599"/>
      <point x="618" y="559"/>
      <point x="618" y="475" type="curve" smooth="yes"/>
      <point x="618" y="441"/>
      <point x="602" y="407"/>
      <point x="578" y="381" type="curve"/>
      <point x="572" y="419" type="line"/>
      <point x="802" y="313" type="line"/>
      <point x="735" y="314" type="line"/>
      <point x="776" y="365"/>
      <point x="793" y="417"/>
      <point x="793" y="473" type="curve" smooth="yes"/>
      <point x="793" y="663"/>
      <point x="594" y="759"/>
      <point x="398" y="759" type="curve" smooth="yes"/>
      <point x="205" y="759"/>
      <point x="22" y="666"/>
      <point x="22" y="492" type="curve" smooth="yes"/>
      <point x="22" y="406"/>
      <point x="67" y="326"/>
    </contour>
    <contour>
      <point x="337" y="-114" type="curve" smooth="yes"/>
      <point x="422" y="-114"/>
      <point x="507" y="-63"/>
      <point x="507" y="43" type="curve"/>
      <point x="424" y="57" type="line"/>
      <point x="424" y="19"/>
      <point x="398" y="-7"/>
      <point x="365" y="-7" type="curve" smooth="yes"/>
      <point x="335" y="-7"/>
      <point x="324" y="13"/>
      <point x="324" y="39" type="curve" smooth="yes"/>
      <point x="324" y="77"/>
      <point x="341" y="127"/>
      <point x="360" y="144" type="curve"/>
      <point x="396" y="87" type="line"/>
      <point x="169" y="115" type="line"/>
      <point x="254" y="186" type="line"/>
      <point x="215" y="139"/>
      <point x="194" y="82"/>
      <point x="194" y="30" type="curve" smooth="yes"/>
      <point x="194" y="-48"/>
      <point x="241" y="-114"/>
    </contour>
    <contour>
      <point x="407" y="-151" type="line"/>
      <point x="577" y="-151" type="line"/>
      <point x="577" y="93" type="line"/>
      <point x="407" y="93" type="line"/>
      <point x="407" y="-48" type="line"/>
      <point x="417" y="-57" type="line"/>
    </contour>
  </outline>
</glyph>
<glyph name="dda-oriya.REV_BRACKET.141" format="2">
  <advance width="789"/>
  <note>
ddaorya
</note>
  <guideline x="335" y="381" angle="0"/>
  <guideline x="325" y="208" angle="0"/>
  <guideline x="314" y="423" angle="0"/>
  <anchor x="342" y="93" name="bottom"/>
  <anchor x="722" y="93" name="bottom_ra"/>
  <anchor x="386" y="-27" name="nukta"/>
  <anchor x="393" y="751" name="top"/>
  <anchor x="617" y="751" name="topright"/>
  <outline>
    <contour>
      <point x="173" y="263" type="curve"/>
      <point x="173" y="263" type="line"/>
      <point x="233" y="375" type="line"/>
      <point x="204" y="395"/>
      <point x="186" y="437"/>
      <point x="186" y="472" type="curve"/>
      <point x="186" y="549"/>
      <point x="273" y="599"/>
      <point x="394" y="599" type="curve"/>
      <point x="505" y="599"/>
      <point x="593" y="557"/>
      <point x="593" y="473" type="curve"/>
      <point x="593" y="448.559"/>
      <point x="587.69" y="427.953"/>
      <point x="574.987" y="404.933" type="curve"/>
      <point x="728.293" y="334.381" type="line"/>
      <point x="753.573" y="378.636"/>
      <point x="767" y="425.966"/>
      <point x="767" y="477" type="curve"/>
      <point x="767" y="665"/>
      <point x="586" y="759"/>
      <point x="393" y="759" type="curve"/>
      <point x="204" y="759"/>
      <point x="22" y="669"/>
      <point x="22" y="490" type="curve"/>
      <point x="22" y="398"/>
      <point x="74" y="322"/>
    </contour>
    <contour>
      <point x="139" y="286" type="curve"/>
      <point x="139" y="286" type="line"/>
      <point x="139" y="160"/>
      <point x="247" y="85"/>
      <point x="372" y="85" type="curve"/>
      <point x="487" y="85"/>
      <point x="603" y="149"/>
      <point x="603" y="279" type="curve"/>
      <point x="603" y="340"/>
      <point x="577" y="392"/>
      <point x="490" y="437" type="curve"/>
      <point x="382" y="337" type="line"/>
      <point x="434" y="311"/>
      <point x="449" y="293"/>
      <point x="449" y="273" type="curve"/>
      <point x="449" y="245"/>
      <point x="418" y="233"/>
      <point x="382" y="233" type="curve"/>
      <point x="350" y="233"/>
      <point x="304" y="250"/>
      <point x="304" y="306" type="curve"/>
      <point x="304" y="348"/>
      <point x="330" y="396"/>
      <point x="387" y="437" type="curve"/>
      <point x="318" y="535" type="line"/>
      <point x="182" y="469"/>
      <point x="139" y="365"/>
    </contour>
    <contour>
      <point x="314" y="354" type="line"/>
      <point x="397" y="267" type="line"/>
      <point x="575" y="437" type="line"/>
      <point x="492" y="524" type="line"/>
    </contour>
  </outline>
</glyph>
<glyph name="dda-oriya.below" format="2">
  <note>
ddasubscriptorya
</note>
  <guideline x="235" y="202" angle="90"/>
  <anchor x="255" y="203" name="_bottom"/>
  <outline>
    <contour>
      <point x="99" y="-59" type="curve"/>
      <point x="138" y="8" type="line"/>
      <point x="120" y="26"/>
      <point x="112" y="41"/>
      <point x="112" y="57" type="curve" smooth="yes"/>
      <point x="112" y="98"/>
      <point x="160" y="119"/>
      <point x="227" y="119" type="curve" smooth="yes"/>
      <point x="300" y="119"/>
      <point x="351" y="94"/>
      <point x="351" y="46" type="curve" smooth="yes"/>
      <point x="351" y="33"/>
      <point x="347" y="21"/>
      <point x="339" y="10" type="curve"/>
      <point x="422" y="-30" type="line"/>
      <point x="442" y="-4"/>
      <point x="451" y="24"/>
      <point x="451" y="53" type="curve" smooth="yes"/>
      <point x="451" y="148"/>
      <point x="364" y="209"/>
      <point x="227" y="209" type="curve" smooth="yes"/>
      <point x="96" y="209"/>
      <point x="12" y="153"/>
      <point x="12" y="66" type="curve" smooth="yes"/>
      <point x="12" y="14"/>
      <point x="42" y="-27"/>
    </contour>
    <contour>
      <point x="221" y="-155" type="curve" smooth="yes"/>
      <point x="295" y="-155"/>
      <point x="354" y="-120"/>
      <point x="354" y="-53" type="curve" smooth="yes"/>
      <point x="354" y="-11"/>
      <point x="330" y="12"/>
      <point x="283" y="41" type="curve"/>
      <point x="224" y="-12" type="line"/>
      <point x="257" y="-29"/>
      <point x="264" y="-40"/>
      <point x="264" y="-51" type="curve" smooth="yes"/>
      <point x="264" y="-67"/>
      <point x="249" y="-75"/>
      <point x="226" y="-75" type="curve" smooth="yes"/>
      <point x="197" y="-75"/>
      <point x="181" y="-58"/>
      <point x="181" y="-35" type="curve" smooth="yes"/>
      <point x="181" y="-15"/>
      <point x="197" y="10"/>
      <point x="228" y="33" type="curve"/>
      <point x="186" y="88" type="line"/>
      <point x="117" y="55"/>
      <point x="81" y="4"/>
      <point x="81" y="-45" type="curve" smooth="yes"/>
      <point x="81" y="-103"/>
      <point x="130" y="-155"/>
    </contour>
    <contour>
      <point x="240" y="-51" type="line"/>
      <point x="333" y="30" type="line"/>
      <point x="292" y="73" type="line"/>
      <point x="201" y="-8" type="line"/>
    </contour>
  </outline>
</glyph>
<glyph name="dda_ra-oriya.REV_BRACKET.141" format="2">
  <advance width="789"/>
  <anchor x="393" y="751" name="top"/>
  <anchor x="617" y="751" name="topright"/>
  <outline>
    <contour>
      <point x="173" y="263" type="curve"/>
      <point x="233" y="375" type="line"/>
      <point x="204" y="395"/>
      <point x="186" y="437"/>
      <point x="186" y="472" type="curve" smooth="yes"/>
      <point x="186" y="549"/>
      <point x="273" y="599"/>
      <point x="394" y="599" type="curve" smooth="yes"/>
      <point x="505" y="599"/>
      <point x="593" y="557"/>
      <point x="593" y="473" type="curve" smooth="yes"/>
      <point x="593" y="428"/>
      <point x="575" y="396"/>
      <point x="526" y="338" type="curve"/>
      <point x="514" y="433" type="line"/>
      <point x="803" y="300" type="line"/>
      <point x="685" y="274" type="line"/>
      <point x="738" y="335"/>
      <point x="767" y="402"/>
      <point x="767" y="477" type="curve" smooth="yes"/>
      <point x="767" y="665"/>
      <point x="586" y="759"/>
      <point x="393" y="759" type="curve" smooth="yes"/>
      <point x="204" y="759"/>
      <point x="22" y="669"/>
      <point x="22" y="490" type="curve" smooth="yes"/>
      <point x="22" y="398"/>
      <point x="74" y="322"/>
    </contour>
    <contour>
      <point x="139" y="286" type="curve" smooth="yes"/>
      <point x="139" y="160"/>
      <point x="247" y="85"/>
      <point x="372" y="85" type="curve" smooth="yes"/>
      <point x="487" y="85"/>
      <point x="603" y="149"/>
      <point x="603" y="279" type="curve" smooth="yes"/>
      <point x="603" y="340"/>
      <point x="577" y="392"/>
      <point x="490" y="437" type="curve"/>
      <point x="382" y="337" type="line"/>
      <point x="434" y="311"/>
      <point x="449" y="293"/>
      <point x="449" y="273" type="curve" smooth="yes"/>
      <point x="449" y="245"/>
      <point x="418" y="233"/>
      <point x="382" y="233" type="curve" smooth="yes"/>
      <point x="350" y="233"/>
      <point x="304" y="250"/>
      <point x="304" y="306" type="curve" smooth="yes"/>
      <point x="304" y="348"/>
      <point x="330" y="396"/>
      <point x="387" y="437" type="curve"/>
      <point x="318" y="535" type="line"/>
      <point x="182" y="469"/>
      <point x="139" y="365"/>
    </contour>
    <contour>
      <point x="397" y="267" type="line"/>
      <point x="575" y="437" type="line"/>
      <point x="492" y="524" type="line"/>
      <point x="314" y="354" type="line"/>
    </contour>
    <contour>
      <point x="722" y="-107" type="line"/>
      <point x="722" y="113" type="line"/>
      <point x="552" y="113" type="line"/>
      <point x="552" y="33" type="line"/>
      <point x="117" y="33" type="line"/>
      <point x="117" y="-107" type="line"/>
    </contour>
  </outline>
</glyph>
<glyph name="dda_ra-oriya" format="2">
  <advance width="789"/>
  <anchor x="393" y="751" name="top"/>
  <anchor x="617" y="751" name="topright"/>
  <outline>
    <contour>
      <point x="173" y="263" type="curve"/>
      <point x="233" y="375" type="line"/>
      <point x="204" y="395"/>
      <point x="186" y="437"/>
      <point x="186" y="472" type="curve" smooth="yes"/>
      <point x="186" y="549"/>
      <point x="273" y="599"/>
      <point x="394" y="599" type="curve" smooth="yes"/>
      <point x="505" y="599"/>
      <point x="593" y="557"/>
      <point x="593" y="473" type="curve" smooth="yes"/>
      <point x="593" y="428"/>
      <point x="575" y="396"/>
      <point x="526" y="338" type="curve"/>
      <point x="514" y="433" type="line"/>
      <point x="803" y="300" type="line"/>
      <point x="685" y="274" type="line"/>
      <point x="738" y="335"/>
      <point x="767" y="402"/>
      <point x="767" y="477" type="curve" smooth="yes"/>
      <point x="767" y="665"/>
      <point x="586" y="759"/>
      <point x="393" y="759" type="curve" smooth="yes"/>
      <point x="204" y="759"/>
      <point x="22" y="669"/>
      <point x="22" y="490" type="curve" smooth="yes"/>
      <point x="22" y="398"/>
      <point x="74" y="322"/>
    </contour>
    <contour>
      <point x="139" y="286" type="curve" smooth="yes"/>
      <point x="139" y="160"/>
      <point x="247" y="85"/>
      <point x="372" y="85" type="curve" smooth="yes"/>
      <point x="487" y="85"/>
      <point x="603" y="149"/>
      <point x="603" y="279" type="curve" smooth="yes"/>
      <point x="603" y="340"/>
      <point x="577" y="392"/>
      <point x="490" y="437" type="curve"/>
      <point x="382" y="353" type="line"/>
      <point x="442" y="321"/>
      <point x="459" y="300"/>
      <point x="459" y="275" type="curve" smooth="yes"/>
      <point x="459" y="241"/>
      <point x="427" y="223"/>
      <point x="386" y="223" type="curve" smooth="yes"/>
      <point x="344" y="223"/>
      <point x="293" y="242"/>
      <point x="293" y="305" type="curve" smooth="yes"/>
      <point x="293" y="349"/>
      <point x="318" y="398"/>
      <point x="383" y="442" type="curve"/>
      <point x="318" y="535" type="line"/>
      <point x="182" y="469"/>
      <point x="139" y="365"/>
    </contour>
    <contour>
      <point x="397" y="267" type="line"/>
      <point x="575" y="437" type="line"/>
      <point x="492" y="524" type="line"/>
      <point x="314" y="354" type="line"/>
    </contour>
    <contour>
      <point x="722" y="-107" type="line"/>
      <point x="722" y="113" type="line"/>
      <point x="552" y="113" type="line"/>
      <point x="552" y="33" type="line"/>
      <point x="117" y="33" type="line"/>
      <point x="117" y="-107" type="line"/>
    </contour>
  </outline>
</glyph>
<glyph name="ddha-oriya.REV_BRACKET.141" format="2">
  <advance width="789"/>
  <note>
ddhaorya
</note>
  <guideline x="440" y="174" angle="90"/>
  <anchor x="251" y="93" name="bottom"/>
  <anchor x="730" y="93" name="bottom_ra"/>
  <anchor x="394" y="-27" name="nukta"/>
  <anchor x="382" y="751" name="top"/>
  <anchor x="617" y="751" name="topright"/>
  <outline>
    <contour>
      <point x="95" y="281" type="curve"/>
      <point x="95" y="281" type="line"/>
      <point x="95" y="175"/>
      <point x="164" y="85"/>
      <point x="310" y="85" type="curve"/>
      <point x="483" y="85"/>
      <point x="600" y="220"/>
      <point x="600" y="313" type="curve"/>
      <point x="600" y="396"/>
      <point x="526" y="449"/>
      <point x="436" y="449" type="curve"/>
      <point x="354" y="449"/>
      <point x="279" y="405"/>
      <point x="279" y="317" type="curve"/>
      <point x="279" y="195"/>
      <point x="396" y="93"/>
      <point x="609" y="42" type="curve"/>
      <point x="641" y="168" type="line"/>
      <point x="487" y="190"/>
      <point x="420" y="259"/>
      <point x="420" y="300" type="curve"/>
      <point x="420" y="316"/>
      <point x="428" y="324"/>
      <point x="440" y="324" type="curve"/>
      <point x="451" y="324"/>
      <point x="459" y="318"/>
      <point x="459" y="300" type="curve"/>
      <point x="459" y="250"/>
      <point x="402" y="223"/>
      <point x="345" y="223" type="curve"/>
      <point x="273" y="223"/>
      <point x="249" y="256"/>
      <point x="249" y="300" type="curve"/>
      <point x="249" y="358"/>
      <point x="288" y="403"/>
      <point x="348" y="443" type="curve"/>
      <point x="283" y="535" type="line"/>
      <point x="162" y="479"/>
      <point x="95" y="385"/>
    </contour>
    <contour>
      <point x="173" y="263" type="curve"/>
      <point x="173" y="263" type="line"/>
      <point x="233" y="375" type="line"/>
      <point x="204" y="395"/>
      <point x="186" y="437"/>
      <point x="186" y="472" type="curve"/>
      <point x="186" y="549"/>
      <point x="273" y="599"/>
      <point x="394" y="599" type="curve"/>
      <point x="504" y="599"/>
      <point x="593" y="558"/>
      <point x="593" y="471" type="curve"/>
      <point x="593" y="453"/>
      <point x="589" y="433"/>
      <point x="580" y="412" type="curve"/>
      <point x="732" y="339" type="line"/>
      <point x="755" y="381"/>
      <point x="767" y="427"/>
      <point x="767" y="477" type="curve"/>
      <point x="767" y="665"/>
      <point x="586" y="759"/>
      <point x="393" y="759" type="curve"/>
      <point x="204" y="759"/>
      <point x="22" y="669"/>
      <point x="22" y="490" type="curve"/>
      <point x="22" y="398"/>
      <point x="74" y="322"/>
    </contour>
  </outline>
</glyph>
<glyph name="ddha_ra-oriya" format="2">
  <advance width="789"/>
  <guideline x="732" y="164" angle="90"/>
  <anchor x="382" y="751" name="top"/>
  <anchor x="629" y="751" name="topright"/>
  <outline>
    <contour>
      <point x="95" y="282" type="curve" smooth="yes"/>
      <point x="95" y="177"/>
      <point x="165" y="85"/>
      <point x="304" y="85" type="curve" smooth="yes"/>
      <point x="458" y="85"/>
      <point x="600" y="199"/>
      <point x="600" y="313" type="curve" smooth="yes"/>
      <point x="600" y="396"/>
      <point x="524" y="449"/>
      <point x="435" y="449" type="curve" smooth="yes"/>
      <point x="357" y="449"/>
      <point x="279" y="408"/>
      <point x="279" y="312" type="curve" smooth="yes"/>
      <point x="279" y="188"/>
      <point x="410" y="74"/>
      <point x="688" y="25" type="curve"/>
      <point x="504" y="-11" type="line"/>
      <point x="618" y="235" type="line"/>
      <point x="728" y="156" type="line"/>
      <point x="522" y="163"/>
      <point x="413" y="233"/>
      <point x="413" y="298" type="curve" smooth="yes"/>
      <point x="413" y="318"/>
      <point x="423" y="331"/>
      <point x="440" y="331" type="curve" smooth="yes"/>
      <point x="455" y="331"/>
      <point x="466" y="321"/>
      <point x="466" y="298" type="curve" smooth="yes"/>
      <point x="466" y="252"/>
      <point x="424" y="213"/>
      <point x="344" y="213" type="curve" smooth="yes"/>
      <point x="264" y="213"/>
      <point x="239" y="252"/>
      <point x="239" y="298" type="curve" smooth="yes"/>
      <point x="239" y="359"/>
      <point x="284" y="408"/>
      <point x="344" y="448" type="curve"/>
      <point x="283" y="535" type="line"/>
      <point x="166" y="481"/>
      <point x="95" y="388"/>
    </contour>
    <contour>
      <point x="173" y="263" type="curve"/>
      <point x="233" y="375" type="line"/>
      <point x="204" y="395"/>
      <point x="186" y="437"/>
      <point x="186" y="472" type="curve" smooth="yes"/>
      <point x="186" y="549"/>
      <point x="273" y="599"/>
      <point x="394" y="599" type="curve" smooth="yes"/>
      <point x="504" y="599"/>
      <point x="593" y="558"/>
      <point x="593" y="471" type="curve" smooth="yes"/>
      <point x="593" y="453"/>
      <point x="589" y="433"/>
      <point x="580" y="412" type="curve"/>
      <point x="732" y="339" type="line"/>
      <point x="755" y="381"/>
      <point x="767" y="427"/>
      <point x="767" y="477" type="curve" smooth="yes"/>
      <point x="767" y="665"/>
      <point x="586" y="759"/>
      <point x="393" y="759" type="curve" smooth="yes"/>
      <point x="204" y="759"/>
      <point x="22" y="669"/>
      <point x="22" y="490" type="curve" smooth="yes"/>
      <point x="22" y="398"/>
      <point x="74" y="322"/>
    </contour>
    <contour>
      <point x="737" y="-107" type="line"/>
      <point x="737" y="113" type="line"/>
      <point x="567" y="113" type="line"/>
      <point x="567" y="-43" type="line"/>
      <point x="643" y="33" type="line"/>
      <point x="102" y="33" type="line"/>
      <point x="102" y="-107" type="line"/>
    </contour>
  </outline>
</glyph>
<glyph name="dha_va-oriya" format="2">
  <advance width="750"/>
  <anchor x="363" y="751" name="top"/>
  <anchor x="619" y="751" name="topright"/>
  <outline>
    <contour>
      <point x="279" y="165" type="curve" smooth="yes"/>
      <point x="413" y="165"/>
      <point x="548" y="224"/>
      <point x="620" y="320" type="curve"/>
      <point x="552" y="431" type="line"/>
      <point x="479" y="356"/>
      <point x="381" y="311"/>
      <point x="293" y="311" type="curve" smooth="yes"/>
      <point x="225" y="311"/>
      <point x="192" y="339"/>
      <point x="192" y="377" type="curve" smooth="yes"/>
      <point x="192" y="410"/>
      <point x="217" y="446"/>
      <point x="306" y="477" type="curve"/>
      <point x="246" y="596" type="line"/>
      <point x="91" y="554"/>
      <point x="22" y="465"/>
      <point x="22" y="366" type="curve" smooth="yes"/>
      <point x="22" y="269"/>
      <point x="103" y="165"/>
    </contour>
    <contour>
      <point x="387" y="369" type="line"/>
      <point x="484" y="484" type="line"/>
      <point x="157" y="759" type="line"/>
      <point x="61" y="643" type="line"/>
    </contour>
    <contour>
      <point x="464" y="-114" type="curve" smooth="yes"/>
      <point x="549" y="-114"/>
      <point x="634" y="-63"/>
      <point x="634" y="43" type="curve"/>
      <point x="551" y="57" type="line"/>
      <point x="551" y="19"/>
      <point x="525" y="-7"/>
      <point x="492" y="-7" type="curve" smooth="yes"/>
      <point x="462" y="-7"/>
      <point x="451" y="13"/>
      <point x="451" y="40" type="curve" smooth="yes"/>
      <point x="451" y="66"/>
      <point x="460" y="99"/>
      <point x="474" y="130" type="curve"/>
      <point x="501" y="89" type="line"/>
      <point x="317" y="117" type="line"/>
      <point x="353" y="145" type="line"/>
      <point x="332" y="108"/>
      <point x="321" y="68"/>
      <point x="321" y="30" type="curve" smooth="yes"/>
      <point x="321" y="-48"/>
      <point x="368" y="-114"/>
    </contour>
    <contour>
      <point x="534" y="-151" type="line"/>
      <point x="704" y="-151" type="line"/>
      <point x="704" y="751" type="line"/>
      <point x="534" y="751" type="line"/>
      <point x="534" y="314" type="line"/>
      <point x="552" y="274" type="line"/>
      <point x="534" y="169" type="line"/>
      <point x="534" y="-48" type="line"/>
      <point x="544" y="-57" type="line"/>
    </contour>
  </outline>
</glyph>
<glyph name="e-oriya.REV_BRACKET.141" format="2">
  <advance width="748"/>
  <note>
eorya
</note>
  <anchor x="617" y="751" name="topright"/>
  <outline>
    <contour>
      <point x="329" y="583" type="curve"/>
      <point x="414" y="507" type="line"/>
      <point x="414" y="573"/>
      <point x="486" y="591"/>
      <point x="550" y="591" type="curve"/>
      <point x="532" y="664" type="line"/>
      <point x="532" y="208" type="line"/>
      <point x="586" y="227" type="line"/>
      <point x="414" y="326"/>
      <point x="237" y="468"/>
      <point x="73" y="636" type="curve"/>
      <point x="142" y="641" type="line"/>
      <point x="-30" y="458" type="line"/>
      <point x="-53" y="508" type="line"/>
      <point x="113" y="351"/>
      <point x="299" y="208"/>
      <point x="502" y="93" type="curve"/>
      <point x="702" y="93" type="line"/>
      <point x="702" y="751" type="line"/>
      <point x="609" y="751" type="line" smooth="yes"/>
      <point x="394" y="751"/>
      <point x="289" y="627"/>
      <point x="289" y="530" type="curve" smooth="yes"/>
      <point x="289" y="467"/>
      <point x="329" y="418"/>
      <point x="394" y="418" type="curve" smooth="yes"/>
      <point x="452" y="418"/>
      <point x="496" y="458"/>
      <point x="496" y="510" type="curve" smooth="yes"/>
      <point x="496" y="561"/>
      <point x="452" y="601"/>
      <point x="393" y="601" type="curve" smooth="yes"/>
      <point x="368" y="601"/>
      <point x="346" y="594"/>
    </contour>
  </outline>
</glyph>
<glyph name="five-oriya.REV_BRACKET.141" format="2">
  <advance width="585"/>
  <note>
fiveorya
</note>
  <outline>
    <contour>
      <point x="499" y="271" type="curve"/>
      <point x="585" y="371" type="line"/>
      <point x="421" y="519"/>
      <point x="237" y="419"/>
      <point x="88" y="558" type="curve"/>
      <point x="0" y="459" type="line"/>
      <point x="141" y="325"/>
      <point x="341" y="419"/>
    </contour>
    <contour>
      <point x="253" y="85" type="curve" smooth="yes"/>
      <point x="378" y="85"/>
      <point x="460" y="151"/>
      <point x="460" y="240" type="curve" smooth="yes"/>
      <point x="460" y="304"/>
      <point x="417" y="365"/>
      <point x="322" y="425" type="curve"/>
      <point x="223" y="437" type="line"/>
      <point x="108" y="383"/>
      <point x="51" y="321"/>
      <point x="51" y="243" type="curve" smooth="yes"/>
      <point x="51" y="148"/>
      <point x="127" y="85"/>
    </contour>
    <contour>
      <point x="128" y="604" type="curve" smooth="yes"/>
      <point x="128" y="555"/>
      <point x="147" y="514"/>
      <point x="198" y="468" type="curve"/>
      <point x="418" y="434" type="line"/>
      <point x="495" y="480"/>
      <point x="534" y="536"/>
      <point x="534" y="601" type="curve" smooth="yes"/>
      <point x="534" y="696"/>
      <point x="456" y="759"/>
      <point x="336" y="759" type="curve" smooth="yes"/>
      <point x="210" y="759"/>
      <point x="128" y="693"/>
    </contour>
    <contour>
      <point x="286" y="562" type="curve" smooth="yes"/>
      <point x="286" y="587"/>
      <point x="307" y="601"/>
      <point x="329" y="601" type="curve" smooth="yes"/>
      <point x="351" y="601"/>
      <point x="370" y="588"/>
      <point x="370" y="563" type="curve" smooth="yes"/>
      <point x="370" y="537"/>
      <point x="357" y="509"/>
      <point x="322" y="484" type="curve"/>
      <point x="294" y="515"/>
      <point x="286" y="540"/>
    </contour>
    <contour>
      <point x="215" y="276" type="curve" smooth="yes"/>
      <point x="215" y="299"/>
      <point x="232" y="323"/>
      <point x="265" y="344" type="curve"/>
      <point x="291" y="317"/>
      <point x="302" y="298"/>
      <point x="302" y="275" type="curve" smooth="yes"/>
      <point x="302" y="254"/>
      <point x="281" y="243"/>
      <point x="258" y="243" type="curve" smooth="yes"/>
      <point x="236" y="243"/>
      <point x="215" y="253"/>
    </contour>
  </outline>
</glyph>
<glyph name="ha-oriya.REV_BRACKET.141" format="2">
  <advance width="763"/>
  <note>
haorya
</note>
  <anchor x="314" y="93" name="bottom"/>
  <anchor x="614" y="93" name="bottom_ra"/>
  <anchor x="370" y="751" name="top"/>
  <anchor x="591" y="751" name="topright"/>
  <outline>
    <contour>
      <point x="545.61" y="397.658" type="curve"/>
      <point x="699.824" y="330.542" type="line"/>
      <point x="726.256" y="375.815"/>
      <point x="741" y="425.301"/>
      <point x="741" y="479" type="curve"/>
      <point x="741" y="669"/>
      <point x="553" y="759"/>
      <point x="370" y="759" type="curve"/>
      <point x="193" y="759"/>
      <point x="22" y="674"/>
      <point x="22" y="519" type="curve"/>
      <point x="22" y="436"/>
      <point x="72" y="351"/>
      <point x="182" y="313" type="curve"/>
      <point x="232" y="419" type="line"/>
      <point x="200" y="447"/>
      <point x="186" y="475"/>
      <point x="186" y="502" type="curve"/>
      <point x="186" y="568"/>
      <point x="271" y="599"/>
      <point x="361" y="599" type="curve"/>
      <point x="461" y="599"/>
      <point x="567" y="561"/>
      <point x="567" y="473" type="curve"/>
      <point x="567" y="450.677"/>
      <point x="560.12" y="424.751"/>
    </contour>
    <contour>
      <point x="109" y="133" type="line"/>
      <point x="577" y="3" type="line"/>
      <point x="614" y="127" type="line"/>
      <point x="255" y="224" type="line"/>
      <point x="174" y="126" type="line"/>
      <point x="364" y="266" type="line"/>
      <point x="270" y="346" type="line"/>
      <point x="93" y="223" type="line"/>
    </contour>
    <contour>
      <point x="311" y="244" type="curve"/>
      <point x="311" y="244" type="line"/>
      <point x="402" y="244"/>
      <point x="494" y="298"/>
      <point x="494" y="397" type="curve"/>
      <point x="390" y="408" type="line"/>
      <point x="383" y="380"/>
      <point x="362" y="367"/>
      <point x="340" y="367" type="curve"/>
      <point x="319" y="367"/>
      <point x="308" y="379"/>
      <point x="308" y="395" type="curve"/>
      <point x="308" y="413"/>
      <point x="323" y="435"/>
      <point x="348" y="447" type="curve"/>
      <point x="286" y="551" type="line"/>
      <point x="196" y="518"/>
      <point x="152" y="449"/>
      <point x="152" y="384" type="curve"/>
      <point x="152" y="312"/>
      <point x="209" y="244"/>
    </contour>
    <contour>
      <point x="380" y="304" type="line"/>
      <point x="371" y="209" type="line"/>
      <point x="525" y="209" type="line"/>
      <point x="525" y="499" type="line"/>
      <point x="371" y="499" type="line"/>
      <point x="371" y="321" type="line"/>
    </contour>
  </outline>
</glyph>
<glyph name="ha-oriya.below" format="2">
  <note>
hasubscriptorya
</note>
  <guideline x="221" y="157" angle="90"/>
  <anchor x="241" y="203" name="_bottom"/>
  <outline>
    <contour>
      <point x="110" y="-34" type="curve"/>
      <point x="151" y="26" type="line"/>
      <point x="124" y="38"/>
      <point x="110" y="50"/>
      <point x="110" y="69" type="curve" smooth="yes"/>
      <point x="110" y="100"/>
      <point x="145" y="119"/>
      <point x="209" y="119" type="curve" smooth="yes"/>
      <point x="277" y="119"/>
      <point x="321" y="97"/>
      <point x="321" y="54" type="curve" smooth="yes"/>
      <point x="321" y="31"/>
      <point x="309" y="4"/>
      <point x="282" y="-22" type="curve"/>
      <point x="291" y="37" type="line"/>
      <point x="437" y="-19" type="line"/>
      <point x="364" y="-64" type="line"/>
      <point x="405" y="-29"/>
      <point x="429" y="10"/>
      <point x="429" y="58" type="curve" smooth="yes"/>
      <point x="429" y="151"/>
      <point x="341" y="209"/>
      <point x="214" y="209" type="curve" smooth="yes"/>
      <point x="92" y="209"/>
      <point x="12" y="155"/>
      <point x="12" y="75" type="curve" smooth="yes"/>
      <point x="12" y="22"/>
      <point x="51" y="-20"/>
    </contour>
    <contour>
      <point x="328" y="-197" type="line"/>
      <point x="350" y="-131" type="line"/>
      <point x="126" y="-70" type="line"/>
      <point x="120" y="-110" type="line"/>
      <point x="201" y="-55" type="line"/>
      <point x="135" y="-27" type="line"/>
      <point x="54" y="-79" type="line"/>
      <point x="68" y="-129" type="line"/>
    </contour>
    <contour>
      <point x="87" y="11" type="curve" smooth="yes"/>
      <point x="87" y="-30"/>
      <point x="121" y="-68"/>
      <point x="182" y="-68" type="curve" smooth="yes"/>
      <point x="233" y="-68"/>
      <point x="285" y="-41"/>
      <point x="285" y="7" type="curve"/>
      <point x="228" y="23" type="line"/>
      <point x="228" y="5"/>
      <point x="207" y="-8"/>
      <point x="189" y="-8" type="curve" smooth="yes"/>
      <point x="176" y="-8"/>
      <point x="167" y="-1"/>
      <point x="167" y="11" type="curve" smooth="yes"/>
      <point x="167" y="24"/>
      <point x="177" y="38"/>
      <point x="201" y="50" type="curve"/>
      <point x="170" y="99" type="line"/>
      <point x="115" y="83"/>
      <point x="87" y="45"/>
    </contour>
    <contour>
      <point x="215" y="-86" type="line"/>
      <point x="303" y="-86" type="line"/>
      <point x="303" y="71" type="line"/>
      <point x="215" y="71" type="line"/>
      <point x="215" y="-28" type="line"/>
      <point x="224" y="-39" type="line"/>
    </contour>
  </outline>
</glyph>
<glyph name="ha_ja-oriya" format="2">
  <advance width="734"/>
  <note>
hajaorya
</note>
  <guideline x="512" y="372" angle="90"/>
  <guideline x="588" y="372" angle="90"/>
  <anchor x="360" y="751" name="top"/>
  <anchor x="562" y="751" name="topright"/>
  <outline>
    <contour>
      <point x="404" y="117" type="line"/>
      <point x="522" y="202" type="line"/>
      <point x="259" y="285" type="line"/>
      <point x="169" y="203" type="line"/>
      <point x="355" y="328" type="line"/>
      <point x="264" y="388" type="line"/>
      <point x="92" y="279" type="line"/>
      <point x="106" y="208" type="line"/>
    </contour>
    <contour>
      <point x="302" y="304" type="curve" smooth="yes"/>
      <point x="394" y="304"/>
      <point x="480" y="358"/>
      <point x="480" y="473" type="curve"/>
      <point x="378" y="475" type="line"/>
      <point x="378" y="437"/>
      <point x="360" y="410"/>
      <point x="327" y="410" type="curve" smooth="yes"/>
      <point x="303" y="410"/>
      <point x="291" y="424"/>
      <point x="291" y="441" type="curve" smooth="yes"/>
      <point x="291" y="461"/>
      <point x="303" y="477"/>
      <point x="333" y="493" type="curve"/>
      <point x="276" y="576" type="line"/>
      <point x="197" y="550"/>
      <point x="147" y="495"/>
      <point x="147" y="428" type="curve" smooth="yes"/>
      <point x="147" y="349"/>
      <point x="221" y="304"/>
    </contour>
    <contour>
      <point x="361" y="275" type="line"/>
      <point x="512" y="275" type="line"/>
      <point x="512" y="529" type="line"/>
      <point x="362" y="529" type="line"/>
      <point x="362" y="366" type="line"/>
      <point x="374" y="350" type="line"/>
    </contour>
    <contour>
      <point x="636" y="330" type="line"/>
      <point x="684" y="384"/>
      <point x="712" y="445"/>
      <point x="712" y="514" type="curve" smooth="yes"/>
      <point x="712" y="681"/>
      <point x="547" y="759"/>
      <point x="360" y="759" type="curve" smooth="yes"/>
      <point x="156" y="759"/>
      <point x="22" y="666"/>
      <point x="22" y="545" type="curve" smooth="yes"/>
      <point x="22" y="462"/>
      <point x="85" y="394"/>
      <point x="184" y="364" type="curve"/>
      <point x="218" y="455" type="line"/>
      <point x="186" y="480"/>
      <point x="172" y="506"/>
      <point x="172" y="527" type="curve" smooth="yes"/>
      <point x="172" y="580"/>
      <point x="251" y="614"/>
      <point x="361" y="614" type="curve" smooth="yes"/>
      <point x="470" y="614"/>
      <point x="552" y="581"/>
      <point x="552" y="509" type="curve" smooth="yes"/>
      <point x="552" y="472"/>
      <point x="530" y="424"/>
      <point x="485" y="380" type="curve"/>
      <point x="454" y="471" type="line"/>
      <point x="755" y="351" type="line"/>
    </contour>
    <contour>
      <point x="350" y="-75" type="curve" smooth="yes"/>
      <point x="395" y="-75"/>
      <point x="440" y="-71"/>
      <point x="493" y="-53" type="curve"/>
      <point x="475" y="-107" type="line"/>
      <point x="465" y="-62"/>
      <point x="452" y="7"/>
      <point x="452" y="68" type="curve" smooth="yes"/>
      <point x="452" y="100"/>
      <point x="455" y="115"/>
      <point x="468" y="115" type="curve" smooth="yes"/>
      <point x="479" y="115"/>
      <point x="480" y="102"/>
      <point x="480" y="92" type="curve" smooth="yes"/>
      <point x="480" y="-71" type="line"/>
      <point x="588" y="-71" type="line"/>
      <point x="588" y="106" type="line" smooth="yes"/>
      <point x="588" y="168"/>
      <point x="549" y="209"/>
      <point x="473" y="209" type="curve" smooth="yes"/>
      <point x="383" y="209"/>
      <point x="344" y="151"/>
      <point x="344" y="72" type="curve" smooth="yes"/>
      <point x="344" y="41"/>
      <point x="351" y="5"/>
      <point x="362" y="-28" type="curve"/>
      <point x="379" y="25" type="line"/>
      <point x="369" y="21"/>
      <point x="360" y="19"/>
      <point x="352" y="19" type="curve" smooth="yes"/>
      <point x="326" y="19"/>
      <point x="309" y="40"/>
      <point x="309" y="79" type="curve" smooth="yes"/>
      <point x="309" y="103"/>
      <point x="317" y="126"/>
      <point x="340" y="152" type="curve"/>
      <point x="379" y="103" type="line"/>
      <point x="184" y="164" type="line"/>
      <point x="286" y="227" type="line"/>
      <point x="228" y="180"/>
      <point x="201" y="120"/>
      <point x="201" y="66" type="curve" smooth="yes"/>
      <point x="201" y="-9"/>
      <point x="253" y="-75"/>
    </contour>
  </outline>
</glyph>
<glyph name="ha_u-oriya" format="2">
  <advance width="734"/>
  <note>
huorya
</note>
  <guideline x="361" y="182" angle="90"/>
  <guideline x="512" y="182" angle="90"/>
  <anchor x="360" y="751" name="top"/>
  <anchor x="562" y="751" name="topright"/>
  <outline>
    <contour>
      <point x="276" y="-155" type="curve" smooth="yes"/>
      <point x="399" y="-155"/>
      <point x="512" y="-55"/>
      <point x="512" y="137" type="curve"/>
      <point x="362" y="167" type="line"/>
      <point x="362" y="137" type="line"/>
      <point x="362" y="72"/>
      <point x="362" y="-47"/>
      <point x="282" y="-47" type="curve" smooth="yes"/>
      <point x="261" y="-47"/>
      <point x="248" y="-39"/>
      <point x="248" y="-24" type="curve" smooth="yes"/>
      <point x="248" y="-10"/>
      <point x="260" y="-3"/>
      <point x="273" y="-3" type="curve" smooth="yes"/>
      <point x="335" y="-3"/>
      <point x="436" y="-155"/>
      <point x="562" y="-155" type="curve" smooth="yes"/>
      <point x="612" y="-155"/>
      <point x="667" y="-131"/>
      <point x="725" y="-60" type="curve"/>
      <point x="683" y="-161" type="line"/>
      <point x="593" y="0" type="line"/>
      <point x="627" y="4" type="line"/>
      <point x="594" y="-26"/>
      <point x="566" y="-37"/>
      <point x="541" y="-37" type="curve" smooth="yes"/>
      <point x="454" y="-37"/>
      <point x="398" y="105"/>
      <point x="266" y="105" type="curve" smooth="yes"/>
      <point x="180" y="105"/>
      <point x="130" y="45"/>
      <point x="130" y="-25" type="curve" smooth="yes"/>
      <point x="130" y="-94"/>
      <point x="180" y="-155"/>
    </contour>
    <contour>
      <point x="555" y="94" type="line"/>
      <point x="591" y="203" type="line"/>
      <point x="259" y="285" type="line"/>
      <point x="169" y="203" type="line"/>
      <point x="355" y="328" type="line"/>
      <point x="264" y="388" type="line"/>
      <point x="92" y="279" type="line"/>
      <point x="106" y="208" type="line"/>
    </contour>
    <contour>
      <point x="302" y="304" type="curve" smooth="yes"/>
      <point x="394" y="304"/>
      <point x="480" y="358"/>
      <point x="480" y="473" type="curve"/>
      <point x="378" y="475" type="line"/>
      <point x="378" y="437"/>
      <point x="360" y="410"/>
      <point x="327" y="410" type="curve" smooth="yes"/>
      <point x="303" y="410"/>
      <point x="291" y="424"/>
      <point x="291" y="441" type="curve" smooth="yes"/>
      <point x="291" y="461"/>
      <point x="303" y="477"/>
      <point x="333" y="493" type="curve"/>
      <point x="276" y="576" type="line"/>
      <point x="197" y="550"/>
      <point x="147" y="495"/>
      <point x="147" y="428" type="curve" smooth="yes"/>
      <point x="147" y="349"/>
      <point x="221" y="304"/>
    </contour>
    <contour>
      <point x="361" y="275" type="line"/>
      <point x="512" y="275" type="line"/>
      <point x="512" y="529" type="line"/>
      <point x="362" y="529" type="line"/>
      <point x="362" y="366" type="line"/>
      <point x="374" y="350" type="line"/>
    </contour>
    <contour>
      <point x="636" y="330" type="line"/>
      <point x="684" y="384"/>
      <point x="712" y="445"/>
      <point x="712" y="514" type="curve" smooth="yes"/>
      <point x="712" y="681"/>
      <point x="547" y="759"/>
      <point x="360" y="759" type="curve" smooth="yes"/>
      <point x="156" y="759"/>
      <point x="22" y="666"/>
      <point x="22" y="545" type="curve" smooth="yes"/>
      <point x="22" y="462"/>
      <point x="85" y="394"/>
      <point x="184" y="364" type="curve"/>
      <point x="218" y="455" type="line"/>
      <point x="186" y="480"/>
      <point x="172" y="506"/>
      <point x="172" y="527" type="curve" smooth="yes"/>
      <point x="172" y="580"/>
      <point x="251" y="614"/>
      <point x="361" y="614" type="curve" smooth="yes"/>
      <point x="470" y="614"/>
      <point x="552" y="581"/>
      <point x="552" y="509" type="curve" smooth="yes"/>
      <point x="552" y="472"/>
      <point x="530" y="424"/>
      <point x="485" y="380" type="curve"/>
      <point x="454" y="471" type="line"/>
      <point x="755" y="351" type="line"/>
    </contour>
  </outline>
</glyph>
<glyph name="ha_va-oriya" format="2">
  <advance width="734"/>
  <note>
habaorya
</note>
  <guideline x="512" y="372" angle="90"/>
  <guideline x="587" y="372" angle="90"/>
  <anchor x="360" y="751" name="top"/>
  <anchor x="562" y="751" name="topright"/>
  <outline>
    <contour>
      <point x="551" y="96" type="line"/>
      <point x="587" y="205" type="line"/>
      <point x="259" y="285" type="line"/>
      <point x="169" y="203" type="line"/>
      <point x="355" y="328" type="line"/>
      <point x="264" y="388" type="line"/>
      <point x="92" y="279" type="line"/>
      <point x="106" y="208" type="line"/>
    </contour>
    <contour>
      <point x="302" y="304" type="curve" smooth="yes"/>
      <point x="394" y="304"/>
      <point x="480" y="358"/>
      <point x="480" y="473" type="curve"/>
      <point x="378" y="475" type="line"/>
      <point x="378" y="437"/>
      <point x="360" y="410"/>
      <point x="327" y="410" type="curve" smooth="yes"/>
      <point x="303" y="410"/>
      <point x="291" y="424"/>
      <point x="291" y="441" type="curve" smooth="yes"/>
      <point x="291" y="461"/>
      <point x="303" y="477"/>
      <point x="333" y="493" type="curve"/>
      <point x="276" y="576" type="line"/>
      <point x="197" y="550"/>
      <point x="147" y="495"/>
      <point x="147" y="428" type="curve" smooth="yes"/>
      <point x="147" y="349"/>
      <point x="221" y="304"/>
    </contour>
    <contour>
      <point x="361" y="275" type="line"/>
      <point x="512" y="275" type="line"/>
      <point x="512" y="529" type="line"/>
      <point x="362" y="529" type="line"/>
      <point x="362" y="366" type="line"/>
      <point x="374" y="350" type="line"/>
    </contour>
    <contour>
      <point x="636" y="330" type="line"/>
      <point x="684" y="384"/>
      <point x="712" y="445"/>
      <point x="712" y="514" type="curve" smooth="yes"/>
      <point x="712" y="681"/>
      <point x="547" y="759"/>
      <point x="360" y="759" type="curve" smooth="yes"/>
      <point x="156" y="759"/>
      <point x="22" y="666"/>
      <point x="22" y="545" type="curve" smooth="yes"/>
      <point x="22" y="462"/>
      <point x="85" y="394"/>
      <point x="184" y="364" type="curve"/>
      <point x="218" y="455" type="line"/>
      <point x="186" y="480"/>
      <point x="172" y="506"/>
      <point x="172" y="527" type="curve" smooth="yes"/>
      <point x="172" y="580"/>
      <point x="251" y="614"/>
      <point x="361" y="614" type="curve" smooth="yes"/>
      <point x="470" y="614"/>
      <point x="552" y="581"/>
      <point x="552" y="509" type="curve" smooth="yes"/>
      <point x="552" y="472"/>
      <point x="530" y="424"/>
      <point x="485" y="380" type="curve"/>
      <point x="454" y="471" type="line"/>
      <point x="755" y="351" type="line"/>
    </contour>
    <contour>
      <point x="367" y="-114" type="curve" smooth="yes"/>
      <point x="452" y="-114"/>
      <point x="537" y="-63"/>
      <point x="537" y="43" type="curve"/>
      <point x="454" y="57" type="line"/>
      <point x="454" y="19"/>
      <point x="428" y="-7"/>
      <point x="395" y="-7" type="curve" smooth="yes"/>
      <point x="365" y="-7"/>
      <point x="354" y="13"/>
      <point x="354" y="41" type="curve" smooth="yes"/>
      <point x="354" y="61"/>
      <point x="359" y="85"/>
      <point x="371" y="122" type="curve"/>
      <point x="394" y="90" type="line"/>
      <point x="229" y="117" type="line"/>
      <point x="242" y="125" type="line"/>
      <point x="230" y="93"/>
      <point x="224" y="61"/>
      <point x="224" y="30" type="curve" smooth="yes"/>
      <point x="224" y="-48"/>
      <point x="271" y="-114"/>
    </contour>
    <contour>
      <point x="437" y="-151" type="line"/>
      <point x="587" y="-151" type="line"/>
      <point x="587" y="205" type="line"/>
      <point x="437" y="205" type="line"/>
      <point x="437" y="-48" type="line"/>
      <point x="446" y="-57" type="line"/>
    </contour>
  </outline>
</glyph>
<glyph name="i-oriya.REV_BRACKET.141" format="2">
  <advance width="876"/>
  <note>
iorya
</note>
  <anchor x="695" y="751" name="topright"/>
  <outline>
    <contour>
      <point x="610" y="250" type="curve"/>
      <point x="784" y="5" type="line"/>
      <point x="688" y="56" type="line"/>
      <point x="893" y="201" type="line"/>
      <point x="948" y="85" type="line"/>
      <point x="755" y="323" type="line"/>
      <point x="725" y="193" type="line"/>
      <point x="811" y="271"/>
      <point x="845" y="358"/>
      <point x="845" y="440" type="curve" smooth="yes"/>
      <point x="845" y="647"/>
      <point x="625" y="758"/>
      <point x="414" y="758" type="curve" smooth="yes"/>
      <point x="214" y="758"/>
      <point x="22" y="664"/>
      <point x="22" y="485" type="curve" smooth="yes"/>
      <point x="22" y="410"/>
      <point x="56" y="333"/>
      <point x="173" y="263" type="curve"/>
      <point x="233" y="375" type="line"/>
      <point x="201" y="404"/>
      <point x="186" y="434"/>
      <point x="186" y="466" type="curve" smooth="yes"/>
      <point x="186" y="549"/>
      <point x="291" y="599"/>
      <point x="404" y="599" type="curve" smooth="yes"/>
      <point x="532" y="599"/>
      <point x="671" y="534"/>
      <point x="671" y="393" type="curve" smooth="yes"/>
      <point x="671" y="346"/>
      <point x="655" y="294"/>
    </contour>
    <contour>
      <point x="238" y="85" type="curve" smooth="yes"/>
      <point x="323" y="85"/>
      <point x="373" y="160"/>
      <point x="373" y="265" type="curve" smooth="yes"/>
      <point x="373" y="373"/>
      <point x="323" y="444"/>
      <point x="238" y="444" type="curve" smooth="yes"/>
      <point x="152" y="444"/>
      <point x="90" y="378"/>
      <point x="90" y="261" type="curve" smooth="yes"/>
      <point x="90" y="151"/>
      <point x="152" y="85"/>
    </contour>
    <contour>
      <point x="243" y="219" type="curve" smooth="yes"/>
      <point x="223" y="219"/>
      <point x="214" y="236"/>
      <point x="214" y="265" type="curve" smooth="yes"/>
      <point x="214" y="294"/>
      <point x="223" y="310"/>
      <point x="243" y="310" type="curve" smooth="yes"/>
      <point x="263" y="310"/>
      <point x="272" y="296"/>
      <point x="272" y="265" type="curve" smooth="yes"/>
      <point x="272" y="235"/>
      <point x="263" y="219"/>
    </contour>
    <contour>
      <point x="446" y="85" type="curve" smooth="yes"/>
      <point x="530" y="85"/>
      <point x="590" y="153"/>
      <point x="590" y="264" type="curve" smooth="yes"/>
      <point x="590" y="378"/>
      <point x="532" y="444"/>
      <point x="445" y="444" type="curve" smooth="yes"/>
      <point x="361" y="444"/>
      <point x="303" y="373"/>
      <point x="303" y="265" type="curve" smooth="yes"/>
      <point x="303" y="160"/>
      <point x="361" y="85"/>
    </contour>
    <contour>
      <point x="437" y="219" type="curve" smooth="yes"/>
      <point x="417" y="219"/>
      <point x="408" y="235"/>
      <point x="408" y="265" type="curve" smooth="yes"/>
      <point x="408" y="296"/>
      <point x="417" y="310"/>
      <point x="437" y="310" type="curve" smooth="yes"/>
      <point x="457" y="310"/>
      <point x="466" y="294"/>
      <point x="466" y="265" type="curve" smooth="yes"/>
      <point x="466" y="236"/>
      <point x="457" y="219"/>
    </contour>
  </outline>
</glyph>
<glyph name="iMatra_reph-oriya.wide" format="2">
  <advance width="800"/>
  <anchor x="406" y="751" name="_top"/>
  <outline>
    <contour>
      <point x="134" y="773" type="line"/>
      <point x="210" y="822"/>
      <point x="307" y="846"/>
      <point x="403" y="846" type="curve" smooth="yes"/>
      <point x="498" y="846"/>
      <point x="594" y="822"/>
      <point x="666" y="773" type="curve"/>
      <point x="740" y="889" type="line"/>
      <point x="642" y="959"/>
      <point x="522" y="994"/>
      <point x="402" y="994" type="curve" smooth="yes"/>
      <point x="282" y="994"/>
      <point x="160" y="959"/>
      <point x="60" y="889" type="curve"/>
    </contour>
    <contour>
      <point x="575" y="838" type="line"/>
      <point x="747" y="982" type="line"/>
      <point x="673" y="1070" type="line"/>
      <point x="483" y="911" type="line"/>
    </contour>
  </outline>
</glyph>
<glyph name="ii-oriya.REV_BRACKET.141" format="2">
  <advance width="876"/>
  <note>
iiorya
</note>
  <anchor x="705" y="751" name="topright"/>
  <outline>
    <contour>
      <point x="610" y="250" type="curve"/>
      <point x="610" y="250" type="line"/>
      <point x="727.791" y="84.145" type="line"/>
      <point x="868.173" y="183.439" type="line"/>
      <point x="755" y="323" type="line"/>
      <point x="727" y="193" type="line"/>
      <point x="815" y="272"/>
      <point x="855" y="362"/>
      <point x="855" y="453" type="curve"/>
      <point x="855" y="634"/>
      <point x="695" y="759"/>
      <point x="469" y="759" type="curve"/>
      <point x="282" y="759"/>
      <point x="118" y="672"/>
      <point x="118" y="448" type="curve"/>
      <point x="309" y="560" type="line"/>
      <point x="335" y="590"/>
      <point x="377" y="609"/>
      <point x="445" y="609" type="curve"/>
      <point x="597" y="609"/>
      <point x="680" y="513"/>
      <point x="680" y="409" type="curve"/>
      <point x="680" y="354"/>
      <point x="657" y="298"/>
    </contour>
    <contour>
      <point x="238" y="85" type="curve"/>
      <point x="238" y="85" type="line"/>
      <point x="323" y="85"/>
      <point x="373" y="160"/>
      <point x="373" y="260" type="curve"/>
      <point x="373" y="363"/>
      <point x="323" y="434"/>
      <point x="238" y="434" type="curve"/>
      <point x="152" y="434"/>
      <point x="90" y="368"/>
      <point x="90" y="256" type="curve"/>
      <point x="90" y="151"/>
      <point x="152" y="85"/>
    </contour>
    <contour>
      <point x="243" y="214" type="curve"/>
      <point x="243" y="214" type="line"/>
      <point x="223" y="214"/>
      <point x="214" y="231"/>
      <point x="214" y="260" type="curve"/>
      <point x="214" y="289"/>
      <point x="223" y="305"/>
      <point x="243" y="305" type="curve"/>
      <point x="263" y="305"/>
      <point x="272" y="291"/>
      <point x="272" y="260" type="curve"/>
      <point x="272" y="230"/>
      <point x="263" y="214"/>
    </contour>
    <contour>
      <point x="446" y="85" type="curve"/>
      <point x="446" y="85" type="line"/>
      <point x="530" y="85"/>
      <point x="590" y="153"/>
      <point x="590" y="259" type="curve"/>
      <point x="590" y="368"/>
      <point x="532" y="434"/>
      <point x="445" y="434" type="curve"/>
      <point x="361" y="434"/>
      <point x="303" y="363"/>
      <point x="303" y="260" type="curve"/>
      <point x="303" y="160"/>
      <point x="361" y="85"/>
    </contour>
    <contour>
      <point x="437" y="214" type="curve"/>
      <point x="437" y="214" type="line"/>
      <point x="417" y="214"/>
      <point x="408" y="230"/>
      <point x="408" y="260" type="curve"/>
      <point x="408" y="291"/>
      <point x="417" y="305"/>
      <point x="437" y="305" type="curve"/>
      <point x="457" y="305"/>
      <point x="466" y="289"/>
      <point x="466" y="260" type="curve"/>
      <point x="466" y="231"/>
      <point x="457" y="214"/>
    </contour>
    <contour>
      <point x="170" y="243" type="curve"/>
      <point x="170" y="243" type="line"/>
      <point x="224" y="335" type="line"/>
      <point x="196" y="355"/>
      <point x="182" y="379"/>
      <point x="182" y="401" type="curve"/>
      <point x="182" y="438"/>
      <point x="224" y="460"/>
      <point x="278" y="460" type="curve"/>
      <point x="315.651" y="460"/>
      <point x="355.399" y="449.515"/>
      <point x="374.469" y="428.165" type="curve"/>
      <point x="462.302" y="541.006" type="line"/>
      <point x="411.459" y="586.822"/>
      <point x="330.425" y="610"/>
      <point x="258" y="610" type="curve"/>
      <point x="125" y="610"/>
      <point x="22" y="532"/>
      <point x="22" y="422" type="curve"/>
      <point x="22" y="350"/>
      <point x="67" y="284"/>
    </contour>
  </outline>
</glyph>
<glyph name="ja-oriya.REV_BRACKET.141" format="2">
  <advance width="815"/>
  <note>
jaorya
</note>
  <anchor x="459" y="93" name="bottom"/>
  <anchor x="629" y="93" name="bottom_ra"/>
  <anchor x="398" y="751" name="top"/>
  <anchor x="643" y="751" name="topright"/>
  <outline>
    <contour>
      <point x="309" y="85" type="curve" smooth="yes"/>
      <point x="364" y="85"/>
      <point x="426" y="97"/>
      <point x="488" y="119" type="curve"/>
      <point x="451" y="46" type="line"/>
      <point x="439" y="104"/>
      <point x="425" y="199"/>
      <point x="425" y="267" type="curve" smooth="yes"/>
      <point x="425" y="319"/>
      <point x="430" y="335"/>
      <point x="444" y="335" type="curve" smooth="yes"/>
      <point x="458" y="335"/>
      <point x="459" y="323"/>
      <point x="459" y="301" type="curve" smooth="yes"/>
      <point x="459" y="93" type="line"/>
      <point x="629" y="93" type="line"/>
      <point x="629" y="322" type="line" smooth="yes"/>
      <point x="629" y="419"/>
      <point x="575" y="463"/>
      <point x="471" y="463" type="curve" smooth="yes"/>
      <point x="336" y="463"/>
      <point x="281" y="382"/>
      <point x="281" y="274" type="curve" smooth="yes"/>
      <point x="281" y="235"/>
      <point x="288" y="192"/>
      <point x="302" y="149" type="curve"/>
      <point x="339" y="218" type="line"/>
      <point x="326" y="213"/>
      <point x="312" y="211"/>
      <point x="303" y="211" type="curve" smooth="yes"/>
      <point x="270" y="211"/>
      <point x="249" y="239"/>
      <point x="249" y="281" type="curve" smooth="yes"/>
      <point x="249" y="342"/>
      <point x="290" y="418"/>
      <point x="432" y="489" type="curve"/>
      <point x="386" y="380" type="line"/>
      <point x="258" y="593" type="line"/>
      <point x="358" y="557" type="line"/>
      <point x="186" y="499"/>
      <point x="95" y="407"/>
      <point x="95" y="272" type="curve" smooth="yes"/>
      <point x="95" y="142"/>
      <point x="187" y="85"/>
    </contour>
    <contour>
      <point x="173" y="263" type="curve"/>
      <point x="233" y="375" type="line"/>
      <point x="204" y="395"/>
      <point x="187" y="437"/>
      <point x="187" y="472" type="curve" smooth="yes"/>
      <point x="187" y="557"/>
      <point x="287" y="599"/>
      <point x="399" y="599" type="curve" smooth="yes"/>
      <point x="506" y="599"/>
      <point x="618" y="558"/>
      <point x="618" y="475" type="curve" smooth="yes"/>
      <point x="618" y="441"/>
      <point x="602" y="407"/>
      <point x="578" y="381" type="curve"/>
      <point x="539" y="453" type="line"/>
      <point x="843" y="346" type="line"/>
      <point x="741" y="325" type="line"/>
      <point x="776" y="368"/>
      <point x="793" y="417"/>
      <point x="793" y="473" type="curve" smooth="yes"/>
      <point x="793" y="663"/>
      <point x="594" y="759"/>
      <point x="398" y="759" type="curve" smooth="yes"/>
      <point x="205" y="759"/>
      <point x="22" y="666"/>
      <point x="22" y="492" type="curve" smooth="yes"/>
      <point x="22" y="406"/>
      <point x="67" y="326"/>
    </contour>
  </outline>
</glyph>
<glyph name="ja-oriya.base.REV_BRACKET.141" format="2">
  <advance width="791"/>
  <anchor x="524" y="203" name="bottom"/>
  <anchor x="390" y="751" name="top"/>
  <anchor x="619" y="751" name="topright"/>
  <outline>
    <contour>
      <point x="302" y="164" type="curve"/>
      <point x="302" y="164" type="line"/>
      <point x="339.429" y="164"/>
      <point x="381.923" y="169.065"/>
      <point x="423.327" y="181.658" type="curve"/>
      <point x="414.056" y="243.621"/>
      <point x="409" y="292.524"/>
      <point x="409" y="333" type="curve"/>
      <point x="409" y="363"/>
      <point x="411" y="385"/>
      <point x="427" y="385" type="curve"/>
      <point x="443" y="385"/>
      <point x="442" y="362"/>
      <point x="442" y="354" type="curve"/>
      <point x="442" y="169" type="line"/>
      <point x="605" y="169" type="line"/>
      <point x="605" y="373" type="line" smooth="yes"/>
      <point x="605" y="449"/>
      <point x="547" y="498"/>
      <point x="443" y="498" type="curve"/>
      <point x="321" y="498"/>
      <point x="263" y="431"/>
      <point x="263" y="335" type="curve"/>
      <point x="263" y="304"/>
      <point x="269" y="264"/>
      <point x="283" y="223" type="curve"/>
      <point x="328" y="279" type="line"/>
      <point x="317" y="275"/>
      <point x="304" y="274"/>
      <point x="297" y="274" type="curve"/>
      <point x="264" y="274"/>
      <point x="234" y="300"/>
      <point x="234" y="338" type="curve"/>
      <point x="234" y="377"/>
      <point x="265" y="435"/>
      <point x="337" y="477" type="curve"/>
      <point x="284" y="558" type="line"/>
      <point x="159" y="505"/>
      <point x="98" y="432"/>
      <point x="98" y="331" type="curve"/>
      <point x="98" y="211"/>
      <point x="185" y="164"/>
    </contour>
    <contour>
      <point x="169" y="321" type="curve"/>
      <point x="169" y="321" type="line"/>
      <point x="227" y="419" type="line"/>
      <point x="199" y="437"/>
      <point x="182" y="475"/>
      <point x="182" y="506" type="curve"/>
      <point x="182" y="574"/>
      <point x="260" y="614"/>
      <point x="392" y="614" type="curve"/>
      <point x="522" y="614"/>
      <point x="599" y="575"/>
      <point x="599" y="508" type="curve"/>
      <point x="599" y="494.443"/>
      <point x="595.784" y="478.589"/>
      <point x="590.597" y="467.601" type="curve"/>
      <point x="747.793" y="416.13" type="line"/>
      <point x="760.686" y="442.619"/>
      <point x="769" y="473.246"/>
      <point x="769" y="511" type="curve"/>
      <point x="769" y="665"/>
      <point x="629" y="759"/>
      <point x="389" y="759" type="curve"/>
      <point x="158" y="759"/>
      <point x="22" y="671"/>
      <point x="22" y="528" type="curve"/>
      <point x="22" y="447"/>
      <point x="66" y="377"/>
    </contour>
  </outline>
</glyph>
<glyph name="ja-oriya.below" format="2">
  <note>
jasubscriptorya
</note>
  <guideline x="209" y="199" angle="90"/>
  <anchor x="239" y="203" name="_bottom"/>
  <outline>
    <contour>
      <point x="161" y="-75" type="curve" smooth="yes"/>
      <point x="206" y="-75"/>
      <point x="251" y="-71"/>
      <point x="304" y="-53" type="curve"/>
      <point x="286" y="-107" type="line"/>
      <point x="276" y="-62"/>
      <point x="263" y="7"/>
      <point x="263" y="68" type="curve" smooth="yes"/>
      <point x="263" y="100"/>
      <point x="266" y="115"/>
      <point x="279" y="115" type="curve" smooth="yes"/>
      <point x="290" y="115"/>
      <point x="291" y="102"/>
      <point x="291" y="92" type="curve" smooth="yes"/>
      <point x="291" y="-71" type="line"/>
      <point x="399" y="-71" type="line"/>
      <point x="399" y="106" type="line" smooth="yes"/>
      <point x="399" y="168"/>
      <point x="360" y="209"/>
      <point x="284" y="209" type="curve" smooth="yes"/>
      <point x="194" y="209"/>
      <point x="155" y="151"/>
      <point x="155" y="72" type="curve" smooth="yes"/>
      <point x="155" y="41"/>
      <point x="162" y="5"/>
      <point x="173" y="-28" type="curve"/>
      <point x="190" y="25" type="line"/>
      <point x="180" y="21"/>
      <point x="171" y="19"/>
      <point x="163" y="19" type="curve" smooth="yes"/>
      <point x="137" y="19"/>
      <point x="120" y="40"/>
      <point x="120" y="79" type="curve" smooth="yes"/>
      <point x="120" y="131"/>
      <point x="155" y="177"/>
      <point x="301" y="258" type="curve"/>
      <point x="206" y="108" type="line"/>
      <point x="26" y="267" type="line"/>
      <point x="173" y="260" type="line"/>
      <point x="63" y="227"/>
      <point x="12" y="140"/>
      <point x="12" y="66" type="curve" smooth="yes"/>
      <point x="12" y="-9"/>
      <point x="64" y="-75"/>
    </contour>
  </outline>
</glyph>
<glyph name="ja_ja-oriya" format="2">
  <advance width="791"/>
  <note>
jajaorya
</note>
  <guideline x="605" y="177" angle="90"/>
  <guideline x="675" y="177" angle="90"/>
  <anchor x="390" y="751" name="top"/>
  <anchor x="619" y="751" name="topright"/>
  <outline>
    <contour>
      <point x="169" y="321" type="curve"/>
      <point x="227" y="419" type="line"/>
      <point x="199" y="437"/>
      <point x="182" y="475"/>
      <point x="182" y="506" type="curve" smooth="yes"/>
      <point x="182" y="574"/>
      <point x="260" y="614"/>
      <point x="392" y="614" type="curve" smooth="yes"/>
      <point x="522" y="614"/>
      <point x="599" y="575"/>
      <point x="599" y="508" type="curve" smooth="yes"/>
      <point x="599" y="488"/>
      <point x="592" y="463"/>
      <point x="582" y="456" type="curve"/>
      <point x="568" y="475" type="line"/>
      <point x="794" y="401" type="line"/>
      <point x="721" y="373" type="line"/>
      <point x="748" y="409"/>
      <point x="769" y="451"/>
      <point x="769" y="508" type="curve" smooth="yes"/>
      <point x="769" y="666"/>
      <point x="628" y="759"/>
      <point x="389" y="759" type="curve" smooth="yes"/>
      <point x="158" y="759"/>
      <point x="22" y="672"/>
      <point x="22" y="524" type="curve" smooth="yes"/>
      <point x="22" y="448"/>
      <point x="66" y="377"/>
    </contour>
    <contour>
      <point x="412" y="-75" type="curve" smooth="yes"/>
      <point x="448" y="-75"/>
      <point x="509" y="-70"/>
      <point x="565" y="-53" type="curve"/>
      <point x="544" y="-107" type="line"/>
      <point x="533" y="-62"/>
      <point x="518" y="4"/>
      <point x="518" y="70" type="curve" smooth="yes"/>
      <point x="518" y="99"/>
      <point x="521" y="115"/>
      <point x="536" y="115" type="curve" smooth="yes"/>
      <point x="550" y="115"/>
      <point x="550" y="99"/>
      <point x="550" y="92" type="curve" smooth="yes"/>
      <point x="550" y="-71" type="line"/>
      <point x="674" y="-71" type="line"/>
      <point x="674" y="106" type="line" smooth="yes"/>
      <point x="674" y="168"/>
      <point x="630" y="209"/>
      <point x="542" y="209" type="curve" smooth="yes"/>
      <point x="438" y="209"/>
      <point x="393" y="151"/>
      <point x="393" y="74" type="curve" smooth="yes"/>
      <point x="393" y="39"/>
      <point x="402" y="4"/>
      <point x="414" y="-28" type="curve"/>
      <point x="434" y="25" type="line"/>
      <point x="422" y="21"/>
      <point x="412" y="19"/>
      <point x="403" y="19" type="curve" smooth="yes"/>
      <point x="373" y="19"/>
      <point x="353" y="40"/>
      <point x="353" y="78" type="curve" smooth="yes"/>
      <point x="353" y="118"/>
      <point x="375" y="148"/>
      <point x="423" y="182" type="curve"/>
      <point x="324" y="226" type="line"/>
      <point x="264" y="183"/>
      <point x="229" y="125"/>
      <point x="229" y="65" type="curve" smooth="yes"/>
      <point x="229" y="-9"/>
      <point x="282" y="-75"/>
    </contour>
    <contour>
      <point x="309" y="164" type="curve" smooth="yes"/>
      <point x="344" y="164"/>
      <point x="397" y="171"/>
      <point x="445" y="189" type="curve"/>
      <point x="434" y="115" type="line"/>
      <point x="418" y="210"/>
      <point x="409" y="279"/>
      <point x="409" y="333" type="curve" smooth="yes"/>
      <point x="409" y="363"/>
      <point x="411" y="385"/>
      <point x="427" y="385" type="curve" smooth="yes"/>
      <point x="443" y="385"/>
      <point x="442" y="362"/>
      <point x="442" y="354" type="curve" smooth="yes"/>
      <point x="442" y="169" type="line"/>
      <point x="605" y="169" type="line"/>
      <point x="605" y="373" type="line" smooth="yes"/>
      <point x="605" y="449"/>
      <point x="550" y="498"/>
      <point x="444" y="498" type="curve" smooth="yes"/>
      <point x="343" y="498"/>
      <point x="283" y="431"/>
      <point x="283" y="334" type="curve" smooth="yes"/>
      <point x="283" y="304"/>
      <point x="289" y="264"/>
      <point x="303" y="223" type="curve"/>
      <point x="328" y="279" type="line"/>
      <point x="317" y="275"/>
      <point x="304" y="274"/>
      <point x="297" y="274" type="curve" smooth="yes"/>
      <point x="264" y="274"/>
      <point x="244" y="301"/>
      <point x="244" y="336" type="curve" smooth="yes"/>
      <point x="244" y="379"/>
      <point x="269" y="433"/>
      <point x="337" y="477" type="curve"/>
      <point x="284" y="558" type="line"/>
      <point x="159" y="505"/>
      <point x="98" y="433"/>
      <point x="98" y="328" type="curve" smooth="yes"/>
      <point x="98" y="211"/>
      <point x="185" y="164"/>
    </contour>
  </outline>
</glyph>
<glyph name="ja_ja_va-oriya" format="2">
  <advance width="901"/>
  <guideline x="640" y="-99" angle="0"/>
  <guideline x="605" y="177" angle="90"/>
  <guideline x="675" y="177" angle="90"/>
  <anchor x="390" y="751" name="top"/>
  <anchor x="619" y="751" name="topright"/>
  <outline>
    <contour>
      <point x="725" y="-151" type="line"/>
      <point x="875" y="-151" type="line"/>
      <point x="875" y="153" type="line"/>
      <point x="725" y="153" type="line"/>
      <point x="725" y="-90" type="line"/>
      <point x="734" y="-99" type="line"/>
    </contour>
    <contour>
      <point x="557" y="16" type="line" smooth="yes"/>
      <point x="557" y="1"/>
      <point x="557" y="-111"/>
      <point x="679" y="-111" type="curve" smooth="yes"/>
      <point x="755" y="-111"/>
      <point x="828" y="-68"/>
      <point x="828" y="38" type="curve"/>
      <point x="746" y="47" type="line"/>
      <point x="746" y="8"/>
      <point x="724" y="-17"/>
      <point x="703" y="-17" type="curve" smooth="yes"/>
      <point x="690" y="-17"/>
      <point x="675" y="-7"/>
      <point x="675" y="24" type="curve" smooth="yes"/>
      <point x="675" y="106" type="line" smooth="yes"/>
      <point x="675" y="168"/>
      <point x="633" y="209"/>
      <point x="549" y="209" type="curve" smooth="yes"/>
      <point x="447" y="209"/>
      <point x="404" y="151"/>
      <point x="404" y="72" type="curve" smooth="yes"/>
      <point x="404" y="41"/>
      <point x="412" y="5"/>
      <point x="424" y="-28" type="curve"/>
      <point x="443" y="25" type="line"/>
      <point x="433" y="21"/>
      <point x="423" y="19"/>
      <point x="414" y="19" type="curve" smooth="yes"/>
      <point x="384" y="19"/>
      <point x="370" y="42"/>
      <point x="370" y="71" type="curve" smooth="yes"/>
      <point x="370" y="107"/>
      <point x="390" y="153"/>
      <point x="423" y="182" type="curve"/>
      <point x="327" y="212" type="line"/>
      <point x="274" y="170"/>
      <point x="248" y="116"/>
      <point x="248" y="65" type="curve" smooth="yes"/>
      <point x="248" y="-9"/>
      <point x="300" y="-75"/>
      <point x="422" y="-75" type="curve" smooth="yes"/>
      <point x="456" y="-75"/>
      <point x="513" y="-71"/>
      <point x="571" y="-53" type="curve"/>
      <point x="551" y="-107" type="line"/>
      <point x="540" y="-62"/>
      <point x="526" y="7"/>
      <point x="526" y="68" type="curve" smooth="yes"/>
      <point x="526" y="100"/>
      <point x="529" y="115"/>
      <point x="543" y="115" type="curve" smooth="yes"/>
      <point x="556" y="115"/>
      <point x="557" y="102"/>
      <point x="557" y="92" type="curve" smooth="yes"/>
    </contour>
    <contour>
      <point x="309" y="164" type="curve" smooth="yes"/>
      <point x="344" y="164"/>
      <point x="397" y="171"/>
      <point x="445" y="189" type="curve"/>
      <point x="434" y="115" type="line"/>
      <point x="418" y="210"/>
      <point x="409" y="279"/>
      <point x="409" y="333" type="curve" smooth="yes"/>
      <point x="409" y="363"/>
      <point x="411" y="385"/>
      <point x="427" y="385" type="curve" smooth="yes"/>
      <point x="443" y="385"/>
      <point x="442" y="362"/>
      <point x="442" y="354" type="curve" smooth="yes"/>
      <point x="442" y="169" type="line"/>
      <point x="605" y="169" type="line"/>
      <point x="605" y="373" type="line" smooth="yes"/>
      <point x="605" y="449"/>
      <point x="550" y="498"/>
      <point x="444" y="498" type="curve" smooth="yes"/>
      <point x="343" y="498"/>
      <point x="283" y="431"/>
      <point x="283" y="334" type="curve" smooth="yes"/>
      <point x="283" y="304"/>
      <point x="289" y="264"/>
      <point x="303" y="223" type="curve"/>
      <point x="328" y="279" type="line"/>
      <point x="317" y="275"/>
      <point x="304" y="274"/>
      <point x="297" y="274" type="curve" smooth="yes"/>
      <point x="264" y="274"/>
      <point x="244" y="301"/>
      <point x="244" y="336" type="curve" smooth="yes"/>
      <point x="244" y="379"/>
      <point x="269" y="433"/>
      <point x="337" y="477" type="curve"/>
      <point x="284" y="558" type="line"/>
      <point x="159" y="505"/>
      <point x="98" y="433"/>
      <point x="98" y="328" type="curve" smooth="yes"/>
      <point x="98" y="211"/>
      <point x="185" y="164"/>
    </contour>
    <contour>
      <point x="169" y="321" type="curve"/>
      <point x="227" y="419" type="line"/>
      <point x="199" y="437"/>
      <point x="182" y="475"/>
      <point x="182" y="506" type="curve" smooth="yes"/>
      <point x="182" y="574"/>
      <point x="260" y="614"/>
      <point x="392" y="614" type="curve" smooth="yes"/>
      <point x="522" y="614"/>
      <point x="599" y="575"/>
      <point x="599" y="508" type="curve" smooth="yes"/>
      <point x="599" y="488"/>
      <point x="592" y="463"/>
      <point x="582" y="456" type="curve"/>
      <point x="568" y="475" type="line"/>
      <point x="794" y="401" type="line"/>
      <point x="721" y="373" type="line"/>
      <point x="748" y="409"/>
      <point x="769" y="451"/>
      <point x="769" y="508" type="curve" smooth="yes"/>
      <point x="769" y="666"/>
      <point x="628" y="759"/>
      <point x="389" y="759" type="curve" smooth="yes"/>
      <point x="158" y="759"/>
      <point x="22" y="672"/>
      <point x="22" y="524" type="curve" smooth="yes"/>
      <point x="22" y="448"/>
      <point x="66" y="377"/>
    </contour>
  </outline>
</glyph>
<glyph name="ja_va-oriya" format="2">
  <advance width="791"/>
  <anchor x="390" y="751" name="top"/>
  <anchor x="619" y="751" name="topright"/>
  <outline>
    <contour>
      <point x="169" y="321" type="curve"/>
      <point x="227" y="419" type="line"/>
      <point x="199" y="437"/>
      <point x="182" y="475"/>
      <point x="182" y="506" type="curve" smooth="yes"/>
      <point x="182" y="574"/>
      <point x="260" y="614"/>
      <point x="392" y="614" type="curve" smooth="yes"/>
      <point x="522" y="614"/>
      <point x="599" y="575"/>
      <point x="599" y="508" type="curve" smooth="yes"/>
      <point x="599" y="488"/>
      <point x="592" y="463"/>
      <point x="582" y="456" type="curve"/>
      <point x="568" y="475" type="line"/>
      <point x="794" y="401" type="line"/>
      <point x="721" y="373" type="line"/>
      <point x="748" y="409"/>
      <point x="769" y="451"/>
      <point x="769" y="508" type="curve" smooth="yes"/>
      <point x="769" y="666"/>
      <point x="628" y="759"/>
      <point x="389" y="759" type="curve" smooth="yes"/>
      <point x="158" y="759"/>
      <point x="22" y="672"/>
      <point x="22" y="524" type="curve" smooth="yes"/>
      <point x="22" y="448"/>
      <point x="66" y="377"/>
    </contour>
    <contour>
      <point x="372" y="-114" type="curve" smooth="yes"/>
      <point x="457" y="-114"/>
      <point x="542" y="-63"/>
      <point x="542" y="43" type="curve"/>
      <point x="459" y="57" type="line"/>
      <point x="459" y="19"/>
      <point x="433" y="-7"/>
      <point x="400" y="-7" type="curve" smooth="yes"/>
      <point x="370" y="-7"/>
      <point x="359" y="13"/>
      <point x="359" y="40" type="curve" smooth="yes"/>
      <point x="359" y="66"/>
      <point x="367" y="97"/>
      <point x="381" y="128" type="curve"/>
      <point x="408" y="89" type="line"/>
      <point x="226" y="116" type="line"/>
      <point x="259" y="142" type="line"/>
      <point x="239" y="106"/>
      <point x="229" y="67"/>
      <point x="229" y="30" type="curve" smooth="yes"/>
      <point x="229" y="-48"/>
      <point x="276" y="-114"/>
    </contour>
    <contour>
      <point x="605" y="-151" type="line"/>
      <point x="605" y="373" type="line" smooth="yes"/>
      <point x="605" y="449"/>
      <point x="550" y="498"/>
      <point x="444" y="498" type="curve" smooth="yes"/>
      <point x="343" y="498"/>
      <point x="283" y="431"/>
      <point x="283" y="334" type="curve" smooth="yes"/>
      <point x="283" y="304"/>
      <point x="289" y="264"/>
      <point x="303" y="223" type="curve"/>
      <point x="328" y="279" type="line"/>
      <point x="317" y="275"/>
      <point x="304" y="274"/>
      <point x="297" y="274" type="curve" smooth="yes"/>
      <point x="264" y="274"/>
      <point x="244" y="301"/>
      <point x="244" y="336" type="curve" smooth="yes"/>
      <point x="244" y="379"/>
      <point x="269" y="433"/>
      <point x="337" y="477" type="curve"/>
      <point x="284" y="558" type="line"/>
      <point x="159" y="505"/>
      <point x="98" y="433"/>
      <point x="98" y="328" type="curve" smooth="yes"/>
      <point x="98" y="211"/>
      <point x="185" y="164"/>
      <point x="309" y="164" type="curve" smooth="yes"/>
      <point x="344" y="164"/>
      <point x="397" y="171"/>
      <point x="445" y="189" type="curve"/>
      <point x="434" y="115" type="line"/>
      <point x="418" y="210"/>
      <point x="409" y="279"/>
      <point x="409" y="333" type="curve" smooth="yes"/>
      <point x="409" y="363"/>
      <point x="411" y="385"/>
      <point x="427" y="385" type="curve" smooth="yes"/>
      <point x="443" y="385"/>
      <point x="442" y="362"/>
      <point x="442" y="354" type="curve" smooth="yes"/>
      <point x="442" y="-48" type="line"/>
      <point x="452" y="-57" type="line"/>
      <point x="442" y="-151" type="line"/>
    </contour>
  </outline>
</glyph>
<glyph name="jha-oriya.base" format="2">
  <advance width="713"/>
  <guideline x="707" y="526" angle="90"/>
  <anchor x="442" y="203" name="bottom"/>
  <anchor x="366" y="751" name="top"/>
  <anchor x="557" y="751" name="topright"/>
  <outline>
    <contour>
      <point x="168" y="320" type="curve"/>
      <point x="229" y="419" type="line"/>
      <point x="199" y="450"/>
      <point x="184" y="478"/>
      <point x="184" y="509" type="curve" smooth="yes"/>
      <point x="184" y="562"/>
      <point x="229" y="609"/>
      <point x="355" y="609" type="curve" smooth="yes"/>
      <point x="379" y="609"/>
      <point x="411" y="606"/>
      <point x="422" y="602" type="curve"/>
      <point x="399" y="759" type="line"/>
      <point x="394" y="759"/>
      <point x="378" y="759"/>
      <point x="371" y="759" type="curve" smooth="yes"/>
      <point x="151" y="759"/>
      <point x="22" y="671"/>
      <point x="22" y="528" type="curve" smooth="yes"/>
      <point x="22" y="436"/>
      <point x="76" y="373"/>
    </contour>
    <contour>
      <point x="629" y="131" type="line"/>
      <point x="712" y="325" type="line"/>
      <point x="796" y="279" type="line"/>
      <point x="482" y="379" type="line"/>
      <point x="455" y="239" type="line"/>
      <point x="694" y="148" type="line"/>
    </contour>
    <contour>
      <point x="518" y="481" type="curve" smooth="yes"/>
      <point x="647" y="481"/>
      <point x="707" y="547"/>
      <point x="707" y="619" type="curve" smooth="yes"/>
      <point x="707" y="682"/>
      <point x="662" y="749"/>
      <point x="579" y="784" type="curve"/>
      <point x="640" y="773" type="line"/>
      <point x="516" y="661" type="line"/>
      <point x="531" y="719" type="line"/>
      <point x="535" y="712"/>
      <point x="564" y="675"/>
      <point x="564" y="646" type="curve" smooth="yes"/>
      <point x="564" y="617"/>
      <point x="538" y="603"/>
      <point x="513" y="603" type="curve" smooth="yes"/>
      <point x="488" y="603"/>
      <point x="464" y="616"/>
      <point x="464" y="643" type="curve" smooth="yes"/>
      <point x="464" y="654"/>
      <point x="467" y="670"/>
      <point x="478" y="691" type="curve"/>
      <point x="399" y="759" type="line"/>
      <point x="349" y="727"/>
      <point x="319" y="674"/>
      <point x="319" y="622" type="curve" smooth="yes"/>
      <point x="319" y="550"/>
      <point x="378" y="481"/>
    </contour>
    <contour>
      <point x="316" y="163" type="curve" smooth="yes"/>
      <point x="422" y="163"/>
      <point x="518" y="218"/>
      <point x="518" y="331" type="curve" smooth="yes"/>
      <point x="518" y="443"/>
      <point x="422" y="499"/>
      <point x="317" y="499" type="curve" smooth="yes"/>
      <point x="211" y="499"/>
      <point x="114" y="443"/>
      <point x="114" y="330" type="curve" smooth="yes"/>
      <point x="114" y="218"/>
      <point x="211" y="163"/>
    </contour>
    <contour>
      <point x="316" y="287" type="curve" smooth="yes"/>
      <point x="285" y="287"/>
      <point x="266" y="303"/>
      <point x="266" y="330" type="curve" smooth="yes"/>
      <point x="266" y="358"/>
      <point x="285" y="375"/>
      <point x="316" y="375" type="curve" smooth="yes"/>
      <point x="347" y="375"/>
      <point x="366" y="358"/>
      <point x="366" y="330" type="curve" smooth="yes"/>
      <point x="366" y="303"/>
      <point x="347" y="287"/>
    </contour>
  </outline>
</glyph>
